<?xml version="1.0" encoding="utf-8"?>
<!-- Generator: Adobe Illustrator 16.0.0, SVG Export Plug-In . SVG Version: 6.00 Build 0)  -->
<!DOCTYPE svg PUBLIC "-//W3C//DTD SVG 1.1//EN" "http://www.w3.org/Graphics/SVG/1.1/DTD/svg11.dtd">
<svg version="1.1" id="Layer_1" xmlns="http://www.w3.org/2000/svg" xmlns:xlink="http://www.w3.org/1999/xlink" x="0px" y="0px"
	 width="100px" height="100px" viewBox="0 0 100 100" enable-background="new 0 0 100 100" xml:space="preserve">
<g>
	<path d="M37.417,80.5c-5.836,0-10.583-4.747-10.583-10.583c0-0.625,0.06-1.259,0.177-1.893c-4.491-1.87-7.449-6.249-7.449-11.165
		c0-2.569,0.828-5.078,2.344-7.146c-1.031-1.582-1.572-3.397-1.572-5.296c0-5.376,4.374-9.75,9.75-9.75
		c1.083,0,2.144,0.178,3.164,0.531c2.503-3.792,6.771-6.115,11.335-6.115c5.844,0,10.938,3.687,12.817,9.115
		c2.521-1.379,5.338-2.102,8.223-2.102c9.485,0,17.202,7.717,17.202,17.202c0,9.485-7.717,17.202-17.202,17.202
		c-1.537,0-3.099-0.219-4.64-0.651c-0.088-0.007-0.164,0.017-0.201,0.086c-2.119,3.93-6.204,6.37-10.659,6.37
		c-1.304,0-2.588-0.211-3.828-0.627C44.351,78.673,41.024,80.5,37.417,80.5z M30.083,36.667c-4.273,0-7.75,3.477-7.75,7.75
		c0,1.715,0.557,3.346,1.611,4.716l0.49,0.636l-0.516,0.616c-1.52,1.815-2.357,4.115-2.357,6.474c0,4.358,2.786,8.211,6.933,9.586
		l0.899,0.298l-0.249,0.914c-0.207,0.759-0.312,1.52-0.312,2.26c0,4.732,3.851,8.583,8.583,8.583c3.165,0,6.063-1.734,7.564-4.526
		l0.429-0.798l0.836,0.349c1.245,0.518,2.549,0.78,3.877,0.78c3.72,0,7.129-2.038,8.899-5.319c0.475-0.881,1.541-1.334,2.502-1.063
		c1.364,0.383,2.744,0.577,4.099,0.577c8.383,0,15.202-6.819,15.202-15.202c0-8.382-6.819-15.202-15.202-15.202
		c-2.939,0-5.801,0.851-8.272,2.46l-1.187,0.773l-0.332-1.377c-1.256-5.222-5.882-8.869-11.249-8.869
		c-4.14,0-7.993,2.241-10.056,5.849l-0.45,0.788l-0.828-0.372C32.242,36.896,31.176,36.667,30.083,36.667z"/>
</g>
</svg>
