<?xml version="1.0" encoding="utf-8"?>
<!-- Generator: Adobe Illustrator 16.0.0, SVG Export Plug-In . SVG Version: 6.00 Build 0)  -->
<!DOCTYPE svg PUBLIC "-//W3C//DTD SVG 1.1//EN" "http://www.w3.org/Graphics/SVG/1.1/DTD/svg11.dtd">
<svg version="1.1" id="Layer_1" xmlns="http://www.w3.org/2000/svg" xmlns:xlink="http://www.w3.org/1999/xlink" x="0px" y="0px"
	 width="100px" height="100px" viewBox="0 0 100 100" enable-background="new 0 0 100 100" xml:space="preserve">
<path d="M77.865,42.813c0-4.864-3.957-8.82-8.82-8.82c-0.559,0-1.125,0.057-1.689,0.169c-4.332-5.2-10.646-8.169-17.427-8.169
	c-9.719,0-18.464,6.343-21.524,15.514c-6.553,0.307-11.789,5.735-11.789,12.362c0,6.822,5.551,12.375,12.375,12.375
	c1.818,0,3.621-0.403,5.257-1.171c4.243,4.065,9.782,6.296,15.68,6.296c9.513,0,17.943-5.887,21.249-14.738
	c0.205,0.023,0.404,0.035,0.604,0.035c3.354,0,6.086-2.73,6.086-6.086c0-1.245-0.391-2.456-1.111-3.478
	C77.482,45.794,77.865,44.326,77.865,42.813z"/>
</svg>
