<?xml version="1.0" encoding="utf-8"?>
<!-- Generator: Adobe Illustrator 16.0.0, SVG Export Plug-In . SVG Version: 6.00 Build 0)  -->
<!DOCTYPE svg PUBLIC "-//W3C//DTD SVG 1.1//EN" "http://www.w3.org/Graphics/SVG/1.1/DTD/svg11.dtd">
<svg version="1.1" id="Layer_1" xmlns="http://www.w3.org/2000/svg" xmlns:xlink="http://www.w3.org/1999/xlink" x="0px" y="0px"
	 width="100px" height="100px" viewBox="0 0 100 100" enable-background="new 0 0 100 100" xml:space="preserve">
<path d="M83.812,25.727c0-7.134-5.805-12.94-12.938-12.94c-2.172,0-4.312,0.551-6.213,1.595c-1.56-1.03-3.418-1.595-5.284-1.595
	c-3.932,0-7.416,2.374-8.861,5.967c-0.69-0.157-1.397-0.236-2.108-0.236c-5.274,0-9.565,4.292-9.565,9.566
	c0,0.695,0.078,1.372,0.221,2.024c-2.592,1.626-4.602,4.125-5.601,7.167c-1.239-0.369-2.521-0.558-3.819-0.558
	c-7.418,0-13.453,6.035-13.453,13.453c0,7.417,6.035,13.45,13.453,13.45c2.045,0,4.051-0.468,5.883-1.361
	c1.408,3.748,4.396,6.612,8.072,7.921l-2.487,4.112l3.816,2.644l-3.815,10.278l10.865-9.616l-5.433-3.306l3.363-3.454
	c3.93-0.531,7.44-2.77,9.575-6.15c1.373,0.312,2.754,0.475,4.119,0.475c10.229,0,18.551-8.321,18.551-18.551
	c0-3.963-1.26-7.633-3.387-10.649C81.828,33.591,83.812,29.892,83.812,25.727z M48.405,21.404c0.86,0,1.706,0.166,2.51,0.492
	c0.175,0.071,0.356,0.107,0.544,0.107c0.232,0,0.463-0.057,0.667-0.164c0.376-0.196,0.646-0.547,0.741-0.961
	c0.691-3.064,3.367-5.205,6.509-5.205c1.558,0,3.077,0.551,4.274,1.549c0.259,0.217,0.588,0.336,0.926,0.336
	c0.281,0,0.555-0.081,0.792-0.236c1.642-1.078,3.546-1.648,5.505-1.648c5.543,0,10.055,4.511,10.055,10.054
	c0,3.271-1.576,6.173-4,8.009c-3.377-3.495-8.099-5.678-13.328-5.678c-3.336,0-6.582,0.893-9.442,2.59
	c-2.296-1.675-5.08-2.59-7.934-2.59c-1.559,0-3.057,0.268-4.455,0.754c-0.026-0.24-0.043-0.482-0.043-0.729
	C41.725,24.4,44.721,21.404,48.405,21.404z M79.801,46.61c0,8.934-7.269,16.201-16.201,16.201c-1.443,0-2.916-0.205-4.369-0.615
	c-0.53-0.146-1.09,0.093-1.353,0.574c-1.942,3.604-5.69,5.845-9.778,5.845c-5.082,0-9.502-3.443-10.75-8.375
	c-0.092-0.363-0.354-0.662-0.705-0.804c-0.139-0.055-0.287-0.082-0.434-0.082c-0.22,0-0.439,0.062-0.63,0.185
	c-1.786,1.136-3.84,1.733-5.94,1.733c-6.123,0-11.103-4.979-11.103-11.103s4.979-11.104,11.103-11.104
	c1.434,0,2.836,0.275,4.174,0.819c0.318,0.131,0.681,0.115,0.986-0.046c0.307-0.16,0.526-0.446,0.603-0.782
	c0.632-2.802,2.266-5.132,4.473-6.668c0.787-0.547,1.646-0.995,2.562-1.324c1.185-0.426,2.461-0.658,3.787-0.658
	c2.59,0,5.115,0.916,7.105,2.575c0.396,0.332,0.964,0.364,1.396,0.08c2.646-1.737,5.715-2.655,8.873-2.655
	c4.363,0,8.322,1.742,11.237,4.558c0.718,0.69,1.366,1.448,1.946,2.262C78.676,39.877,79.801,43.112,79.801,46.61z"/>
<g>
	<path d="M47.051,94.687l4.485-6.561V88.09h-4.102v-0.876h5.457v0.636l-4.461,6.537v0.035h4.521v0.876h-5.9V94.687z"/>
</g>
</svg>
