<?xml version="1.0" encoding="utf-8"?>
<!-- Generator: Adobe Illustrator 16.0.0, SVG Export Plug-In . SVG Version: 6.00 Build 0)  -->
<!DOCTYPE svg PUBLIC "-//W3C//DTD SVG 1.1//EN" "http://www.w3.org/Graphics/SVG/1.1/DTD/svg11.dtd">
<svg version="1.1" id="Layer_1" xmlns="http://www.w3.org/2000/svg" xmlns:xlink="http://www.w3.org/1999/xlink" x="0px" y="0px"
	 width="100px" height="100px" viewBox="0 0 100 100" enable-background="new 0 0 100 100" xml:space="preserve">
<rect x="28.924" y="60.447" width="42.153" height="2"/>
<rect x="28.924" y="64.447" width="42.153" height="2"/>
<rect x="28.924" y="68.447" width="42.153" height="2"/>
<path d="M42.792,44.375c1.092-1.092,2.372-1.875,3.735-2.374c-0.264,3.415,0.882,6.918,3.451,9.549l-0.004,0.005
	c0.015,0.016,0.03,0.026,0.045,0.04c0.02,0.021,0.035,0.041,0.055,0.062l0.006-0.006c2.63,2.569,6.135,3.715,9.549,3.451
	c-0.294,0.804-0.699,1.571-1.195,2.297h2.338c0.459-0.856,0.824-1.752,1.068-2.674c0.192-0.728,0.319-1.466,0.377-2.211
	c-0.674,0.246-1.365,0.418-2.068,0.521c-3.084,0.442-6.334-0.5-8.715-2.852c-2.342-2.379-3.28-5.62-2.837-8.7
	c0.101-0.703,0.273-1.395,0.519-2.068c-0.745,0.058-1.483,0.185-2.21,0.376c-2.025,0.537-3.941,1.585-5.526,3.17
	c-3.904,3.903-4.619,9.793-2.167,14.437h2.326C38.843,53.396,39.256,47.912,42.792,44.375z"/>
<g>
	<path d="M47.662,74.666h1.043v3.898h0.036c0.216-0.312,0.432-0.6,0.636-0.863l2.471-3.035h1.295l-2.926,3.431l3.153,4.653h-1.235
		l-2.662-3.97l-0.768,0.888v3.082h-1.043V74.666z"/>
</g>
</svg>
