<?xml version="1.0" encoding="utf-8"?>
<!-- Generator: Adobe Illustrator 16.0.0, SVG Export Plug-In . SVG Version: 6.00 Build 0)  -->
<!DOCTYPE svg PUBLIC "-//W3C//DTD SVG 1.1//EN" "http://www.w3.org/Graphics/SVG/1.1/DTD/svg11.dtd">
<svg version="1.1" id="Layer_1" xmlns="http://www.w3.org/2000/svg" xmlns:xlink="http://www.w3.org/1999/xlink" x="0px" y="0px"
	 width="100px" height="100px" viewBox="0 0 100 100" enable-background="new 0 0 100 100" xml:space="preserve">
<g>
	<rect x="48.999" y="29.553" width="2.001" height="7.403"/>
	<rect x="34.014" y="37.343" transform="matrix(-0.7071 -0.7071 0.7071 -0.7071 37.2727 92.1249)" width="7.403" height="2"/>
	<rect x="61.285" y="34.641" transform="matrix(-0.707 -0.7072 0.7072 -0.707 79.2029 109.5)" width="2" height="7.403"/>
	<rect x="63.674" y="50.63" width="7.403" height="2"/>
	<rect x="28.924" y="50.63" width="7.402" height="2"/>
	<path d="M37.703,51.5c0,0.021,0.003,0.041,0.003,0.062c0,0.026-0.004,0.054-0.004,0.08h0.008c0.024,2.084,0.57,4.043,1.51,5.756
		h2.354c-1.162-1.655-1.854-3.666-1.867-5.836C39.751,45.921,44.35,41.345,50,41.345c5.658,0,10.262,4.586,10.295,10.236
		c-0.018,2.163-0.708,4.166-1.865,5.817h2.354c0.939-1.713,1.484-3.674,1.51-5.756h0.006c0-0.021-0.003-0.041-0.003-0.062
		c0-0.027,0.004-0.055,0.004-0.081h-0.01c-0.078-6.715-5.558-12.155-12.291-12.155c-6.733,0-12.212,5.44-12.29,12.155L37.703,51.5
		L37.703,51.5z"/>
	<rect x="28.924" y="60.447" width="42.153" height="2"/>
	<rect x="28.924" y="64.447" width="42.153" height="2"/>
	<rect x="28.924" y="68.447" width="42.153" height="2"/>
</g>
<g>
	<path d="M48.565,80.416h1.043v5.409c0,2.147-1.055,2.807-2.446,2.807c-0.384,0-0.852-0.084-1.116-0.191l0.156-0.852
		c0.216,0.084,0.527,0.155,0.875,0.155c0.935,0,1.487-0.42,1.487-2.003V80.416z"/>
</g>
</svg>
