<?xml version="1.0" encoding="utf-8"?>
<!-- Generator: Adobe Illustrator 16.0.0, SVG Export Plug-In . SVG Version: 6.00 Build 0)  -->
<!DOCTYPE svg PUBLIC "-//W3C//DTD SVG 1.1//EN" "http://www.w3.org/Graphics/SVG/1.1/DTD/svg11.dtd">
<svg version="1.1" id="Layer_1" xmlns="http://www.w3.org/2000/svg" xmlns:xlink="http://www.w3.org/1999/xlink" x="0px" y="0px"
	 width="100px" height="100px" viewBox="0 0 100 100" enable-background="new 0 0 100 100" xml:space="preserve">
<g>
	<g>
		<path d="M43.675,45.986c-2.592,0-4.699-2.105-4.699-4.698c0-2.591,2.107-4.699,4.699-4.699s4.7,2.108,4.7,4.699
			C48.375,43.88,46.267,45.986,43.675,45.986z M43.675,38.938c-1.295,0-2.35,1.056-2.35,2.35c0,1.296,1.055,2.35,2.35,2.35
			s2.35-1.054,2.35-2.35C46.025,39.993,44.97,38.938,43.675,38.938z"/>
	</g>
	<g>
		<path d="M62.605,62.302c-0.555,0.396-1.261,0.679-2.119,0.852c-0.857,0.172-1.737,0.258-2.639,0.258
			c-1.092,0-2.128-0.169-3.107-0.507c-0.979-0.339-1.842-0.884-2.587-1.638c-0.745-0.755-1.339-1.734-1.78-2.939
			c-0.442-1.203-0.663-2.664-0.663-4.381c0-1.785,0.247-3.279,0.74-4.484c0.494-1.205,1.136-2.176,1.925-2.912
			c0.788-0.736,1.668-1.265,2.639-1.586c0.971-0.32,1.941-0.481,2.912-0.481c1.04,0,1.919,0.069,2.639,0.208
			s1.313,0.303,1.781,0.494L61.644,48.2c-0.398-0.189-0.871-0.328-1.417-0.416c-0.546-0.086-1.209-0.129-1.989-0.129
			c-1.438,0-2.596,0.512-3.471,1.537s-1.312,2.613-1.312,4.768c0,0.938,0.104,1.793,0.312,2.566s0.524,1.434,0.949,1.98
			s0.953,0.973,1.586,1.276s1.365,0.456,2.197,0.456c0.779,0,1.438-0.078,1.976-0.234s1.005-0.355,1.404-0.598L62.605,62.302z"/>
	</g>
</g>
</svg>
