<?xml version="1.0" encoding="utf-8"?>
<!-- Generator: Adobe Illustrator 16.0.0, SVG Export Plug-In . SVG Version: 6.00 Build 0)  -->
<!DOCTYPE svg PUBLIC "-//W3C//DTD SVG 1.1//EN" "http://www.w3.org/Graphics/SVG/1.1/DTD/svg11.dtd">
<svg version="1.1" id="Layer_1" xmlns="http://www.w3.org/2000/svg" xmlns:xlink="http://www.w3.org/1999/xlink" x="0px" y="0px"
	 width="100px" height="100px" viewBox="0 0 100 100" enable-background="new 0 0 100 100" xml:space="preserve">
<path d="M82.471,33.108c0-4.863-3.957-8.82-8.82-8.82c-0.559,0-1.125,0.057-1.689,0.169c-4.332-5.2-10.646-8.169-17.427-8.169
	c-7.491,0-14.494,3.703-18.732,9.905l0.826,0.564l-0.826-0.564c-1.188,1.738-2.109,3.627-2.771,5.614
	c-4.345,0.198-8.272,2.654-10.344,6.519c-0.958,1.787-1.464,3.807-1.464,5.838c0,6.824,5.551,12.375,12.375,12.375
	c1.818,0,3.621-0.402,5.258-1.17c4.242,4.064,9.781,6.295,15.68,6.295c9.513,0,17.942-5.887,21.249-14.738
	c0.205,0.023,0.404,0.035,0.604,0.035c3.354,0,6.086-2.73,6.086-6.085c0-1.245-0.392-2.456-1.111-3.478
	C82.089,36.09,82.471,34.621,82.471,33.108z M79.398,38.146c0.691,0.762,1.072,1.731,1.072,2.73c0,2.253-1.834,4.085-4.087,4.085
	c-0.305,0-0.627-0.045-1.014-0.145l-0.903-0.23l-0.293,0.887c-2.807,8.488-10.699,14.191-19.642,14.191
	c-5.602,0-10.849-2.207-14.775-6.213l-0.529-0.541l-0.664,0.363c-1.515,0.828-3.233,1.266-4.969,1.266
	c-5.721,0-10.375-4.654-10.375-10.375c0-1.703,0.424-3.396,1.227-4.893c1.813-3.382,5.317-5.482,9.142-5.482c0,0,0.001,0,0.002,0
	c0.051,0.004,0.101,0.008,0.153,0.008l0.731-0.086l0.281-0.786l-1.011-0.291v-0.019l1.011,0.31c0.559-1.827,1.38-3.559,2.421-5.167
	h0.168v-0.267c0.037-0.055,0.068-0.114,0.106-0.168c3.866-5.657,10.251-9.034,17.081-9.034c6.377,0,12.304,2.881,16.259,7.906
	l0.411,0.521l0.64-0.176c0.607-0.167,1.217-0.251,1.809-0.251c3.761,0,6.82,3.06,6.82,6.82c0,1.363-0.402,2.68-1.16,3.807
	l-0.438,0.65L79.398,38.146z"/>
<g>
	<path d="M37.327,69.749c-2.495,0-4.524-2.029-4.524-4.524c0-2.494,2.029-4.523,4.524-4.523c2.495,0,4.524,2.029,4.524,4.523
		C41.851,67.72,39.821,69.749,37.327,69.749z M37.327,62.7c-1.392,0-2.524,1.133-2.524,2.524c0,1.391,1.132,2.523,2.524,2.523
		s2.524-1.133,2.524-2.523C39.851,63.833,38.718,62.7,37.327,62.7z"/>
</g>
<g>
	<path d="M44.376,83.553c-2.495,0-4.524-2.029-4.524-4.523s2.03-4.523,4.524-4.523s4.524,2.029,4.524,4.523
		S46.871,83.553,44.376,83.553z M44.376,76.505c-1.392,0-2.524,1.132-2.524,2.522c0,1.392,1.132,2.524,2.524,2.524
		s2.524-1.133,2.524-2.524C46.9,77.637,45.768,76.505,44.376,76.505z"/>
</g>
<g>
	<path d="M54.948,73.273c-2.495,0-4.524-2.029-4.524-4.524c0-2.494,2.029-4.522,4.524-4.522c2.493,0,4.522,2.028,4.522,4.522
		C59.473,71.244,57.441,73.273,54.948,73.273z M54.948,66.227c-1.392,0-2.524,1.131-2.524,2.522s1.133,2.524,2.524,2.524
		c1.391,0,2.522-1.133,2.522-2.524S56.34,66.227,54.948,66.227z"/>
</g>
<g>
	<path d="M72.766,69.749c-2.494,0-4.523-2.029-4.523-4.524c0-2.494,2.029-4.523,4.523-4.523c2.493,0,4.522,2.029,4.522,4.523
		C77.288,67.72,75.259,69.749,72.766,69.749z M72.766,62.7c-1.393,0-2.523,1.133-2.523,2.524c0,1.391,1.132,2.523,2.523,2.523
		c1.391,0,2.522-1.133,2.522-2.523C75.288,63.833,74.156,62.7,72.766,62.7z"/>
</g>
<g>
	<path d="M65.716,83.553c-2.493,0-4.522-2.029-4.522-4.523s2.029-4.523,4.522-4.523c2.494,0,4.522,2.029,4.522,4.523
		S68.21,83.553,65.716,83.553z M65.716,76.505c-1.392,0-2.522,1.132-2.522,2.522c0,1.392,1.132,2.524,2.522,2.524
		c1.392,0,2.522-1.133,2.522-2.524C68.238,77.637,67.107,76.505,65.716,76.505z"/>
</g>
<g>
	<path d="M56.86,91.637l-1.031-1.787c-0.42-0.684-0.684-1.127-0.936-1.595h-0.024c-0.228,0.468-0.455,0.899-0.875,1.606
		l-0.972,1.775h-1.199l2.471-4.09l-2.375-3.994h1.212l1.067,1.896c0.3,0.527,0.527,0.936,0.743,1.367h0.036
		c0.228-0.479,0.432-0.852,0.731-1.367l1.104-1.896h1.199l-2.459,3.935l2.52,4.149H56.86z"/>
</g>
</svg>
