<?xml version="1.0" encoding="utf-8"?>
<!-- Generator: Adobe Illustrator 16.0.0, SVG Export Plug-In . SVG Version: 6.00 Build 0)  -->
<!DOCTYPE svg PUBLIC "-//W3C//DTD SVG 1.1//EN" "http://www.w3.org/Graphics/SVG/1.1/DTD/svg11.dtd">
<svg version="1.1" id="Layer_1" xmlns="http://www.w3.org/2000/svg" xmlns:xlink="http://www.w3.org/1999/xlink" x="0px" y="0px"
	 width="100px" height="100px" viewBox="0 0 100 100" enable-background="new 0 0 100 100" xml:space="preserve">
<g>
	<polygon points="63.295,43.878 63.17,43.878 62.645,46.652 61.371,50.525 65.119,50.525 63.818,46.627 	"/>
	<path d="M50,20c-16.568,0-30,13.432-30,30s13.432,30,30,30c16.569,0,30-13.432,30-30S66.568,20,50,20z M42.552,57.273h-2.499
		l-6.572-9.247l-1.375-2.75h-0.125l0.399,2.75v9.122h-3.248V39.53h2.499l6.622,9.321l1.325,2.674h0.125l-0.4-2.674v-9.196h3.249
		V57.273z M47.4,60.646l-2.449-1.149l8.921-20.143l2.449,1.1L47.4,60.646z M67.268,57.148l-1.398-3.873h-5.373l-1.324,3.873h-3.424
		l6.297-17.62h2.523l6.299,17.62H67.268z"/>
</g>
</svg>
