<?xml version="1.0" encoding="utf-8"?>
<!-- Generator: Adobe Illustrator 16.0.0, SVG Export Plug-In . SVG Version: 6.00 Build 0)  -->
<!DOCTYPE svg PUBLIC "-//W3C//DTD SVG 1.1//EN" "http://www.w3.org/Graphics/SVG/1.1/DTD/svg11.dtd">
<svg version="1.1" id="Layer_1" xmlns="http://www.w3.org/2000/svg" xmlns:xlink="http://www.w3.org/1999/xlink" x="0px" y="0px"
	 width="100px" height="100px" viewBox="0 0 100 100" enable-background="new 0 0 100 100" xml:space="preserve">
<path d="M81.911,33.854c-3.085,0.443-6.334-0.5-8.716-2.852c-2.34-2.379-3.279-5.62-2.838-8.7c0.102-0.703,0.273-1.395,0.52-2.068
	c-0.745,0.058-1.482,0.185-2.21,0.376c-2.024,0.537-3.94,1.585-5.526,3.17c-1.724,1.724-2.817,3.837-3.302,6.058
	c-2.858-1.272-5.983-1.955-9.22-1.955c-9.719,0-18.464,6.343-21.524,15.513c-6.553,0.307-11.789,5.735-11.789,12.363
	c0,6.823,5.551,12.375,12.375,12.375c1.818,0,3.621-0.403,5.257-1.171c4.243,4.064,9.782,6.296,15.68,6.296
	c9.513,0,17.942-5.887,21.249-14.737c0.205,0.022,0.404,0.035,0.604,0.035c3.354,0,6.086-2.73,6.086-6.086
	c0-1.246-0.392-2.456-1.111-3.479c0.729-1.308,1.111-2.777,1.111-4.29c0-0.673-0.084-1.327-0.228-1.957
	c0.745-0.473,1.453-1.026,2.103-1.676c1.586-1.585,2.635-3.501,3.17-5.525c0.192-0.728,0.319-1.466,0.377-2.211
	C83.307,33.581,82.613,33.752,81.911,33.854z M79.02,39.656c-0.434,0.432-0.898,0.809-1.383,1.148c-1.443-2.91-4.439-4.92-7.9-4.92
	c-0.559,0-1.125,0.057-1.689,0.169c-1.809-2.169-3.963-3.944-6.35-5.283c0.34-2.042,1.285-4.002,2.857-5.575
	c1.092-1.092,2.373-1.875,3.735-2.374c-0.265,3.415,0.882,6.918,3.451,9.549l-0.005,0.004c0.016,0.015,0.031,0.027,0.046,0.041
	c0.02,0.02,0.034,0.041,0.055,0.06l0.006-0.005c2.63,2.569,6.136,3.714,9.55,3.451C80.895,37.284,80.109,38.565,79.02,39.656z"/>
<g>
	<path d="M51.41,88.29v-2.123h-3.622v-0.695l3.479-4.978h1.14v4.846h1.091v0.827h-1.091v2.123H51.41z M51.41,85.34v-2.603
		c0-0.408,0.012-0.815,0.036-1.224H51.41c-0.24,0.456-0.432,0.792-0.647,1.151l-1.907,2.65v0.024H51.41z"/>
</g>
</svg>
