<?xml version="1.0" encoding="utf-8"?>
<!-- Generator: Adobe Illustrator 16.0.0, SVG Export Plug-In . SVG Version: 6.00 Build 0)  -->
<!DOCTYPE svg PUBLIC "-//W3C//DTD SVG 1.1//EN" "http://www.w3.org/Graphics/SVG/1.1/DTD/svg11.dtd">
<svg version="1.1" id="Layer_1" xmlns="http://www.w3.org/2000/svg" xmlns:xlink="http://www.w3.org/1999/xlink" x="0px" y="0px"
	 width="100px" height="100px" viewBox="0 0 100 100" enable-background="new 0 0 100 100" xml:space="preserve">
<path d="M49.329,61.305l-0.831,1.238c-0.592,0.883-3.547,5.393-3.547,7.457c0,2.413,1.964,4.377,4.378,4.377
	c2.413,0,4.377-1.964,4.377-4.377c0-2.064-2.954-6.574-3.546-7.457L49.329,61.305z M49.329,72.377c-1.311,0-2.378-1.066-2.378-2.377
	c0-0.864,1.211-3.15,2.378-5.048c1.167,1.896,2.377,4.183,2.377,5.048C51.706,71.311,50.641,72.377,49.329,72.377z"/>
<path d="M39.329,61.305l-0.831,1.238c-0.592,0.883-3.547,5.393-3.547,7.457c0,2.413,1.964,4.377,4.378,4.377
	c2.413,0,4.377-1.964,4.377-4.377c0-2.064-2.954-6.574-3.546-7.457L39.329,61.305z M39.329,72.377c-1.311,0-2.378-1.066-2.378-2.377
	c0-0.864,1.211-3.15,2.378-5.048c1.167,1.896,2.377,4.183,2.377,5.048C41.706,71.311,40.64,72.377,39.329,72.377z"/>
<path d="M59.329,61.305l-0.831,1.238c-0.592,0.883-3.547,5.393-3.547,7.457c0,2.413,1.964,4.377,4.378,4.377
	c2.413,0,4.377-1.964,4.377-4.377c0-2.064-2.954-6.574-3.546-7.457L59.329,61.305z M59.329,72.377c-1.312,0-2.378-1.066-2.378-2.377
	c0-0.864,1.211-3.15,2.378-5.048c1.167,1.896,2.377,4.183,2.377,5.048C61.706,71.311,60.641,72.377,59.329,72.377z"/>
<path d="M77.865,29.813c0-4.864-3.957-8.82-8.82-8.82c-0.559,0-1.125,0.057-1.689,0.169c-4.332-5.2-10.646-8.169-17.427-8.169
	c-9.719,0-18.464,6.343-21.524,15.514c-6.553,0.307-11.789,5.735-11.789,12.362c0,6.822,5.551,12.375,12.375,12.375
	c1.818,0,3.621-0.403,5.257-1.171c4.243,4.065,9.782,6.296,15.68,6.296c9.513,0,17.943-5.887,21.249-14.738
	c0.205,0.023,0.404,0.035,0.604,0.035c3.354,0,6.086-2.73,6.086-6.086c0-1.245-0.391-2.456-1.111-3.478
	C77.482,32.794,77.865,31.326,77.865,29.813z"/>
<g>
	<path d="M47.367,87.919c0-0.983,0.587-1.68,1.547-2.087l-0.012-0.036c-0.864-0.408-1.235-1.08-1.235-1.751
		c0-1.235,1.043-2.075,2.411-2.075c1.511,0,2.266,0.947,2.266,1.919c0,0.66-0.323,1.367-1.283,1.823v0.036
		c0.973,0.384,1.572,1.067,1.572,2.015c0,1.355-1.164,2.267-2.651,2.267C48.351,90.029,47.367,89.058,47.367,87.919z M51.564,87.87
		c0-0.947-0.659-1.402-1.715-1.702c-0.912,0.264-1.403,0.863-1.403,1.606c-0.036,0.792,0.564,1.487,1.56,1.487
		C50.953,89.262,51.564,88.674,51.564,87.87z M48.663,83.973c0,0.779,0.587,1.199,1.487,1.439c0.672-0.229,1.188-0.708,1.188-1.415
		c0-0.624-0.372-1.271-1.319-1.271C49.142,82.726,48.663,83.301,48.663,83.973z"/>
</g>
</svg>
