<?xml version="1.0" encoding="utf-8"?>
<!-- Generator: Adobe Illustrator 16.0.0, SVG Export Plug-In . SVG Version: 6.00 Build 0)  -->
<!DOCTYPE svg PUBLIC "-//W3C//DTD SVG 1.1//EN" "http://www.w3.org/Graphics/SVG/1.1/DTD/svg11.dtd">
<svg version="1.1" id="Layer_1" xmlns="http://www.w3.org/2000/svg" xmlns:xlink="http://www.w3.org/1999/xlink" x="0px" y="0px"
	 width="100px" height="100px" viewBox="0 0 100 100" enable-background="new 0 0 100 100" xml:space="preserve">
<g>
	<path d="M43.675,45.986c-2.592,0-4.699-2.105-4.699-4.698c0-2.591,2.107-4.699,4.699-4.699s4.7,2.108,4.7,4.699
		C48.375,43.88,46.267,45.986,43.675,45.986z M43.675,38.938c-1.295,0-2.35,1.056-2.35,2.35c0,1.296,1.055,2.35,2.35,2.35
		s2.35-1.054,2.35-2.35C46.025,39.993,44.97,38.938,43.675,38.938z"/>
</g>
<g>
	<path d="M50.763,44.847h10.79v3.172h-7.228v4.498h6.656v3.172h-6.656v7.358h-3.562V44.847z"/>
</g>
</svg>
