<?xml version="1.0" encoding="utf-8"?>
<!-- Generator: Adobe Illustrator 16.0.0, SVG Export Plug-In . SVG Version: 6.00 Build 0)  -->
<!DOCTYPE svg PUBLIC "-//W3C//DTD SVG 1.1//EN" "http://www.w3.org/Graphics/SVG/1.1/DTD/svg11.dtd">
<svg version="1.1" id="Layer_1" xmlns="http://www.w3.org/2000/svg" xmlns:xlink="http://www.w3.org/1999/xlink" x="0px" y="0px"
	 width="100px" height="100px" viewBox="0 0 100 100" enable-background="new 0 0 100 100" xml:space="preserve">
<g>
	<rect x="38.999" y="14.919" width="2.001" height="7.403"/>
</g>
<g>
	<rect x="24.014" y="22.709" transform="matrix(-0.7071 -0.7071 0.7071 -0.7071 30.5481 60.0719)" width="7.403" height="2"/>
</g>
<g>
	<rect x="51.285" y="20.007" transform="matrix(-0.707 -0.7072 0.7072 -0.707 72.4825 77.448)" width="2" height="7.403"/>
</g>
<g>
	<rect x="18.924" y="35.996" width="7.402" height="2"/>
</g>
<path d="M80.625,47.623c0-4.864-3.957-8.82-8.82-8.82c-0.558,0-1.123,0.057-1.689,0.169c-4.331-5.2-10.646-8.169-17.428-8.169
	c-0.683,0-1.358,0.039-2.03,0.101C48.535,27.21,44.558,24.712,40,24.712c-6.733,0-12.212,5.44-12.29,12.155h-0.006
	c0,0.021,0.003,0.041,0.003,0.062c0,0.027-0.004,0.054-0.004,0.081h0.008c0.04,3.384,1.453,6.441,3.705,8.646
	c-0.082,0.222-0.176,0.437-0.251,0.662c-6.553,0.307-11.789,5.735-11.789,12.363c0,6.822,5.551,12.375,12.375,12.375
	c1.818,0,3.621-0.404,5.257-1.172c4.243,4.065,9.782,6.297,15.68,6.297c9.514,0,17.943-5.888,21.25-14.738
	c0.205,0.022,0.403,0.035,0.603,0.035c3.354,0,6.086-2.73,6.086-6.086c0-1.246-0.392-2.455-1.11-3.479
	C80.243,50.604,80.625,49.134,80.625,47.623z M29.706,36.928c0.044-5.641,4.643-10.217,10.293-10.217
	c3.531,0,6.65,1.787,8.505,4.502c-7.03,1.341-13.105,5.981-16.235,12.432C30.691,41.846,29.722,39.5,29.706,36.928z"/>
</svg>
