<?xml version="1.0" encoding="utf-8"?>
<!-- Generator: Adobe Illustrator 16.0.0, SVG Export Plug-In . SVG Version: 6.00 Build 0)  -->
<!DOCTYPE svg PUBLIC "-//W3C//DTD SVG 1.1//EN" "http://www.w3.org/Graphics/SVG/1.1/DTD/svg11.dtd">
<svg version="1.1" id="Layer_1" xmlns="http://www.w3.org/2000/svg" xmlns:xlink="http://www.w3.org/1999/xlink" x="0px" y="0px"
	 width="100px" height="100px" viewBox="0 0 100 100" enable-background="new 0 0 100 100" xml:space="preserve">
<path d="M73,45.441v-2H59.734c-2.188-3.402-5.996-5.667-10.333-5.667c-6.419,0-11.686,4.947-12.232,11.227H31.25v2h5.92
	c0.164,1.885,0.753,3.646,1.672,5.19H27v2h13.325c2.249,2.473,5.479,4.035,9.078,4.035c6.419,0,11.687-4.946,12.232-11.227h8.114v-2
	h-8.115c-0.108-1.249-0.401-2.444-0.856-3.559H73z M49.403,60.227c-2.293,0-4.406-0.763-6.119-2.035h4.004v-2H41.25
	c-1.132-1.471-1.883-3.248-2.084-5.19h20.473C59.102,56.176,54.719,60.227,49.403,60.227z M59.641,49H39.166
	c0.538-5.176,4.92-9.227,10.235-9.227c3.154,0,5.978,1.427,7.867,3.667h-9.979v2h11.296C59.137,46.532,59.507,47.729,59.641,49z"/>
<g>
	<path d="M51.912,73.71h-3.142v2.914h3.502V77.5h-4.545v-8.084h4.366v0.876h-3.322v2.555h3.142V73.71z"/>
</g>
</svg>
