<?xml version="1.0" encoding="utf-8"?>
<!-- Generator: Adobe Illustrator 16.0.0, SVG Export Plug-In . SVG Version: 6.00 Build 0)  -->
<!DOCTYPE svg PUBLIC "-//W3C//DTD SVG 1.1//EN" "http://www.w3.org/Graphics/SVG/1.1/DTD/svg11.dtd">
<svg version="1.1" id="Layer_1" xmlns="http://www.w3.org/2000/svg" xmlns:xlink="http://www.w3.org/1999/xlink" x="0px" y="0px"
	 width="100px" height="100px" viewBox="0 0 100 100" enable-background="new 0 0 100 100" xml:space="preserve">
<g>
	<rect x="19.833" y="60.447" width="61" height="2"/>
	<rect x="19.833" y="64.447" width="61" height="2"/>
	<rect x="19.833" y="68.447" width="61" height="2"/>
	<path d="M31.747,52.212c0,0,0.001,0,0.002,0l0.899,0.007l0.212-0.716c2.586-8.709,10.741-14.792,19.831-14.792
		c6.377,0,12.304,2.881,16.259,7.906l0.411,0.521L70,44.962c0.607-0.167,1.216-0.251,1.808-0.251c3.761,0,6.82,3.06,6.82,6.82
		c0,1.361-0.401,2.678-1.16,3.805l-0.437,0.65l0.525,0.58c0.324,0.356,0.582,0.765,0.768,1.214l1.848-0.764
		c-0.175-0.425-0.395-0.825-0.656-1.197c0.729-1.308,1.112-2.776,1.112-4.288c0-4.864-3.957-8.82-8.82-8.82
		c-0.559,0-1.125,0.057-1.69,0.169c-4.332-5.2-10.646-8.169-17.427-8.169c-9.719,0-18.464,6.343-21.524,15.514
		c-4.42,0.207-8.375,2.74-10.418,6.717l1.779,0.914C24.316,54.374,27.85,52.212,31.747,52.212z"/>
</g>
</svg>
