<?xml version="1.0" encoding="utf-8"?>
<!-- Generator: Adobe Illustrator 16.0.0, SVG Export Plug-In . SVG Version: 6.00 Build 0)  -->
<!DOCTYPE svg PUBLIC "-//W3C//DTD SVG 1.1//EN" "http://www.w3.org/Graphics/SVG/1.1/DTD/svg11.dtd">
<svg version="1.1" id="Layer_1" xmlns="http://www.w3.org/2000/svg" xmlns:xlink="http://www.w3.org/1999/xlink" x="0px" y="0px"
	 width="100px" height="100px" viewBox="0 0 100 100" enable-background="new 0 0 100 100" xml:space="preserve">
<path d="M78.387,29.82c0-4.864-3.957-8.82-8.82-8.82c-0.559,0-1.125,0.057-1.689,0.169C63.545,15.969,57.23,13,50.45,13
	c-9.719,0-18.464,6.343-21.524,15.514c-6.553,0.307-11.789,5.735-11.789,12.362c0,6.823,5.551,12.375,12.375,12.375
	c1.818,0,3.621-0.402,5.257-1.171c3.055,2.929,6.789,4.886,10.838,5.763l-3.278,5.597l3.818,2.644l-3.818,10.279l10.866-9.618
	l-5.433-3.305l5.03-5.197c8.532-0.879,15.875-6.487,18.906-14.604c0.204,0.023,0.403,0.035,0.603,0.035
	c3.355,0,6.086-2.729,6.086-6.085c0-1.245-0.391-2.456-1.111-3.478C78.005,32.801,78.387,31.332,78.387,29.82z M75.314,34.856
	c0.691,0.761,1.072,1.731,1.072,2.73c0,2.253-1.834,4.086-4.087,4.086c-0.305,0-0.627-0.047-1.014-0.146l-0.903-0.231l-0.293,0.887
	c-2.807,8.488-10.699,14.192-19.642,14.192c-5.602,0-10.849-2.207-14.775-6.214l-0.53-0.54l-0.665,0.363
	c-1.515,0.828-3.233,1.266-4.968,1.266c-5.721,0-10.375-4.653-10.375-10.375c0-5.721,4.653-10.375,10.369-10.375h0.001l0.899,0.007
	l0.212-0.715C33.202,21.083,41.357,15,50.447,15c6.377,0,12.304,2.881,16.259,7.906l0.411,0.521l0.64-0.176
	C68.364,23.084,68.973,23,69.564,23c3.762,0,6.82,3.06,6.82,6.82c0,1.362-0.4,2.679-1.16,3.806l-0.437,0.65L75.314,34.856z"/>
<g>
	<path d="M53.694,80.452c0,2.782-1.691,4.258-3.754,4.258c-2.135,0-3.634-1.655-3.634-4.102c0-2.566,1.595-4.246,3.754-4.246
		C52.268,76.362,53.694,78.054,53.694,80.452z M47.422,80.584c0,1.728,0.935,3.274,2.579,3.274c1.655,0,2.59-1.523,2.59-3.358
		c0-1.606-0.839-3.286-2.579-3.286C48.285,77.214,47.422,78.81,47.422,80.584z"/>
</g>
</svg>
