<?xml version="1.0" encoding="utf-8"?>
<!-- Generator: Adobe Illustrator 16.0.0, SVG Export Plug-In . SVG Version: 6.00 Build 0)  -->
<!DOCTYPE svg PUBLIC "-//W3C//DTD SVG 1.1//EN" "http://www.w3.org/Graphics/SVG/1.1/DTD/svg11.dtd">
<svg version="1.1" id="Layer_1" xmlns="http://www.w3.org/2000/svg" xmlns:xlink="http://www.w3.org/1999/xlink" x="0px" y="0px"
	 width="100px" height="100px" viewBox="0 0 100 100" enable-background="new 0 0 100 100" xml:space="preserve">
<g>
	<rect x="8.566" y="29.655" width="26.705" height="2"/>
	<path d="M87.941,34.132c0-4.863-3.957-8.82-8.82-8.82c-0.559,0-1.125,0.057-1.689,0.169c-4.332-5.2-10.646-8.169-17.428-8.169
		c-7.49,0-14.494,3.703-18.732,9.905l0.826,0.564l-0.826-0.564c-1.188,1.738-2.109,3.627-2.771,5.614
		c-4.345,0.198-8.272,2.654-10.344,6.519c-0.958,1.787-1.464,3.807-1.464,5.839c0,6.822,5.551,12.375,12.375,12.375
		c1.818,0,3.621-0.403,5.258-1.172c4.242,4.065,9.781,6.297,15.68,6.297c9.514,0,17.943-5.888,21.249-14.738
		c0.205,0.023,0.404,0.035,0.603,0.035c3.355,0,6.086-2.73,6.086-6.086c0-1.245-0.391-2.457-1.11-3.479
		C87.561,37.113,87.941,35.645,87.941,34.132z"/>
	<rect x="8.566" y="23.781" width="29.531" height="2"/>
	<rect x="8.566" y="35.822" width="16.471" height="2"/>
	<path d="M48.403,63.704l-0.831,1.237c-0.592,0.884-3.546,5.394-3.546,7.457c0,2.414,1.963,4.379,4.377,4.379
		c2.414,0,4.376-1.965,4.376-4.379c0-2.063-2.953-6.573-3.545-7.457L48.403,63.704z M48.403,74.777
		c-1.311,0-2.377-1.066-2.377-2.379c0-0.862,1.21-3.15,2.377-5.047c1.167,1.896,2.376,4.183,2.376,5.047
		C50.779,73.711,49.714,74.777,48.403,74.777z"/>
	<path d="M58.402,63.704l-0.829,1.237c-0.593,0.884-3.548,5.394-3.548,7.457c0,2.414,1.965,4.379,4.377,4.379
		c2.414,0,4.377-1.965,4.377-4.379c0-2.063-2.953-6.573-3.547-7.457L58.402,63.704z M58.402,74.777
		c-1.311,0-2.377-1.066-2.377-2.379c0-0.862,1.211-3.15,2.377-5.047c1.168,1.896,2.377,4.183,2.377,5.047
		C60.779,73.711,59.714,74.777,58.402,74.777z"/>
	<path d="M68.402,63.704l-0.829,1.237c-0.593,0.884-3.548,5.394-3.548,7.457c0,2.414,1.965,4.379,4.377,4.379
		c2.414,0,4.377-1.965,4.377-4.379c0-2.063-2.953-6.573-3.547-7.457L68.402,63.704z M68.402,74.777
		c-1.311,0-2.377-1.066-2.377-2.379c0-0.862,1.211-3.15,2.377-5.047c1.168,1.896,2.377,4.183,2.377,5.047
		C70.779,73.711,69.714,74.777,68.402,74.777z"/>
</g>
<g>
	<path d="M54.671,81.039h-0.023l-1.355,0.731l-0.204-0.803l1.703-0.912h0.899v7.796h-1.02V81.039z"/>
	<path d="M63.718,83.87c0,2.65-0.983,4.113-2.71,4.113c-1.523,0-2.555-1.427-2.579-4.006c0-2.614,1.128-4.054,2.711-4.054
		C62.782,79.924,63.718,81.387,63.718,83.87z M59.484,83.989c0,2.027,0.624,3.179,1.583,3.179c1.079,0,1.595-1.26,1.595-3.25
		c0-1.919-0.491-3.179-1.583-3.179C60.156,80.739,59.484,81.867,59.484,83.989z"/>
</g>
</svg>
