<?xml version="1.0" encoding="utf-8"?>
<!-- Generator: Adobe Illustrator 16.0.0, SVG Export Plug-In . SVG Version: 6.00 Build 0)  -->
<!DOCTYPE svg PUBLIC "-//W3C//DTD SVG 1.1//EN" "http://www.w3.org/Graphics/SVG/1.1/DTD/svg11.dtd">
<svg version="1.1" id="Layer_1" xmlns="http://www.w3.org/2000/svg" xmlns:xlink="http://www.w3.org/1999/xlink" x="0px" y="0px"
	 width="100px" height="100px" viewBox="0 0 100 100" enable-background="new 0 0 100 100" xml:space="preserve">
<path d="M59.871,59.077c-2.495-1.867-4.125-4.832-4.146-8.179c0.025-3.338,1.654-6.294,4.146-8.159
	c0.567-0.425,1.18-0.793,1.829-1.095c-0.567-0.486-1.182-0.919-1.829-1.297c-1.813-1.052-3.906-1.666-6.147-1.666
	c-6.734,0-12.214,5.44-12.292,12.156h-0.006c0,0.021,0.004,0.041,0.004,0.062c0,0.026-0.004,0.055-0.004,0.082h0.008
	c0.078,6.715,5.558,12.153,12.292,12.153c2.241,0,4.338-0.612,6.146-1.666c0.648-0.377,1.263-0.811,1.83-1.297
	C61.052,59.87,60.438,59.503,59.871,59.077z"/>
<g>
	<path d="M49.04,80.5v-0.647l0.828-0.804c1.991-1.895,2.891-2.902,2.902-4.078c0-0.791-0.384-1.522-1.547-1.522
		c-0.708,0-1.295,0.359-1.655,0.659l-0.336-0.743c0.54-0.456,1.308-0.792,2.207-0.792c1.679,0,2.387,1.151,2.387,2.267
		c0,1.439-1.044,2.603-2.687,4.186l-0.624,0.576v0.023h3.503V80.5H49.04z"/>
</g>
</svg>
