<?xml version="1.0" encoding="utf-8"?>
<!-- Generator: Adobe Illustrator 16.0.0, SVG Export Plug-In . SVG Version: 6.00 Build 0)  -->
<!DOCTYPE svg PUBLIC "-//W3C//DTD SVG 1.1//EN" "http://www.w3.org/Graphics/SVG/1.1/DTD/svg11.dtd">
<svg version="1.1" id="Layer_1" xmlns="http://www.w3.org/2000/svg" xmlns:xlink="http://www.w3.org/1999/xlink" x="0px" y="0px"
	 width="100px" height="100px" viewBox="0 0 100 100" enable-background="new 0 0 100 100" xml:space="preserve">
<path d="M61.798,59.745c0-1.271-0.358-2.457-0.971-3.472l2.084-2.084l-2.216-2.215L58.63,54.04c-0.608-0.381-1.28-0.666-1.999-0.838
	v-2.911h-3.132v2.911c-0.72,0.171-1.392,0.457-1.999,0.838l-2.065-2.065l-2.215,2.215l2.084,2.084
	c-0.613,1.016-0.973,2.199-0.973,3.473c0,1.312,0.381,2.529,1.029,3.564l-2.141,2.142l2.215,2.215l2.16-2.159
	c0.583,0.354,1.223,0.618,1.904,0.78v3.063h3.132v-3.063c0.683-0.162,1.322-0.429,1.905-0.781l2.158,2.16l2.217-2.215l-2.141-2.142
	C61.418,62.275,61.798,61.057,61.798,59.745z M55.064,62.585c-1.568,0-2.84-1.271-2.84-2.84s1.271-2.841,2.84-2.841
	c1.568,0,2.84,1.271,2.84,2.841S56.634,62.585,55.064,62.585z"/>
<polygon fill="none" points="33.745,32.634 34.756,32.925 33.745,32.615 "/>
<path d="M82.471,33.108c0-4.863-3.957-8.82-8.82-8.82c-0.559,0-1.125,0.057-1.689,0.169c-4.332-5.2-10.646-8.169-17.427-8.169
	c-7.491,0-14.494,3.703-18.732,9.905l0.826,0.564l-0.826-0.564c-1.188,1.738-2.109,3.627-2.771,5.614
	c-4.345,0.198-8.272,2.654-10.344,6.519c-0.958,1.787-1.464,3.807-1.464,5.838c0,6.824,5.551,12.375,12.375,12.375
	c1.818,0,3.621-0.402,5.258-1.17c1.99,1.906,4.274,3.393,6.738,4.451v-2.205c-2.14-1.029-4.118-2.414-5.834-4.164l-0.529-0.541
	l-0.664,0.363c-1.515,0.828-3.233,1.266-4.969,1.266c-5.721,0-10.375-4.654-10.375-10.375c0-1.703,0.424-3.396,1.227-4.893
	c1.813-3.382,5.317-5.482,9.142-5.482c0,0,0.001,0,0.002,0c0.051,0.004,0.101,0.008,0.153,0.008l0.731-0.086l0.281-0.786
	l-1.011-0.291v-0.019l1.011,0.31c0.559-1.827,1.38-3.559,2.421-5.167h0.168v-0.267c0.037-0.055,0.068-0.114,0.106-0.168
	c3.866-5.657,10.251-9.034,17.081-9.034c6.377,0,12.304,2.881,16.259,7.906l0.411,0.521l0.641-0.176
	c0.606-0.167,1.215-0.251,1.807-0.251c3.762,0,6.82,3.06,6.82,6.82c0,1.363-0.4,2.68-1.16,3.807l-0.437,0.65l0.524,0.58
	c0.691,0.762,1.072,1.731,1.072,2.73c0,2.253-1.834,4.085-4.086,4.085c-0.306,0-0.628-0.045-1.015-0.145l-0.903-0.23l-0.293,0.887
	c-1.684,5.089-5.203,9.167-9.675,11.625v2.268c5.112-2.498,9.207-6.883,11.282-12.438c0.205,0.023,0.404,0.035,0.603,0.035
	c3.355,0,6.087-2.73,6.087-6.085c0-1.245-0.392-2.456-1.111-3.478C82.089,36.09,82.471,34.621,82.471,33.108z"/>
<g>
	<path d="M54.363,85.5l-2.639-8.084h1.128l1.259,3.982c0.348,1.091,0.647,2.074,0.863,3.022h0.024
		c0.228-0.936,0.563-1.955,0.924-3.011l1.367-3.994h1.115L55.515,85.5H54.363z"/>
</g>
</svg>
