<?xml version="1.0" encoding="utf-8"?>
<!-- Generator: Adobe Illustrator 16.0.0, SVG Export Plug-In . SVG Version: 6.00 Build 0)  -->
<!DOCTYPE svg PUBLIC "-//W3C//DTD SVG 1.1//EN" "http://www.w3.org/Graphics/SVG/1.1/DTD/svg11.dtd">
<svg version="1.1" id="Layer_1" xmlns="http://www.w3.org/2000/svg" xmlns:xlink="http://www.w3.org/1999/xlink" x="0px" y="0px"
	 width="100px" height="100px" viewBox="0 0 100 100" enable-background="new 0 0 100 100" xml:space="preserve">
<g>
	<rect x="48.999" y="27.982" width="2.001" height="7.403"/>
</g>
<g>
	<rect x="34.014" y="35.772" transform="matrix(-0.7071 -0.7071 0.7071 -0.7071 38.3806 89.4432)" width="7.403" height="2"/>
</g>
<g>
	<rect x="61.285" y="33.07" transform="matrix(-0.7071 -0.7071 0.7071 -0.7071 80.3259 106.8155)" width="2" height="7.403"/>
</g>
<g>
	<rect x="63.674" y="49.059" width="7.403" height="2"/>
</g>
<g>
	<rect x="28.924" y="49.059" width="7.402" height="2"/>
</g>
<path d="M62.294,50.01c0-0.027,0.004-0.054,0.004-0.081H62.29c-0.078-6.715-5.558-12.155-12.291-12.155
	c-6.733,0-12.212,5.44-12.29,12.155h-0.006c0,0.021,0.003,0.041,0.003,0.062c0,0.027-0.004,0.054-0.004,0.081h0.008
	c0.078,6.715,5.558,12.154,12.291,12.154c6.733,0,12.212-5.439,12.29-12.154h0.006C62.297,50.05,62.294,50.03,62.294,50.01z
	 M50.001,60.227c-5.658,0-10.261-4.586-10.295-10.235c0.044-5.641,4.643-10.217,10.293-10.217c5.658,0,10.261,4.586,10.295,10.236
	C60.25,55.65,55.65,60.227,50.001,60.227z"/>
<g>
	<rect x="49" y="64.615" width="2.001" height="7.402"/>
</g>
<g>
	<rect x="58.588" y="62.227" transform="matrix(0.7069 0.7073 -0.7073 0.7069 62.9778 -25.5266)" width="7.403" height="2"/>
</g>
<g>
	<rect x="36.714" y="59.527" transform="matrix(0.7072 0.707 -0.707 0.7072 55.7433 -8.152)" width="2" height="7.403"/>
</g>
<g>
	<path d="M47.912,76.774c0.456-0.096,1.175-0.168,1.907-0.168c1.043,0,1.715,0.18,2.219,0.588c0.42,0.312,0.672,0.791,0.672,1.427
		c0,0.78-0.516,1.464-1.367,1.775v0.023c0.768,0.192,1.667,0.828,1.667,2.027c0,0.695-0.276,1.224-0.684,1.619
		c-0.563,0.516-1.476,0.756-2.794,0.756c-0.72,0-1.271-0.048-1.619-0.097V76.774z M48.955,80.085h0.947
		c1.104,0,1.751-0.576,1.751-1.355c0-0.947-0.72-1.319-1.775-1.319c-0.48,0-0.755,0.036-0.923,0.072V80.085z M48.955,83.958
		c0.204,0.036,0.503,0.049,0.875,0.049c1.08,0,2.075-0.396,2.075-1.571c0-1.104-0.947-1.56-2.087-1.56h-0.863V83.958z"/>
</g>
</svg>
