<?xml version="1.0" encoding="utf-8"?>
<!-- Generator: Adobe Illustrator 16.0.0, SVG Export Plug-In . SVG Version: 6.00 Build 0)  -->
<!DOCTYPE svg PUBLIC "-//W3C//DTD SVG 1.1//EN" "http://www.w3.org/Graphics/SVG/1.1/DTD/svg11.dtd">
<svg version="1.1" id="Layer_1" xmlns="http://www.w3.org/2000/svg" xmlns:xlink="http://www.w3.org/1999/xlink" x="0px" y="0px"
	 width="100px" height="100px" viewBox="0 0 100 100" enable-background="new 0 0 100 100" xml:space="preserve">
<path d="M78.387,40.163c0-4.864-3.957-8.82-8.82-8.82c-0.559,0-1.125,0.057-1.689,0.169c-4.332-5.2-10.646-8.169-17.427-8.169
	c-9.719,0-18.464,6.343-21.524,15.514c-6.553,0.307-11.789,5.735-11.789,12.362c0,6.823,5.551,12.375,12.375,12.375
	c1.818,0,3.621-0.402,5.257-1.171c3.055,2.929,6.789,4.886,10.838,5.763l-3.278,5.597l3.818,2.644l-3.818,10.279l10.866-9.618
	l-5.433-3.305l5.03-5.197c8.532-0.879,15.875-6.487,18.906-14.604c0.204,0.023,0.403,0.035,0.603,0.035
	c3.355,0,6.086-2.729,6.086-6.085c0-1.245-0.391-2.456-1.111-3.478C78.005,43.144,78.387,41.675,78.387,40.163z"/>
<g>
	<path d="M53.489,83.546c-0.216-0.013-0.492,0-0.792,0.048c-1.654,0.275-2.53,1.487-2.71,2.771h0.036
		c0.372-0.492,1.02-0.899,1.883-0.899c1.379,0,2.351,0.995,2.351,2.519c0,1.427-0.972,2.746-2.591,2.746
		c-1.667,0-2.758-1.295-2.758-3.322c0-1.535,0.552-2.746,1.319-3.514c0.648-0.636,1.511-1.031,2.495-1.151
		c0.312-0.048,0.575-0.061,0.768-0.061V83.546z M53.189,88.043c0-1.115-0.636-1.787-1.607-1.787c-0.636,0-1.223,0.396-1.511,0.96
		c-0.072,0.12-0.12,0.275-0.12,0.468c0.024,1.283,0.611,2.23,1.715,2.23C52.578,89.914,53.189,89.158,53.189,88.043z"/>
</g>
</svg>
