<?xml version="1.0" encoding="utf-8"?>
<!-- Generator: Adobe Illustrator 16.0.0, SVG Export Plug-In . SVG Version: 6.00 Build 0)  -->
<!DOCTYPE svg PUBLIC "-//W3C//DTD SVG 1.1//EN" "http://www.w3.org/Graphics/SVG/1.1/DTD/svg11.dtd">
<svg version="1.1" id="Layer_1" xmlns="http://www.w3.org/2000/svg" xmlns:xlink="http://www.w3.org/1999/xlink" x="0px" y="0px"
	 width="100px" height="100px" viewBox="0 0 100 100" enable-background="new 0 0 100 100" xml:space="preserve">
<g>
	<rect x="8.566" y="39.655" width="26.705" height="2"/>
</g>
<path d="M87.941,44.132c0-4.863-3.957-8.82-8.82-8.82c-0.559,0-1.125,0.057-1.689,0.169c-4.332-5.2-10.646-8.169-17.428-8.169
	c-7.49,0-14.494,3.703-18.732,9.905l0.826,0.564l-0.826-0.564c-1.188,1.738-2.109,3.627-2.771,5.614
	c-4.345,0.198-8.272,2.654-10.344,6.519c-0.958,1.787-1.464,3.807-1.464,5.839c0,6.822,5.551,12.375,12.375,12.375
	c1.818,0,3.621-0.403,5.258-1.172c4.242,4.065,9.781,6.297,15.68,6.297c9.514,0,17.943-5.888,21.249-14.738
	c0.205,0.023,0.404,0.035,0.603,0.035c3.355,0,6.086-2.73,6.086-6.086c0-1.245-0.391-2.457-1.11-3.479
	C87.561,47.113,87.941,45.645,87.941,44.132z"/>
<g>
	<rect x="8.566" y="33.781" width="29.531" height="2"/>
</g>
<g>
	<rect x="8.566" y="45.822" width="16.471" height="2"/>
</g>
<g>
	<path d="M55.357,89.74c0.229,0.023,0.492,0,0.852-0.036c0.611-0.084,1.188-0.336,1.631-0.756c0.516-0.468,0.888-1.151,1.031-2.075
		h-0.035c-0.432,0.528-1.056,0.84-1.836,0.84c-1.402,0-2.303-1.056-2.303-2.387c0-1.476,1.068-2.771,2.663-2.771
		s2.579,1.295,2.579,3.286c0,1.715-0.576,2.915-1.344,3.658c-0.6,0.588-1.428,0.947-2.267,1.043
		c-0.384,0.061-0.72,0.072-0.972,0.061V89.74z M55.741,85.254c0,0.972,0.588,1.655,1.499,1.655c0.708,0,1.26-0.348,1.535-0.815
		c0.061-0.096,0.096-0.216,0.096-0.384c0-1.331-0.491-2.351-1.595-2.351C56.377,83.359,55.741,84.151,55.741,85.254z"/>
</g>
</svg>
