<?xml version="1.0" encoding="utf-8"?>
<!-- Generator: Adobe Illustrator 16.0.0, SVG Export Plug-In . SVG Version: 6.00 Build 0)  -->
<!DOCTYPE svg PUBLIC "-//W3C//DTD SVG 1.1//EN" "http://www.w3.org/Graphics/SVG/1.1/DTD/svg11.dtd">
<svg version="1.1" id="Layer_1" xmlns="http://www.w3.org/2000/svg" xmlns:xlink="http://www.w3.org/1999/xlink" x="0px" y="0px"
	 width="100px" height="100px" viewBox="0 0 100 100" enable-background="new 0 0 100 100" xml:space="preserve">
<g>
	<rect x="48.999" y="29.553" width="2.001" height="7.403"/>
	<rect x="34.012" y="37.344" transform="matrix(0.7071 0.7071 -0.7071 0.7071 38.1619 -15.437)" width="7.403" height="2"/>
	<rect x="61.285" y="34.642" transform="matrix(0.7071 0.7071 -0.7071 0.7071 45.3559 -32.8117)" width="2" height="7.403"/>
	<rect x="63.674" y="50.63" width="7.403" height="2"/>
	<rect x="28.924" y="50.63" width="7.402" height="2"/>
	<path d="M37.703,51.5c0,0.021,0.003,0.041,0.003,0.062c0,0.027-0.004,0.054-0.004,0.081h0.008c0.024,2.083,0.57,4.043,1.51,5.756
		h2.354c-1.162-1.656-1.854-3.666-1.867-5.837c0.044-5.641,4.643-10.217,10.293-10.217c5.658,0,10.261,4.586,10.295,10.236
		c-0.017,2.163-0.708,4.166-1.866,5.817h2.354c0.939-1.713,1.485-3.673,1.51-5.756h0.006c0-0.021-0.003-0.041-0.003-0.062
		c0-0.027,0.004-0.054,0.004-0.081H62.29c-0.078-6.715-5.558-12.155-12.291-12.155s-12.212,5.44-12.29,12.155H37.703z"/>
	<rect x="28.924" y="60.447" width="42.153" height="2"/>
	<rect x="28.924" y="64.447" width="42.153" height="2"/>
	<rect x="28.924" y="68.447" width="42.153" height="2"/>
</g>
</svg>
