<?xml version="1.0" encoding="utf-8"?>
<!-- Generator: Adobe Illustrator 16.0.0, SVG Export Plug-In . SVG Version: 6.00 Build 0)  -->
<!DOCTYPE svg PUBLIC "-//W3C//DTD SVG 1.1//EN" "http://www.w3.org/Graphics/SVG/1.1/DTD/svg11.dtd">
<svg version="1.1" id="Layer_1" xmlns="http://www.w3.org/2000/svg" xmlns:xlink="http://www.w3.org/1999/xlink" x="0px" y="0px"
	 width="100px" height="100px" viewBox="0 0 100 100" enable-background="new 0 0 100 100" xml:space="preserve">
<g>
	<rect x="47.239" y="27.982" width="2.001" height="7.403"/>
	<rect x="32.255" y="35.773" transform="matrix(-0.7071 -0.7071 0.7071 -0.7071 35.377 88.2)" width="7.403" height="2"/>
	<rect x="27.164" y="49.059" width="7.402" height="2"/>
	<path d="M72.836,50.934h-0.008c-0.078-6.716-5.559-12.156-12.291-12.156c-1.895,0-3.682,0.443-5.283,1.21
		c-1.99-1.391-4.406-2.214-7.015-2.214c-6.733,0-12.212,5.44-12.29,12.155h-0.006c0,0.021,0.003,0.041,0.003,0.062
		c0,0.027-0.004,0.054-0.004,0.081h0.008c0.078,6.715,5.558,12.154,12.291,12.154c1.894,0,3.681-0.441,5.282-1.211
		c1.992,1.393,4.406,2.215,7.016,2.215c6.732,0,12.212-5.439,12.29-12.154h0.006c0-0.021-0.003-0.041-0.003-0.062
		C72.832,50.986,72.836,50.96,72.836,50.934z M37.946,49.99c0.044-5.641,4.643-10.217,10.293-10.217c1.854,0,3.589,0.5,5.093,1.36
		c-3.039,2.211-5.038,5.771-5.085,9.799h-0.006c0,0.021,0.003,0.041,0.003,0.062c0,0.027-0.004,0.054-0.004,0.081h0.008
		c0.038,3.312,1.395,6.309,3.562,8.5c-1.113,0.414-2.312,0.651-3.568,0.651C42.583,60.227,37.98,55.641,37.946,49.99z"/>
	<rect x="47.24" y="64.615" width="2.001" height="7.402"/>
	<rect x="34.954" y="59.528" transform="matrix(0.7069 0.7074 -0.7074 0.7069 55.2647 -6.8977)" width="2" height="7.403"/>
</g>
<g>
	<path d="M48.15,80.524c0.636-0.096,1.391-0.168,2.219-0.168c1.499,0,2.567,0.348,3.274,1.008c0.72,0.659,1.14,1.595,1.14,2.902
		c0,1.319-0.407,2.398-1.163,3.142c-0.756,0.756-2.004,1.164-3.574,1.164c-0.744,0-1.367-0.036-1.895-0.097V80.524z M49.193,87.673
		c0.264,0.048,0.647,0.06,1.055,0.06c2.231,0,3.443-1.247,3.443-3.43c0.012-1.907-1.068-3.119-3.275-3.119
		c-0.54,0-0.947,0.049-1.223,0.108V87.673z"/>
</g>
</svg>
