<?xml version="1.0" encoding="utf-8"?>
<!-- Generator: Adobe Illustrator 16.0.0, SVG Export Plug-In . SVG Version: 6.00 Build 0)  -->
<!DOCTYPE svg PUBLIC "-//W3C//DTD SVG 1.1//EN" "http://www.w3.org/Graphics/SVG/1.1/DTD/svg11.dtd">
<svg version="1.1" id="Layer_1" xmlns="http://www.w3.org/2000/svg" xmlns:xlink="http://www.w3.org/1999/xlink" x="0px" y="0px"
	 width="100px" height="100px" viewBox="0 0 100 100" enable-background="new 0 0 100 100" xml:space="preserve">
<path d="M75.363,30.034c-1.3,0-2.58,0.186-3.819,0.556c-1.803-5.486-6.877-9.216-12.763-9.216c-2.854,0-5.64,0.914-7.935,2.592
	c-2.861-1.698-6.107-2.592-9.441-2.592c-10.229,0-18.553,8.322-18.553,18.552c0,1.56,0.215,3.067,0.579,4.516
	c-6.854,0.612-12.247,6.38-12.247,13.391c0,7.418,6.034,13.452,13.451,13.452c2.045,0,4.052-0.469,5.884-1.365
	c1.951,5.194,6.927,8.707,12.577,8.707c4.644,0,8.922-2.384,11.379-6.279c1.373,0.316,2.754,0.476,4.119,0.476
	c9.357,0,17.1-6.97,18.354-15.987c6.671-0.788,11.865-6.469,11.865-13.35C88.814,36.068,82.78,30.034,75.363,30.034z M58.595,70.475
	c-1.443,0-2.914-0.207-4.369-0.614c-0.529-0.15-1.09,0.09-1.351,0.573c-1.944,3.604-5.69,5.844-9.778,5.844
	c-5.083,0-9.502-3.442-10.75-8.374c-0.092-0.366-0.354-0.664-0.704-0.803c-0.141-0.058-0.288-0.084-0.435-0.084
	c-0.22,0-0.439,0.061-0.629,0.185c-1.786,1.135-3.84,1.735-5.941,1.735c-6.121,0-11.102-4.982-11.102-11.103
	c0-5.967,4.732-10.833,10.636-11.08c0.156-0.006,0.309-0.023,0.466-0.023c0.74,0,1.471,0.076,2.19,0.222
	c0.674,0.136,1.337,0.333,1.983,0.597c0.319,0.129,0.68,0.112,0.986-0.048c0.307-0.159,0.527-0.445,0.603-0.783
	c1.15-5.091,5.599-8.648,10.82-8.648c2.591,0,5.115,0.914,7.106,2.575c0.397,0.332,0.964,0.364,1.397,0.08
	c2.646-1.737,5.713-2.655,8.871-2.655c8.935,0,16.203,7.268,16.203,16.202c0,0.093-0.013,0.184-0.014,0.276
	c-0.014,0.797-0.093,1.577-0.218,2.343C73.308,64.582,66.636,70.475,58.595,70.475z M77.14,54.434c0-0.054,0.008-0.106,0.008-0.161
	c0-10.23-8.323-18.552-18.553-18.552c-3.334,0-6.58,0.894-9.441,2.592c-2.295-1.678-5.08-2.592-7.934-2.592
	c-5.886,0-10.961,3.73-12.763,9.216c-0.85-0.254-1.72-0.414-2.601-0.494c-0.418-1.436-0.653-2.948-0.653-4.517
	c0-8.934,7.269-16.202,16.203-16.202c3.158,0,6.226,0.918,8.871,2.655c0.434,0.284,1,0.252,1.397-0.08
	c1.991-1.661,4.515-2.575,7.105-2.575c5.222,0,9.67,3.557,10.82,8.648c0.076,0.338,0.296,0.624,0.604,0.783
	c0.306,0.16,0.667,0.177,0.985,0.048c1.336-0.544,2.741-0.819,4.174-0.819c6.121,0,11.103,4.979,11.103,11.104
	C86.465,49.001,82.417,53.579,77.14,54.434z"/>
</svg>
