<?xml version="1.0" encoding="utf-8"?>
<!-- Generator: Adobe Illustrator 16.0.0, SVG Export Plug-In . SVG Version: 6.00 Build 0)  -->
<!DOCTYPE svg PUBLIC "-//W3C//DTD SVG 1.1//EN" "http://www.w3.org/Graphics/SVG/1.1/DTD/svg11.dtd">
<svg version="1.1" id="Layer_1" xmlns="http://www.w3.org/2000/svg" xmlns:xlink="http://www.w3.org/1999/xlink" x="0px" y="0px"
	 width="100px" height="100px" viewBox="0 0 100 100" enable-background="new 0 0 100 100" xml:space="preserve">
<g>
	<path d="M50.001,75.229c-4.276,0-7.756-3.479-7.756-7.756c0-2.779,1.448-5.283,3.818-6.672V28.708c0-2.171,1.767-3.937,3.938-3.937
		s3.937,1.766,3.937,3.937v32.093c2.37,1.389,3.817,3.893,3.817,6.672C57.755,71.75,54.276,75.229,50.001,75.229z M50.001,26.771
		c-1.068,0-1.938,0.869-1.938,1.937v33.318l-0.564,0.273c-2.007,0.971-3.254,2.953-3.254,5.174c0,3.174,2.582,5.756,5.756,5.756
		c3.173,0,5.754-2.582,5.754-5.756c0-2.221-1.246-4.203-3.253-5.174l-0.564-0.273V28.708C51.938,27.64,51.068,26.771,50.001,26.771z
		"/>
</g>
</svg>
