<?xml version="1.0" encoding="utf-8"?>
<!-- Generator: Adobe Illustrator 16.0.0, SVG Export Plug-In . SVG Version: 6.00 Build 0)  -->
<!DOCTYPE svg PUBLIC "-//W3C//DTD SVG 1.1//EN" "http://www.w3.org/Graphics/SVG/1.1/DTD/svg11.dtd">
<svg version="1.1" id="Layer_1" xmlns="http://www.w3.org/2000/svg" xmlns:xlink="http://www.w3.org/1999/xlink" x="0px" y="0px"
	 width="100px" height="100px" viewBox="0 0 100 100" enable-background="new 0 0 100 100" xml:space="preserve">
<path d="M83.812,25.727c0-7.134-5.805-12.94-12.938-12.94c-2.172,0-4.312,0.551-6.213,1.595c-1.56-1.03-3.418-1.595-5.284-1.595
	c-3.932,0-7.416,2.374-8.861,5.967c-0.69-0.157-1.397-0.236-2.108-0.236c-5.274,0-9.565,4.292-9.565,9.566
	c0,0.695,0.078,1.372,0.221,2.024c-2.592,1.626-4.602,4.125-5.601,7.167c-1.239-0.369-2.521-0.558-3.819-0.558
	c-7.418,0-13.453,6.035-13.453,13.453c0,7.417,6.035,13.45,13.453,13.45c2.045,0,4.051-0.468,5.883-1.361
	c1.408,3.748,4.396,6.612,8.072,7.921l-2.487,4.112l3.816,2.644l-3.815,10.278l10.865-9.616l-5.433-3.306l3.363-3.454
	c3.93-0.531,7.44-2.77,9.575-6.15c1.373,0.312,2.754,0.475,4.119,0.475c10.229,0,18.551-8.321,18.551-18.551
	c0-3.963-1.26-7.633-3.387-10.649C81.828,33.591,83.812,29.892,83.812,25.727z"/>
</svg>
