<?xml version="1.0" encoding="utf-8"?>
<!-- Generator: Adobe Illustrator 16.0.0, SVG Export Plug-In . SVG Version: 6.00 Build 0)  -->
<!DOCTYPE svg PUBLIC "-//W3C//DTD SVG 1.1//EN" "http://www.w3.org/Graphics/SVG/1.1/DTD/svg11.dtd">
<svg version="1.1" id="Layer_1" xmlns="http://www.w3.org/2000/svg" xmlns:xlink="http://www.w3.org/1999/xlink" x="0px" y="0px"
	 width="100px" height="100px" viewBox="0 0 100 100" enable-background="new 0 0 100 100" xml:space="preserve">
<g>
	<rect x="48.999" y="27.982" width="2.001" height="7.403"/>
</g>
<g>
	<rect x="34.012" y="35.773" transform="matrix(0.7071 0.7071 -0.7071 0.7071 37.0508 -15.8973)" width="7.403" height="2"/>
</g>
<g>
	<rect x="61.285" y="33.071" transform="matrix(0.7071 0.7071 -0.7071 0.7071 44.2448 -33.2719)" width="2" height="7.403"/>
</g>
<g>
	<rect x="63.674" y="49.059" width="7.403" height="2"/>
</g>
<g>
	<rect x="28.924" y="49.059" width="7.402" height="2"/>
</g>
<path d="M62.294,50.01c0-0.027,0.004-0.054,0.004-0.081H62.29c-0.078-6.715-5.558-12.155-12.291-12.155s-12.212,5.44-12.29,12.155
	h-0.006c0,0.021,0.003,0.041,0.003,0.062c0,0.027-0.004,0.054-0.004,0.081h0.008c0.078,6.715,5.558,12.155,12.291,12.155
	s12.212-5.44,12.29-12.155h0.006C62.297,50.05,62.294,50.03,62.294,50.01z M50.001,60.227c-5.658,0-10.261-4.586-10.295-10.236
	c0.044-5.641,4.643-10.217,10.293-10.217c5.658,0,10.261,4.586,10.295,10.236C60.25,55.65,55.651,60.227,50.001,60.227z"/>
<g>
	<rect x="49" y="64.615" width="2.001" height="7.402"/>
</g>
<g>
	<rect x="58.585" y="62.227" transform="matrix(-0.707 -0.7072 0.7072 -0.707 61.6125 151.9782)" width="7.403" height="2"/>
</g>
<g>
	<rect x="36.715" y="59.526" transform="matrix(-0.7071 -0.7071 0.7071 -0.7071 19.6743 134.6054)" width="2" height="7.403"/>
</g>
</svg>
