<?xml version="1.0" encoding="utf-8"?>
<!-- Generator: Adobe Illustrator 16.0.0, SVG Export Plug-In . SVG Version: 6.00 Build 0)  -->
<!DOCTYPE svg PUBLIC "-//W3C//DTD SVG 1.1//EN" "http://www.w3.org/Graphics/SVG/1.1/DTD/svg11.dtd">
<svg version="1.1" id="Layer_1" xmlns="http://www.w3.org/2000/svg" xmlns:xlink="http://www.w3.org/1999/xlink" x="0px" y="0px"
	 width="100px" height="100px" viewBox="0 0 100 100" enable-background="new 0 0 100 100" xml:space="preserve">
<g>
	<rect x="47.239" y="27.982" width="2.001" height="7.403"/>
	<rect x="32.253" y="35.773" transform="matrix(0.7071 0.7071 -0.7071 0.7071 36.5353 -14.6529)" width="7.403" height="2"/>
	<rect x="27.164" y="49.059" width="7.402" height="2"/>
	<path d="M72.836,50.933h-0.008c-0.078-6.715-5.558-12.155-12.291-12.155c-1.894,0-3.681,0.443-5.283,1.21
		c-1.991-1.391-4.406-2.214-7.015-2.214c-6.733,0-12.212,5.44-12.29,12.155h-0.006c0,0.021,0.003,0.041,0.003,0.062
		c0,0.027-0.004,0.054-0.004,0.081h0.008c0.078,6.715,5.558,12.155,12.291,12.155c1.894,0,3.681-0.442,5.283-1.211
		c1.991,1.392,4.406,2.215,7.015,2.215c6.733,0,12.212-5.44,12.29-12.155h0.006c0-0.021-0.003-0.041-0.003-0.062
		C72.832,50.986,72.836,50.96,72.836,50.933z M37.946,49.99c0.044-5.641,4.643-10.217,10.293-10.217c1.854,0,3.589,0.5,5.093,1.36
		c-3.039,2.211-5.038,5.771-5.085,9.799h-0.006c0,0.021,0.003,0.041,0.003,0.062c0,0.027-0.004,0.054-0.004,0.081h0.008
		c0.038,3.312,1.395,6.309,3.563,8.5c-1.114,0.414-2.313,0.651-3.569,0.651C42.583,60.227,37.98,55.641,37.946,49.99z"/>
	<rect x="47.24" y="64.615" width="2.001" height="7.402"/>
	<rect x="34.955" y="59.526" transform="matrix(-0.7071 -0.7071 0.7071 -0.7071 16.6702 133.3611)" width="2" height="7.403"/>
</g>
</svg>
