<?xml version="1.0" encoding="utf-8"?>
<!-- Generator: Adobe Illustrator 16.0.0, SVG Export Plug-In . SVG Version: 6.00 Build 0)  -->
<!DOCTYPE svg PUBLIC "-//W3C//DTD SVG 1.1//EN" "http://www.w3.org/Graphics/SVG/1.1/DTD/svg11.dtd">
<svg version="1.1" id="Layer_1" xmlns="http://www.w3.org/2000/svg" xmlns:xlink="http://www.w3.org/1999/xlink" x="0px" y="0px"
	 width="100px" height="100px" viewBox="0 0 100 100" enable-background="new 0 0 100 100" xml:space="preserve">
<path d="M82.471,33.108c0-4.863-3.957-8.82-8.82-8.82c-0.559,0-1.125,0.057-1.689,0.169c-4.332-5.2-10.646-8.169-17.427-8.169
	c-7.491,0-14.494,3.703-18.732,9.905l0.826,0.564l-0.826-0.564c-1.188,1.738-2.109,3.627-2.771,5.614
	c-4.345,0.198-8.272,2.654-10.344,6.519c-0.958,1.787-1.464,3.807-1.464,5.838c0,6.824,5.551,12.375,12.375,12.375
	c1.818,0,3.621-0.402,5.258-1.17c4.242,4.064,9.781,6.295,15.68,6.295c9.513,0,17.942-5.887,21.249-14.738
	c0.205,0.023,0.404,0.035,0.604,0.035c3.354,0,6.086-2.73,6.086-6.085c0-1.245-0.392-2.456-1.111-3.478
	C82.089,36.09,82.471,34.621,82.471,33.108z"/>
<g>
	<path d="M37.327,69.749c-2.495,0-4.524-2.029-4.524-4.524c0-2.494,2.029-4.523,4.524-4.523c2.495,0,4.524,2.029,4.524,4.523
		C41.851,67.72,39.821,69.749,37.327,69.749z M37.327,62.7c-1.392,0-2.524,1.133-2.524,2.524c0,1.391,1.132,2.523,2.524,2.523
		s2.524-1.133,2.524-2.523C39.851,63.833,38.718,62.7,37.327,62.7z"/>
</g>
<g>
	<path d="M44.376,83.553c-2.495,0-4.524-2.029-4.524-4.523s2.03-4.523,4.524-4.523s4.524,2.029,4.524,4.523
		S46.871,83.553,44.376,83.553z M44.376,76.505c-1.392,0-2.524,1.132-2.524,2.522c0,1.392,1.132,2.524,2.524,2.524
		s2.524-1.133,2.524-2.524C46.9,77.637,45.768,76.505,44.376,76.505z"/>
</g>
<g>
	<path d="M54.948,73.273c-2.495,0-4.524-2.029-4.524-4.524c0-2.494,2.029-4.522,4.524-4.522c2.493,0,4.522,2.028,4.522,4.522
		C59.473,71.244,57.441,73.273,54.948,73.273z M54.948,66.227c-1.392,0-2.524,1.131-2.524,2.522s1.133,2.524,2.524,2.524
		c1.391,0,2.522-1.133,2.522-2.524S56.34,66.227,54.948,66.227z"/>
</g>
<g>
	<path d="M72.766,69.749c-2.494,0-4.523-2.029-4.523-4.524c0-2.494,2.029-4.523,4.523-4.523c2.493,0,4.522,2.029,4.522,4.523
		C77.288,67.72,75.259,69.749,72.766,69.749z M72.766,62.7c-1.393,0-2.523,1.133-2.523,2.524c0,1.391,1.132,2.523,2.523,2.523
		c1.391,0,2.522-1.133,2.522-2.523C75.288,63.833,74.156,62.7,72.766,62.7z"/>
</g>
<g>
	<path d="M65.716,83.553c-2.493,0-4.522-2.029-4.522-4.523s2.029-4.523,4.522-4.523c2.494,0,4.522,2.029,4.522,4.523
		S68.21,83.553,65.716,83.553z M65.716,76.505c-1.392,0-2.522,1.132-2.522,2.522c0,1.392,1.132,2.524,2.522,2.524
		c1.392,0,2.522-1.133,2.522-2.524C68.238,77.637,67.107,76.505,65.716,76.505z"/>
</g>
<g>
	<path d="M54.463,93.531V92.32c-0.695-0.012-1.415-0.229-1.834-0.528l0.287-0.803c0.432,0.287,1.056,0.516,1.727,0.516
		c0.852,0,1.428-0.492,1.428-1.176c0-0.659-0.468-1.067-1.355-1.427c-1.223-0.48-1.979-1.032-1.979-2.075
		c0-0.995,0.707-1.751,1.811-1.931v-1.212h0.744v1.164c0.719,0.023,1.211,0.216,1.559,0.419l-0.3,0.792
		c-0.251-0.144-0.743-0.408-1.511-0.408c-0.924,0-1.271,0.552-1.271,1.032c0,0.623,0.443,0.936,1.487,1.367
		c1.235,0.503,1.858,1.127,1.858,2.194c0,0.947-0.659,1.835-1.895,2.039v1.247H54.463z"/>
</g>
</svg>
