<?xml version="1.0" encoding="utf-8"?>
<!-- Generator: Adobe Illustrator 16.0.0, SVG Export Plug-In . SVG Version: 6.00 Build 0)  -->
<!DOCTYPE svg PUBLIC "-//W3C//DTD SVG 1.1//EN" "http://www.w3.org/Graphics/SVG/1.1/DTD/svg11.dtd">
<svg version="1.1" id="Layer_1" xmlns="http://www.w3.org/2000/svg" xmlns:xlink="http://www.w3.org/1999/xlink" x="0px" y="0px"
	 width="100px" height="100px" viewBox="0 0 100 100" enable-background="new 0 0 100 100" xml:space="preserve">
<path d="M78.387,40.163c0-4.864-3.957-8.82-8.82-8.82c-0.559,0-1.125,0.057-1.69,0.169c-4.332-5.2-10.646-8.169-17.427-8.169
	c-9.719,0-18.464,6.343-21.524,15.514c-6.553,0.307-11.789,5.735-11.789,12.362c0,6.823,5.551,12.375,12.375,12.375
	c1.818,0,3.621-0.403,5.257-1.171c3.055,2.928,6.789,4.886,10.838,5.763l-3.278,5.596l3.818,2.644l-3.818,10.279l10.866-9.618
	l-5.433-3.305l5.03-5.197c8.532-0.879,15.875-6.487,18.906-14.604c0.205,0.023,0.404,0.035,0.603,0.035
	c3.355,0,6.086-2.73,6.086-6.086c0-1.245-0.391-2.456-1.111-3.478C78.005,43.144,78.387,41.675,78.387,40.163z M75.315,45.199
	c0.691,0.761,1.071,1.731,1.071,2.73c0,2.253-1.833,4.086-4.086,4.086c-0.305,0-0.627-0.046-1.014-0.145l-0.903-0.231l-0.293,0.887
	c-2.807,8.488-10.7,14.192-19.642,14.192c-5.602,0-10.849-2.207-14.775-6.214l-0.53-0.54l-0.665,0.363
	c-1.515,0.828-3.233,1.266-4.968,1.266c-5.721,0-10.375-4.654-10.375-10.375c0-5.721,4.653-10.375,10.369-10.375
	c0,0,0.001,0,0.001,0l0.899,0.007l0.212-0.715c2.586-8.709,10.741-14.792,19.831-14.792c6.377,0,12.304,2.881,16.259,7.906
	l0.411,0.521l0.64-0.176c0.607-0.167,1.216-0.251,1.808-0.251c3.761,0,6.82,3.06,6.82,6.82c0,1.362-0.401,2.679-1.16,3.806
	l-0.437,0.65L75.315,45.199z"/>
</svg>
