<?xml version="1.0" encoding="utf-8"?>
<!-- Generator: Adobe Illustrator 16.0.0, SVG Export Plug-In . SVG Version: 6.00 Build 0)  -->
<!DOCTYPE svg PUBLIC "-//W3C//DTD SVG 1.1//EN" "http://www.w3.org/Graphics/SVG/1.1/DTD/svg11.dtd">
<svg version="1.1" id="Layer_1" xmlns="http://www.w3.org/2000/svg" xmlns:xlink="http://www.w3.org/1999/xlink" x="0px" y="0px"
	 width="100px" height="100px" viewBox="0 0 100 100" enable-background="new 0 0 100 100" xml:space="preserve">
<path d="M82.471,28.108c0-4.863-3.957-8.82-8.82-8.82c-0.559,0-1.125,0.057-1.689,0.169c-4.332-5.2-10.646-8.169-17.427-8.169
	c-7.491,0-14.494,3.703-18.732,9.905l0.826,0.564l-0.826-0.564c-1.188,1.738-2.109,3.627-2.771,5.614
	c-4.345,0.198-8.272,2.654-10.344,6.519c-0.958,1.787-1.464,3.807-1.464,5.838c0,6.824,5.551,12.375,12.375,12.375
	c1.818,0,3.621-0.402,5.258-1.17c4.242,4.064,9.781,6.295,15.68,6.295c9.513,0,17.942-5.887,21.249-14.738
	c0.205,0.023,0.404,0.035,0.604,0.035c3.354,0,6.086-2.73,6.086-6.085c0-1.245-0.392-2.456-1.111-3.478
	C82.089,31.09,82.471,29.621,82.471,28.108z M79.398,33.146c0.691,0.762,1.072,1.731,1.072,2.73c0,2.253-1.834,4.085-4.087,4.085
	c-0.305,0-0.627-0.045-1.014-0.145l-0.903-0.23l-0.293,0.887c-2.807,8.488-10.699,14.191-19.642,14.191
	c-5.602,0-10.849-2.207-14.775-6.213l-0.529-0.541l-0.664,0.363c-1.515,0.828-3.233,1.266-4.969,1.266
	c-5.721,0-10.375-4.654-10.375-10.375c0-1.703,0.424-3.396,1.227-4.893c1.813-3.382,5.317-5.482,9.142-5.482c0,0,0.001,0,0.002,0
	c0.051,0.004,0.101,0.008,0.153,0.008l0.731-0.086l0.281-0.786l-1.011-0.291v-0.019l1.011,0.31c0.559-1.827,1.38-3.559,2.421-5.167
	h0.168v-0.267c0.037-0.055,0.068-0.114,0.106-0.168c3.866-5.657,10.251-9.034,17.081-9.034c6.377,0,12.304,2.881,16.259,7.906
	l0.411,0.521l0.64-0.176c0.607-0.167,1.217-0.251,1.809-0.251c3.761,0,6.82,3.06,6.82,6.82c0,1.363-0.402,2.68-1.16,3.807
	l-0.438,0.65L79.398,33.146z"/>
<path d="M61.777,70.436c0-1.271-0.358-2.457-0.971-3.471l2.084-2.085l-2.215-2.215l-2.066,2.065
	c-0.607-0.381-1.279-0.666-1.998-0.838V60.98h-3.133v2.912c-0.719,0.17-1.391,0.457-1.998,0.838l-2.065-2.065L47.2,64.88
	l2.084,2.084c-0.613,1.015-0.973,2.199-0.973,3.472c0,1.312,0.381,2.53,1.029,3.565l-2.14,2.142l2.215,2.215l2.16-2.159
	c0.583,0.353,1.223,0.618,1.903,0.78v3.062h3.133v-3.062c0.683-0.162,1.322-0.429,1.904-0.781l2.159,2.16l2.216-2.215L60.75,74
	C61.398,72.966,61.777,71.746,61.777,70.436z M55.045,73.275c-1.568,0-2.84-1.271-2.84-2.84c0-1.569,1.271-2.842,2.84-2.842
	s2.842,1.272,2.842,2.842C57.887,72.004,56.613,73.275,55.045,73.275z"/>
<g>
	<path d="M53.121,83.964v4.786c0,1.811,0.804,2.578,1.883,2.578c1.199,0,1.967-0.791,1.967-2.578v-4.786h1.056v4.714
		c0,2.482-1.308,3.502-3.059,3.502c-1.654,0-2.902-0.947-2.902-3.454v-4.762H53.121z"/>
</g>
</svg>
