<?xml version="1.0" encoding="utf-8"?>
<!-- Generator: Adobe Illustrator 16.0.0, SVG Export Plug-In . SVG Version: 6.00 Build 0)  -->
<!DOCTYPE svg PUBLIC "-//W3C//DTD SVG 1.1//EN" "http://www.w3.org/Graphics/SVG/1.1/DTD/svg11.dtd">
<svg version="1.1" id="Layer_1" xmlns="http://www.w3.org/2000/svg" xmlns:xlink="http://www.w3.org/1999/xlink" x="0px" y="0px"
	 width="100px" height="100px" viewBox="0 0 100 100" enable-background="new 0 0 100 100" xml:space="preserve">
<path d="M58.596,70.475c-1.443,0-2.914-0.207-4.369-0.613c-0.529-0.15-1.09,0.09-1.352,0.572c-1.943,3.604-5.69,5.844-9.778,5.844
	c-5.083,0-9.502-3.441-10.75-8.373c-0.092-0.366-0.354-0.664-0.704-0.803c-0.141-0.059-0.288-0.084-0.435-0.084
	c-0.22,0-0.439,0.061-0.629,0.185c-1.786,1.135-3.84,1.735-5.941,1.735c-6.121,0-11.102-4.982-11.102-11.104
	c0-5.967,4.732-10.833,10.636-11.08c0.156-0.006,0.309-0.023,0.466-0.023c0.74,0,1.471,0.076,2.19,0.222
	c0.674,0.136,1.337,0.333,1.983,0.597c0.319,0.129,0.68,0.112,0.986-0.048c0.307-0.159,0.527-0.445,0.603-0.783
	c1.15-5.091,5.599-8.648,10.82-8.648c2.591,0,5.115,0.914,7.106,2.575c0.397,0.332,0.964,0.364,1.397,0.08
	c2.646-1.737,5.712-2.655,8.871-2.655c8.936,0,16.203,7.268,16.203,16.203c0,0.093-0.013,0.184-0.014,0.275
	c-0.014,0.797-0.094,1.577-0.219,2.344C73.309,64.582,66.637,70.475,58.596,70.475z"/>
<path d="M77.141,54.434c0-0.054,0.008-0.105,0.008-0.16c0-10.23-8.323-18.552-18.553-18.552c-3.334,0-6.58,0.894-9.442,2.592
	c-2.295-1.678-5.08-2.592-7.934-2.592c-5.886,0-10.961,3.73-12.763,9.216c-0.85-0.254-1.72-0.414-2.601-0.494
	c-0.418-1.436-0.653-2.948-0.653-4.517c0-8.934,7.269-16.202,16.203-16.202c3.158,0,6.226,0.918,8.871,2.655
	c0.434,0.284,1,0.252,1.397-0.08c1.991-1.661,4.516-2.575,7.105-2.575c5.222,0,9.67,3.557,10.82,8.648
	c0.075,0.338,0.295,0.624,0.604,0.783c0.306,0.16,0.667,0.177,0.984,0.048c1.336-0.544,2.742-0.819,4.174-0.819
	c6.121,0,11.104,4.979,11.104,11.104C86.465,49.001,82.417,53.579,77.141,54.434z"/>
</svg>
