<?xml version="1.0" encoding="utf-8"?>
<!-- Generator: Adobe Illustrator 16.0.0, SVG Export Plug-In . SVG Version: 6.00 Build 0)  -->
<!DOCTYPE svg PUBLIC "-//W3C//DTD SVG 1.1//EN" "http://www.w3.org/Graphics/SVG/1.1/DTD/svg11.dtd">
<svg version="1.1" id="Layer_1" xmlns="http://www.w3.org/2000/svg" xmlns:xlink="http://www.w3.org/1999/xlink" x="0px" y="0px"
	 width="100px" height="100px" viewBox="0 0 100 100" enable-background="new 0 0 100 100" xml:space="preserve">
<g>
	<path d="M49.329,74.305l-0.831,1.238c-0.592,0.883-3.547,5.393-3.547,7.457c0,2.413,1.964,4.377,4.378,4.377
		c2.413,0,4.377-1.964,4.377-4.377c0-2.064-2.954-6.574-3.546-7.457L49.329,74.305z M49.329,85.377
		c-1.311,0-2.378-1.066-2.378-2.377c0-0.864,1.211-3.15,2.378-5.048c1.167,1.896,2.377,4.183,2.377,5.048
		C51.706,84.311,50.641,85.377,49.329,85.377z"/>
	<path d="M77.865,42.813c0-4.864-3.957-8.82-8.82-8.82c-0.559,0-1.125,0.057-1.689,0.169c-4.332-5.2-10.646-8.169-17.427-8.169
		c-9.719,0-18.464,6.343-21.524,15.514c-6.553,0.307-11.789,5.735-11.789,12.362c0,6.822,5.551,12.375,12.375,12.375
		c1.818,0,3.621-0.403,5.257-1.171c4.243,4.065,9.782,6.296,15.68,6.296c9.513,0,17.943-5.887,21.249-14.738
		c0.205,0.023,0.404,0.035,0.604,0.035c3.354,0,6.086-2.73,6.086-6.086c0-1.245-0.391-2.456-1.111-3.478
		C77.482,45.794,77.865,44.326,77.865,42.813z"/>
</g>
</svg>
