<?xml version="1.0" encoding="utf-8"?>
<!-- Generator: Adobe Illustrator 16.0.0, SVG Export Plug-In . SVG Version: 6.00 Build 0)  -->
<!DOCTYPE svg PUBLIC "-//W3C//DTD SVG 1.1//EN" "http://www.w3.org/Graphics/SVG/1.1/DTD/svg11.dtd">
<svg version="1.1" id="Layer_1" xmlns="http://www.w3.org/2000/svg" xmlns:xlink="http://www.w3.org/1999/xlink" x="0px" y="0px"
	 width="100px" height="100px" viewBox="0 0 100 100" enable-background="new 0 0 100 100" xml:space="preserve">
<path d="M61.246,51.375c0-2.337-0.66-4.515-1.785-6.379l3.831-3.831l-4.071-4.071l-3.798,3.797c-1.117-0.7-2.353-1.225-3.673-1.54
	V34h-5.757v5.35c-1.32,0.315-2.556,0.84-3.674,1.541l-3.796-3.796l-4.071,4.071l3.83,3.83c-1.126,1.865-1.786,4.043-1.786,6.38
	c0,2.41,0.7,4.651,1.891,6.553l-3.934,3.935l4.071,4.07l3.968-3.968c1.073,0.647,2.249,1.136,3.501,1.435v5.628h5.757v-5.628
	c1.253-0.299,2.429-0.787,3.501-1.436l3.969,3.97l4.071-4.071l-3.935-3.936C60.547,56.025,61.246,53.784,61.246,51.375z
	 M48.872,56.596c-2.883,0-5.221-2.338-5.221-5.221c0-2.883,2.337-5.221,5.221-5.221s5.22,2.337,5.22,5.221
	C54.092,54.258,51.755,56.596,48.872,56.596z"/>
</svg>
