<?xml version="1.0" encoding="utf-8"?>
<!-- Generator: Adobe Illustrator 16.0.0, SVG Export Plug-In . SVG Version: 6.00 Build 0)  -->
<!DOCTYPE svg PUBLIC "-//W3C//DTD SVG 1.1//EN" "http://www.w3.org/Graphics/SVG/1.1/DTD/svg11.dtd">
<svg version="1.1" id="Layer_1" xmlns="http://www.w3.org/2000/svg" xmlns:xlink="http://www.w3.org/1999/xlink" x="0px" y="0px"
	 width="100px" height="100px" viewBox="0 0 100 100" enable-background="new 0 0 100 100" xml:space="preserve">
<g>
	<rect x="8.566" y="39.655" width="26.705" height="2"/>
</g>
<path d="M87.941,44.132c0-4.863-3.957-8.82-8.82-8.82c-0.559,0-1.125,0.057-1.689,0.169c-4.332-5.2-10.646-8.169-17.428-8.169
	c-7.49,0-14.494,3.703-18.732,9.905l0.826,0.564l-0.826-0.564c-1.188,1.738-2.109,3.627-2.771,5.614
	c-4.345,0.198-8.272,2.654-10.344,6.519c-0.958,1.787-1.464,3.807-1.464,5.839c0,6.822,5.551,12.375,12.375,12.375
	c1.818,0,3.621-0.403,5.258-1.172c4.242,4.065,9.781,6.297,15.68,6.297c9.514,0,17.943-5.888,21.249-14.738
	c0.205,0.023,0.404,0.035,0.603,0.035c3.355,0,6.086-2.73,6.086-6.086c0-1.245-0.391-2.457-1.11-3.479
	C87.561,47.113,87.941,45.645,87.941,44.132z"/>
<g>
	<rect x="8.566" y="33.781" width="29.531" height="2"/>
</g>
<g>
	<rect x="8.566" y="45.822" width="16.471" height="2"/>
</g>
</svg>
