<?xml version="1.0" encoding="utf-8"?>
<!-- Generator: Adobe Illustrator 16.0.0, SVG Export Plug-In . SVG Version: 6.00 Build 0)  -->
<!DOCTYPE svg PUBLIC "-//W3C//DTD SVG 1.1//EN" "http://www.w3.org/Graphics/SVG/1.1/DTD/svg11.dtd">
<svg version="1.1" id="Layer_1" xmlns="http://www.w3.org/2000/svg" xmlns:xlink="http://www.w3.org/1999/xlink" x="0px" y="0px"
	 width="100px" height="100px" viewBox="0 0 100 100" enable-background="new 0 0 100 100" xml:space="preserve">
<g>
	<rect x="38.999" y="14.919" width="2.001" height="7.403"/>
</g>
<g>
	<rect x="24.014" y="22.709" transform="matrix(-0.7071 -0.7071 0.7071 -0.7071 30.5481 60.0719)" width="7.403" height="2"/>
</g>
<g>
	<rect x="51.285" y="20.007" transform="matrix(-0.707 -0.7072 0.7072 -0.707 72.4825 77.448)" width="2" height="7.403"/>
</g>
<g>
	<rect x="18.924" y="35.996" width="7.402" height="2"/>
</g>
<path d="M80.625,47.623c0-4.864-3.957-8.82-8.82-8.82c-0.558,0-1.123,0.057-1.689,0.169c-4.331-5.2-10.646-8.169-17.428-8.169
	c-0.683,0-1.358,0.039-2.03,0.101C48.535,27.21,44.558,24.712,40,24.712c-6.733,0-12.212,5.44-12.29,12.155h-0.006
	c0,0.021,0.003,0.041,0.003,0.062c0,0.027-0.004,0.054-0.004,0.081h0.008c0.04,3.384,1.453,6.441,3.705,8.646
	c-0.082,0.222-0.176,0.437-0.251,0.662c-6.553,0.307-11.789,5.735-11.789,12.363c0,6.822,5.551,12.375,12.375,12.375
	c1.818,0,3.621-0.404,5.257-1.172c4.243,4.065,9.782,6.297,15.68,6.297c9.514,0,17.943-5.888,21.25-14.738
	c0.205,0.022,0.403,0.035,0.603,0.035c3.354,0,6.086-2.73,6.086-6.086c0-1.246-0.392-2.455-1.11-3.479
	C80.243,50.604,80.625,49.134,80.625,47.623z M29.706,36.928c0.044-5.641,4.643-10.217,10.293-10.217
	c3.531,0,6.65,1.787,8.505,4.502c-7.03,1.341-13.105,5.981-16.235,12.432C30.691,41.846,29.722,39.5,29.706,36.928z M77.555,52.658
	c0.69,0.762,1.07,1.73,1.07,2.73c0,2.252-1.833,4.086-4.086,4.086c-0.305,0-0.627-0.047-1.014-0.146l-0.903-0.231l-0.293,0.887
	c-2.808,8.488-10.7,14.192-19.642,14.192c-5.603,0-10.85-2.207-14.775-6.214l-0.53-0.54l-0.665,0.363
	c-1.515,0.828-3.233,1.266-4.968,1.266c-5.721,0-10.375-4.653-10.375-10.375c0-5.721,4.653-10.375,10.378-10.375
	c0,0,0.001,0,0.002,0l0.885,0.021l0.217-0.73c0.06-0.201,0.137-0.393,0.203-0.591c0.218-0.66,0.468-1.303,0.749-1.93
	c2.854-6.369,8.814-10.925,15.693-12.015c0.675-0.107,1.36-0.171,2.051-0.21c0.378-0.021,0.755-0.047,1.136-0.047
	c6.377,0,12.304,2.881,16.258,7.905l0.41,0.521l0.641-0.174c4.48-1.227,8.629,2.218,8.629,6.569c0,1.362-0.4,2.678-1.16,3.805
	l-0.438,0.65L77.555,52.658z"/>
<g>
	<path d="M49.455,83.416v3.383h3.91v-3.383h1.055V91.5h-1.055v-3.79h-3.91v3.79h-1.043v-8.084H49.455z"/>
</g>
</svg>
