<?xml version="1.0" encoding="utf-8"?>
<!-- Generator: Adobe Illustrator 16.0.0, SVG Export Plug-In . SVG Version: 6.00 Build 0)  -->
<!DOCTYPE svg PUBLIC "-//W3C//DTD SVG 1.1//EN" "http://www.w3.org/Graphics/SVG/1.1/DTD/svg11.dtd">
<svg version="1.1" id="Layer_1" xmlns="http://www.w3.org/2000/svg" xmlns:xlink="http://www.w3.org/1999/xlink" x="0px" y="0px"
	 width="100px" height="100px" viewBox="0 0 100 100" enable-background="new 0 0 100 100" xml:space="preserve">
<path fill="none" d="M102.523,15.854c-1.959,0-3.862,0.57-5.504,1.648c-0.237,0.155-0.512,0.236-0.793,0.236
	c-0.338,0-0.666-0.119-0.926-0.336c-1.197-0.998-2.717-1.549-4.273-1.549c-3.141,0-5.817,2.141-6.51,5.205
	c-0.096,0.414-0.365,0.765-0.74,0.961c-0.204,0.107-0.436,0.164-0.668,0.164c-0.188,0-0.368-0.036-0.543-0.107
	c-0.805-0.326-1.649-0.492-2.51-0.492c-3.686,0-6.682,2.996-6.682,6.68c0,0.247,0.018,0.489,0.043,0.729
	c1.398-0.486,2.896-0.754,4.455-0.754c2.854,0,5.639,0.915,7.934,2.59c2.861-1.697,6.107-2.59,9.443-2.59
	c5.229,0,9.951,2.183,13.328,5.678c2.424-1.836,4-4.739,4-8.009C112.579,20.365,108.066,15.854,102.523,15.854z"/>
<g>
	<path d="M50.988,69.033l0.068-0.496c-0.666,0.059-1.336,0.097-2.015,0.097c-1.645,0-3.257-0.19-4.826-0.528l-0.043,0.31
		l-3.252,5.378l3.816,2.645l-3.815,10.277l10.865-9.617l-5.433-3.305L50.988,69.033z"/>
	<path d="M83.626,26.227c0-7.134-5.806-12.94-12.938-12.94c-2.172,0-4.312,0.551-6.213,1.595c-1.56-1.03-3.418-1.595-5.285-1.595
		c-3.931,0-7.416,2.374-8.861,5.967c-0.69-0.157-1.397-0.236-2.108-0.236c-5.274,0-9.565,4.292-9.565,9.566
		c0,0.695,0.078,1.372,0.221,2.024c-2.592,1.626-4.602,4.125-5.601,7.167c-1.239-0.369-2.521-0.558-3.819-0.558
		c-7.418,0-13.453,6.035-13.453,13.453c0,7.417,6.035,13.45,13.453,13.45c2.045,0,4.051-0.468,5.883-1.361
		c1.164,3.099,3.41,5.591,6.229,7.104l0.684-1.131l0.151-1.092c-2.541-1.457-4.479-3.9-5.237-6.9
		c-0.092-0.363-0.354-0.662-0.705-0.803c-0.139-0.056-0.287-0.084-0.434-0.084c-0.22,0-0.439,0.063-0.63,0.186
		c-1.786,1.136-3.84,1.734-5.94,1.734c-6.123,0-11.103-4.979-11.103-11.104s4.979-11.104,11.103-11.104
		c1.434,0,2.836,0.275,4.174,0.819c0.318,0.131,0.681,0.115,0.986-0.046c0.307-0.16,0.526-0.446,0.603-0.782
		c0.632-2.802,2.266-5.132,4.473-6.668c0.787-0.547,1.646-0.995,2.562-1.324c1.185-0.426,2.461-0.658,3.787-0.658
		c2.59,0,5.115,0.916,7.104,2.575c0.396,0.332,0.965,0.364,1.396,0.08c2.646-1.737,5.715-2.655,8.873-2.655
		c4.363,0,8.322,1.742,11.236,4.558c0.719,0.69,1.367,1.448,1.947,2.262c1.893,2.65,3.018,5.886,3.018,9.384
		c0,8.934-7.27,16.202-16.201,16.202c-1.443,0-2.916-0.205-4.369-0.615c-0.531-0.146-1.09,0.092-1.354,0.574
		c-1.021,1.896-2.551,3.399-4.358,4.414l-0.386,2.801c2.586-1.043,4.818-2.879,6.348-5.299c1.373,0.312,2.754,0.475,4.119,0.475
		c10.229,0,18.551-8.321,18.551-18.551c0-3.963-1.26-7.633-3.387-10.649C81.643,34.091,83.626,30.392,83.626,26.227z M76.741,34.237
		c-3.378-3.495-8.099-5.678-13.328-5.678c-3.336,0-6.582,0.893-9.442,2.59c-2.296-1.675-5.081-2.59-7.935-2.59
		c-1.559,0-3.057,0.268-4.455,0.754c-0.026-0.24-0.043-0.482-0.043-0.729c0-3.684,2.996-6.68,6.681-6.68
		c0.86,0,1.706,0.166,2.51,0.492c0.176,0.071,0.356,0.107,0.545,0.107c0.231,0,0.463-0.057,0.666-0.164
		c0.377-0.196,0.646-0.547,0.742-0.961c0.69-3.064,3.367-5.205,6.508-5.205c1.559,0,3.078,0.551,4.274,1.549
		c0.259,0.217,0.588,0.336,0.927,0.336c0.28,0,0.555-0.081,0.791-0.236c1.643-1.078,3.547-1.648,5.506-1.648
		c5.543,0,10.055,4.511,10.055,10.054C80.741,29.498,79.165,32.401,76.741,34.237z"/>
</g>
<g>
	<path d="M52.074,90.019c0,2.65-0.983,4.113-2.71,4.113c-1.523,0-2.555-1.427-2.579-4.006c0-2.614,1.127-4.054,2.71-4.054
		C51.139,86.072,52.074,87.535,52.074,90.019z M47.841,90.138c0,2.027,0.624,3.179,1.583,3.179c1.08,0,1.596-1.26,1.596-3.25
		c0-1.919-0.492-3.179-1.583-3.179C48.512,86.888,47.841,88.016,47.841,90.138z"/>
</g>
</svg>
