<?xml version="1.0" encoding="utf-8"?>
<!-- Generator: Adobe Illustrator 16.0.0, SVG Export Plug-In . SVG Version: 6.00 Build 0)  -->
<!DOCTYPE svg PUBLIC "-//W3C//DTD SVG 1.1//EN" "http://www.w3.org/Graphics/SVG/1.1/DTD/svg11.dtd">
<svg version="1.1" id="Layer_1" xmlns="http://www.w3.org/2000/svg" xmlns:xlink="http://www.w3.org/1999/xlink" x="0px" y="0px"
	 width="100px" height="100px" viewBox="0 0 100 100" enable-background="new 0 0 100 100" xml:space="preserve">
<g>
	<rect x="48.999" y="27.982" width="2.001" height="7.403"/>
</g>
<g>
	<rect x="34.012" y="35.773" transform="matrix(0.7071 0.7071 -0.7071 0.7071 37.051 -15.8968)" width="7.403" height="2"/>
</g>
<g>
	<rect x="61.285" y="33.071" transform="matrix(0.707 0.7072 -0.7072 0.707 44.2572 -33.2749)" width="2" height="7.403"/>
</g>
<g>
	<rect x="63.674" y="49.059" width="7.403" height="2"/>
</g>
<g>
	<rect x="28.924" y="49.059" width="7.402" height="2"/>
</g>
<path d="M62.294,50.01c0-0.027,0.004-0.054,0.004-0.081H62.29c-0.078-6.715-5.558-12.155-12.291-12.155
	c-6.733,0-12.212,5.44-12.29,12.155h-0.006c0,0.021,0.003,0.041,0.003,0.062c0,0.027-0.004,0.054-0.004,0.081h0.008
	c0.078,6.715,5.558,12.154,12.291,12.154c6.733,0,12.212-5.439,12.29-12.154h0.006C62.297,50.05,62.294,50.03,62.294,50.01z"/>
<g>
	<rect x="49" y="64.615" width="2.001" height="7.402"/>
</g>
<g>
	<rect x="58.589" y="62.226" transform="matrix(-0.7068 -0.7074 0.7074 -0.7068 61.5954 151.9783)" width="7.403" height="2"/>
</g>
<g>
	<rect x="36.712" y="59.526" transform="matrix(-0.7071 -0.7071 0.7071 -0.7071 19.6704 134.6019)" width="2" height="7.403"/>
</g>
<g>
	<path d="M49.281,78.688h-0.024l-1.355,0.731l-0.204-0.803l1.703-0.912h0.9V85.5h-1.02V78.688z"/>
</g>
</svg>
