<?xml version="1.0" encoding="utf-8"?>
<!-- Generator: Adobe Illustrator 16.0.0, SVG Export Plug-In . SVG Version: 6.00 Build 0)  -->
<!DOCTYPE svg PUBLIC "-//W3C//DTD SVG 1.1//EN" "http://www.w3.org/Graphics/SVG/1.1/DTD/svg11.dtd">
<svg version="1.1" id="Layer_1" xmlns="http://www.w3.org/2000/svg" xmlns:xlink="http://www.w3.org/1999/xlink" x="0px" y="0px"
	 width="100px" height="100px" viewBox="0 0 100 100" enable-background="new 0 0 100 100" xml:space="preserve">
<g>
	<rect x="28.924" y="46.933" width="42.153" height="2"/>
	<rect x="28.923" y="43.067" width="42.154" height="2"/>
	<rect x="28.924" y="50.934" width="42.153" height="2"/>
	<rect x="28.924" y="54.934" width="42.153" height="2"/>
</g>
<g>
	<path d="M52.612,73.416c-0.06-1.128-0.132-2.482-0.12-3.49h-0.036c-0.275,0.947-0.611,1.955-1.019,3.07l-1.428,3.922h-0.792
		l-1.307-3.85c-0.384-1.14-0.708-2.184-0.936-3.143h-0.024c-0.024,1.008-0.084,2.362-0.156,3.574l-0.216,3.466h-0.995l0.563-8.084
		h1.332l1.379,3.91c0.336,0.995,0.612,1.883,0.815,2.723h0.036c0.204-0.815,0.492-1.703,0.852-2.723l1.439-3.91h1.331l0.504,8.084
		h-1.02L52.612,73.416z"/>
</g>
</svg>
