<?xml version="1.0" encoding="utf-8"?>
<!-- Generator: Adobe Illustrator 16.0.0, SVG Export Plug-In . SVG Version: 6.00 Build 0)  -->
<!DOCTYPE svg PUBLIC "-//W3C//DTD SVG 1.1//EN" "http://www.w3.org/Graphics/SVG/1.1/DTD/svg11.dtd">
<svg version="1.1" id="Layer_1" xmlns="http://www.w3.org/2000/svg" xmlns:xlink="http://www.w3.org/1999/xlink" x="0px" y="0px"
	 width="100px" height="100px" viewBox="0 0 100 100" enable-background="new 0 0 100 100" xml:space="preserve">
<path d="M82.471,33.108c0-4.863-3.957-8.82-8.82-8.82c-0.559,0-1.125,0.057-1.689,0.169c-4.332-5.2-10.646-8.169-17.427-8.169
	c-7.491,0-14.494,3.703-18.732,9.905l0.826,0.564l-0.826-0.564c-1.188,1.738-2.109,3.627-2.771,5.614
	c-4.345,0.198-8.272,2.654-10.344,6.519c-0.958,1.787-1.464,3.807-1.464,5.838c0,6.824,5.551,12.375,12.375,12.375
	c1.818,0,3.621-0.402,5.258-1.17c4.242,4.064,9.781,6.295,15.68,6.295c9.513,0,17.942-5.887,21.249-14.738
	c0.205,0.023,0.404,0.035,0.604,0.035c3.354,0,6.086-2.73,6.086-6.085c0-1.245-0.392-2.456-1.111-3.478
	C82.089,36.09,82.471,34.621,82.471,33.108z"/>
<path d="M61.777,75.436c0-1.271-0.358-2.457-0.971-3.471l2.084-2.085l-2.215-2.215l-2.066,2.065
	c-0.607-0.381-1.279-0.666-1.998-0.838V65.98h-3.133v2.912c-0.719,0.17-1.391,0.457-1.998,0.838l-2.065-2.065L47.2,69.88
	l2.084,2.084c-0.613,1.015-0.973,2.199-0.973,3.472c0,1.312,0.381,2.53,1.029,3.565l-2.14,2.142l2.215,2.215l2.16-2.159
	c0.583,0.353,1.223,0.618,1.903,0.78v3.062h3.133v-3.062c0.683-0.162,1.322-0.429,1.904-0.781l2.159,2.16l2.216-2.215L60.75,79
	C61.398,77.966,61.777,76.746,61.777,75.436z M55.045,78.275c-1.568,0-2.84-1.271-2.84-2.84c0-1.569,1.271-2.842,2.84-2.842
	s2.842,1.272,2.842,2.842C57.887,77.004,56.613,78.275,55.045,78.275z"/>
</svg>
