<?xml version="1.0" encoding="utf-8"?>
<!-- Generator: Adobe Illustrator 16.0.0, SVG Export Plug-In . SVG Version: 6.00 Build 0)  -->
<!DOCTYPE svg PUBLIC "-//W3C//DTD SVG 1.1//EN" "http://www.w3.org/Graphics/SVG/1.1/DTD/svg11.dtd">
<svg version="1.1" id="Layer_1" xmlns="http://www.w3.org/2000/svg" xmlns:xlink="http://www.w3.org/1999/xlink" x="0px" y="0px"
	 width="100px" height="100px" viewBox="0 0 100 100" enable-background="new 0 0 100 100" xml:space="preserve">
<path d="M77.865,42.813c0-4.864-3.957-8.82-8.82-8.82c-0.559,0-1.125,0.057-1.689,0.169c-4.332-5.2-10.646-8.169-17.427-8.169
	c-9.719,0-18.464,6.343-21.524,15.514c-6.553,0.307-11.789,5.735-11.789,12.362c0,6.822,5.551,12.375,12.375,12.375
	c1.818,0,3.621-0.403,5.257-1.171c4.243,4.065,9.782,6.296,15.68,6.296c9.513,0,17.943-5.887,21.249-14.738
	c0.205,0.023,0.404,0.035,0.604,0.035c3.354,0,6.086-2.73,6.086-6.086c0-1.245-0.391-2.456-1.111-3.478
	C77.482,45.794,77.865,44.326,77.865,42.813z"/>
<g>
	<path d="M49.36,77.426h-2.975l-0.3,2.003c0.18-0.024,0.348-0.048,0.636-0.048c0.6,0,1.199,0.132,1.679,0.42
		c0.611,0.348,1.115,1.02,1.115,2.003c0,1.522-1.211,2.662-2.902,2.662c-0.852,0-1.571-0.24-1.943-0.479l0.264-0.804
		c0.324,0.192,0.959,0.432,1.667,0.432c0.996,0,1.847-0.647,1.847-1.691c-0.012-1.007-0.684-1.727-2.243-1.727
		c-0.444,0-0.792,0.048-1.08,0.084l0.504-3.742h3.73V77.426z"/>
</g>
</svg>
