<?xml version="1.0" encoding="utf-8"?>
<!-- Generator: Adobe Illustrator 16.0.0, SVG Export Plug-In . SVG Version: 6.00 Build 0)  -->
<!DOCTYPE svg PUBLIC "-//W3C//DTD SVG 1.1//EN" "http://www.w3.org/Graphics/SVG/1.1/DTD/svg11.dtd">
<svg version="1.1" id="Layer_1" xmlns="http://www.w3.org/2000/svg" xmlns:xlink="http://www.w3.org/1999/xlink" x="0px" y="0px"
	 width="100px" height="100px" viewBox="0 0 100 100" enable-background="new 0 0 100 100" xml:space="preserve">
<g>
	<path d="M62.297,55.768h-2c0-5.678-4.619-10.298-10.297-10.298c-5.678,0-10.298,4.62-10.298,10.298h-2
		c0-6.781,5.517-12.298,12.298-12.298C56.779,43.47,62.297,48.986,62.297,55.768z"/>
</g>
<g>
	<rect x="49" y="33.678" width="2" height="7.403"/>
</g>
<g>
	<rect x="34.012" y="41.468" transform="matrix(-0.7071 -0.7071 0.7071 -0.7071 34.3541 99.166)" width="7.403" height="2"/>
</g>
<g>
	<rect x="61.285" y="38.766" transform="matrix(-0.707 -0.7072 0.7072 -0.707 76.2855 116.5413)" width="2" height="7.403"/>
</g>
<g>
	<rect x="63.673" y="53.755" width="7.403" height="2"/>
</g>
<g>
	<rect x="28.923" y="53.755" width="7.402" height="2"/>
</g>
<g>
	<rect x="37.702" y="58.27" width="24.595" height="2"/>
</g>
<g>
	<rect x="37.702" y="62.428" width="24.595" height="2"/>
</g>
<g>
	<path d="M48.969,74.957L48.129,77.5h-1.08l2.747-8.084h1.259l2.759,8.084h-1.115l-0.864-2.543H48.969z M51.619,74.142l-0.791-2.326
		c-0.18-0.528-0.301-1.008-0.42-1.476h-0.024c-0.12,0.479-0.251,0.972-0.408,1.463l-0.792,2.339H51.619z"/>
</g>
</svg>
