<?xml version="1.0" encoding="utf-8"?>
<!-- Generator: Adobe Illustrator 16.0.0, SVG Export Plug-In . SVG Version: 6.00 Build 0)  -->
<!DOCTYPE svg PUBLIC "-//W3C//DTD SVG 1.1//EN" "http://www.w3.org/Graphics/SVG/1.1/DTD/svg11.dtd">
<svg version="1.1" id="Layer_1" xmlns="http://www.w3.org/2000/svg" xmlns:xlink="http://www.w3.org/1999/xlink" x="0px" y="0px"
	 width="100px" height="100px" viewBox="0 0 100 100" enable-background="new 0 0 100 100" xml:space="preserve">
<g>
	<path d="M49.329,74.305l-0.831,1.238c-0.592,0.883-3.547,5.392-3.547,7.457c0,2.413,1.964,4.377,4.378,4.377
		c2.413,0,4.377-1.964,4.377-4.377c0-2.064-2.954-6.574-3.546-7.457L49.329,74.305z M49.329,85.377
		c-1.311,0-2.378-1.066-2.378-2.377c0-0.864,1.211-3.151,2.378-5.048c1.167,1.896,2.377,4.183,2.377,5.048
		C51.706,84.311,50.64,85.377,49.329,85.377z"/>
	<path d="M77.865,42.813c0-4.864-3.957-8.82-8.82-8.82c-0.559,0-1.125,0.057-1.69,0.169c-4.332-5.2-10.646-8.169-17.427-8.169
		c-9.719,0-18.464,6.343-21.524,15.514c-6.553,0.307-11.789,5.735-11.789,12.362c0,6.823,5.551,12.375,12.375,12.375
		c1.818,0,3.621-0.403,5.257-1.171c4.243,4.065,9.782,6.296,15.68,6.296c9.513,0,17.943-5.887,21.249-14.738
		c0.205,0.023,0.404,0.035,0.603,0.035c3.355,0,6.086-2.73,6.086-6.086c0-1.245-0.391-2.456-1.111-3.478
		C77.483,45.794,77.865,44.326,77.865,42.813z M74.794,47.85c0.691,0.761,1.071,1.731,1.071,2.73c0,2.253-1.833,4.086-4.086,4.086
		c-0.305,0-0.627-0.046-1.014-0.145l-0.903-0.231l-0.293,0.887c-2.807,8.488-10.7,14.192-19.642,14.192
		c-5.602,0-10.849-2.207-14.775-6.214l-0.53-0.54l-0.665,0.363c-1.515,0.828-3.233,1.266-4.968,1.266
		c-5.721,0-10.375-4.654-10.375-10.375c0-5.721,4.653-10.375,10.369-10.375c0,0,0.001,0,0.001,0l0.899,0.007l0.212-0.715
		c2.586-8.709,10.741-14.792,19.831-14.792c6.377,0,12.304,2.881,16.259,7.906l0.411,0.521l0.64-0.176
		c0.607-0.167,1.216-0.251,1.808-0.251c3.761,0,6.82,3.06,6.82,6.82c0,1.362-0.401,2.679-1.16,3.806l-0.437,0.65L74.794,47.85z"/>
</g>
</svg>
