<?xml version="1.0" encoding="utf-8"?>
<!-- Generator: Adobe Illustrator 16.0.0, SVG Export Plug-In . SVG Version: 6.00 Build 0)  -->
<!DOCTYPE svg PUBLIC "-//W3C//DTD SVG 1.1//EN" "http://www.w3.org/Graphics/SVG/1.1/DTD/svg11.dtd">
<svg version="1.1" id="Layer_1" xmlns="http://www.w3.org/2000/svg" xmlns:xlink="http://www.w3.org/1999/xlink" x="0px" y="0px"
	 width="100px" height="100px" viewBox="0 0 100 100" enable-background="new 0 0 100 100" xml:space="preserve">
<g>
	<path d="M52.827,62.714l0.067-0.496c-0.666,0.06-1.336,0.097-2.015,0.097c-1.645,0-3.257-0.19-4.826-0.528l-0.043,0.31
		l-3.252,5.379l3.817,2.644L42.76,80.396l10.865-9.617l-5.433-3.305L52.827,62.714z"/>
	<path d="M78.506,35.946c0-4.864-3.957-8.82-8.82-8.82c-0.559,0-1.125,0.057-1.689,0.169c-4.332-5.2-10.646-8.169-17.428-8.169
		c-9.719,0-18.464,6.343-21.523,15.514c-6.553,0.307-11.789,5.735-11.789,12.363c0,6.823,5.551,12.375,12.375,12.375
		c1.818,0,3.621-0.403,5.257-1.171c2.446,2.344,5.331,4.055,8.461,5.1l0.427-0.707l0.169-1.205
		c-3.043-1.021-5.832-2.737-8.151-5.104l-0.53-0.54l-0.665,0.363c-1.515,0.828-3.233,1.266-4.968,1.266
		c-5.721,0-10.375-4.654-10.375-10.375s4.653-10.375,10.369-10.375h0.001l0.899,0.007l0.212-0.715
		c2.586-8.709,10.741-14.792,19.832-14.792c6.377,0,12.304,2.881,16.259,7.906l0.411,0.521l0.64-0.176
		c0.606-0.167,1.216-0.251,1.808-0.251c3.762,0,6.82,3.06,6.82,6.82c0,1.362-0.4,2.679-1.16,3.806l-0.437,0.65l0.524,0.58
		c0.691,0.761,1.071,1.731,1.071,2.73c0,2.253-1.833,4.086-4.086,4.086c-0.306,0-0.627-0.046-1.015-0.145l-0.902-0.231l-0.292,0.886
		c-2.354,7.119-8.292,12.256-15.42,13.732l-0.29,2.102c7.846-1.371,14.477-6.772,17.316-14.381c0.205,0.023,0.404,0.035,0.604,0.035
		c3.355,0,6.086-2.73,6.086-6.086c0-1.245-0.391-2.456-1.111-3.478C78.124,38.926,78.506,37.458,78.506,35.946z"/>
</g>
<g>
	<path d="M45.704,80.553c0.503-0.084,1.163-0.156,2.003-0.156c1.031,0,1.787,0.24,2.267,0.672c0.444,0.384,0.708,0.972,0.708,1.69
		c0,0.732-0.216,1.308-0.624,1.728c-0.552,0.588-1.451,0.888-2.471,0.888c-0.312,0-0.6-0.013-0.839-0.072v3.238h-1.043V80.553z
		 M46.747,84.45c0.228,0.061,0.516,0.084,0.863,0.084c1.259,0,2.027-0.611,2.027-1.727c0-1.067-0.755-1.584-1.907-1.584
		c-0.456,0-0.804,0.036-0.983,0.084V84.45z"/>
</g>
</svg>
