<?xml version="1.0" encoding="utf-8"?>
<!-- Generator: Adobe Illustrator 16.0.0, SVG Export Plug-In . SVG Version: 6.00 Build 0)  -->
<!DOCTYPE svg PUBLIC "-//W3C//DTD SVG 1.1//EN" "http://www.w3.org/Graphics/SVG/1.1/DTD/svg11.dtd">
<svg version="1.1" id="Layer_1" xmlns="http://www.w3.org/2000/svg" xmlns:xlink="http://www.w3.org/1999/xlink" x="0px" y="0px"
	 width="100px" height="100px" viewBox="0 0 100 100" enable-background="new 0 0 100 100" xml:space="preserve">
<path d="M59.871,59.077c-2.495-1.867-4.125-4.832-4.146-8.179c0.025-3.338,1.654-6.294,4.145-8.159
	c0.568-0.425,1.18-0.793,1.829-1.095c-0.567-0.486-1.181-0.919-1.829-1.297c-1.813-1.052-3.906-1.666-6.148-1.666
	c-6.733,0-12.213,5.44-12.291,12.156h-0.006c0,0.021,0.004,0.041,0.004,0.062c0,0.026-0.004,0.054-0.004,0.081h0.008
	c0.078,6.715,5.558,12.154,12.291,12.154c2.242,0,4.338-0.612,6.147-1.666c0.649-0.377,1.263-0.811,1.83-1.297
	C61.052,59.87,60.438,59.503,59.871,59.077z"/>
</svg>
