<?xml version="1.0" encoding="utf-8"?>
<!-- Generator: Adobe Illustrator 16.0.0, SVG Export Plug-In . SVG Version: 6.00 Build 0)  -->
<!DOCTYPE svg PUBLIC "-//W3C//DTD SVG 1.1//EN" "http://www.w3.org/Graphics/SVG/1.1/DTD/svg11.dtd">
<svg version="1.1" id="Layer_1" xmlns="http://www.w3.org/2000/svg" xmlns:xlink="http://www.w3.org/1999/xlink" x="0px" y="0px"
	 width="100px" height="100px" viewBox="0 0 100 100" enable-background="new 0 0 100 100" xml:space="preserve">
<g>
	<path d="M28.267,46.752h21.771c0.136,0.012,0.266,0.041,0.403,0.041c2.757,0,4.993-2.235,4.993-4.993
		c0-2.758-2.235-4.993-4.993-4.993c-2.758,0-4.993,2.235-4.993,4.993c0,0.958,0.283,1.843,0.751,2.603H28.267h-1.174v2.326h1.063
		C28.194,46.733,28.227,46.752,28.267,46.752z"/>
	<path d="M57,53.229c-0.033-0.002-0.062-0.021-0.098-0.021H29.001c-0.052,0-0.097,0.023-0.148,0.029v-0.029h-1.761v2.361h1.761
		v-0.041c0.051,0.007,0.095,0.029,0.148,0.029h23.583c-0.482,0.769-0.771,1.668-0.771,2.644c0,2.757,2.234,4.993,4.992,4.993
		s4.992-2.235,4.992-4.993C61.797,55.511,59.664,53.332,57,53.229z"/>
	<path d="M67.916,41.222c-2.758,0-4.992,2.235-4.992,4.993c0,0.974,0.289,1.875,0.771,2.643h-35.33c-0.035,0-0.065,0.017-0.099,0.02
		v-0.031h-1.174v2.361h1.174v-0.021c0.034,0.004,0.064,0.021,0.099,0.021h39.648c0.034,0,0.062-0.017,0.098-0.021
		c2.664-0.104,4.797-2.282,4.797-4.973C72.908,43.458,70.674,41.222,67.916,41.222z"/>
	<rect x="27.093" y="40.314" width="12.57" height="2"/>
	<rect x="27.343" y="57.2" width="19.028" height="2"/>
</g>
<g>
	<path d="M40.412,71.416h4.354v0.876h-3.31v2.687h3.058v0.863h-3.058V79.5h-1.043V71.416z"/>
</g>
</svg>
