<?xml version="1.0" encoding="utf-8"?>
<!-- Generator: Adobe Illustrator 16.0.0, SVG Export Plug-In . SVG Version: 6.00 Build 0)  -->
<!DOCTYPE svg PUBLIC "-//W3C//DTD SVG 1.1//EN" "http://www.w3.org/Graphics/SVG/1.1/DTD/svg11.dtd">
<svg version="1.1" id="Layer_1" xmlns="http://www.w3.org/2000/svg" xmlns:xlink="http://www.w3.org/1999/xlink" x="0px" y="0px"
	 width="100px" height="100px" viewBox="0 0 100 100" enable-background="new 0 0 100 100" xml:space="preserve">
<path d="M56.003,59.967c-2.495-1.867-4.125-4.832-4.146-8.179c0.025-3.338,1.654-6.294,4.145-8.159
	c0.568-0.425,1.18-0.793,1.829-1.095c-0.567-0.486-1.181-0.919-1.829-1.297c-1.812-1.052-3.906-1.666-6.149-1.666
	c-6.733,0-12.212,5.44-12.29,12.156h-0.006c0,0.021,0.003,0.041,0.003,0.062c0,0.026-0.004,0.054-0.004,0.081h0.008
	c0.078,6.715,5.558,12.154,12.291,12.154c2.243,0,4.338-0.612,6.148-1.666c0.649-0.377,1.263-0.811,1.83-1.297
	C57.184,60.76,56.57,60.393,56.003,59.967z M49.854,62.023c-5.658,0-10.261-4.586-10.295-10.235
	c0.044-5.641,4.643-10.217,10.293-10.217c1.544,0,3.003,0.352,4.319,0.963c-2.601,2.229-4.269,5.516-4.312,9.192h-0.006
	c0,0.021,0.003,0.041,0.003,0.062c0,0.026-0.004,0.054-0.004,0.081h0.008c0.043,3.677,1.712,6.964,4.313,9.191
	C52.857,61.673,51.398,62.023,49.854,62.023z"/>
<g>
	<path d="M51.727,78.569c-0.383,0.191-1.15,0.384-2.134,0.384c-2.279,0-3.994-1.439-3.994-4.09c0-2.53,1.715-4.246,4.222-4.246
		c1.008,0,1.643,0.216,1.918,0.36l-0.252,0.852c-0.395-0.192-0.959-0.336-1.63-0.336c-1.895,0-3.154,1.211-3.154,3.334
		c0,1.979,1.139,3.25,3.106,3.25c0.636,0,1.284-0.132,1.704-0.336L51.727,78.569z"/>
</g>
</svg>
