<?xml version="1.0" encoding="utf-8"?>
<!-- Generator: Adobe Illustrator 16.0.0, SVG Export Plug-In . SVG Version: 6.00 Build 0)  -->
<!DOCTYPE svg PUBLIC "-//W3C//DTD SVG 1.1//EN" "http://www.w3.org/Graphics/SVG/1.1/DTD/svg11.dtd">
<svg version="1.1" id="Layer_1" xmlns="http://www.w3.org/2000/svg" xmlns:xlink="http://www.w3.org/1999/xlink" x="0px" y="0px"
	 width="100px" height="100px" viewBox="0 0 100 100" enable-background="new 0 0 100 100" xml:space="preserve">
<g>
	<path d="M33.481,48.027l-1.375-2.75h-0.125l0.399,2.75v9.122h-3.248V39.53h2.499l6.622,9.321l1.325,2.674h0.125l-0.4-2.674v-9.196
		h3.249v17.618h-2.499L33.481,48.027z"/>
	<path d="M53.873,39.354l2.449,1.1L47.4,60.646l-2.449-1.149L53.873,39.354z"/>
	<path d="M65.868,53.275h-5.373l-1.323,3.873h-3.425l6.298-17.619h2.523l6.298,17.619h-3.599L65.868,53.275z M61.37,50.525h3.749
		l-1.3-3.898l-0.524-2.749H63.17l-0.525,2.774L61.37,50.525z"/>
</g>
</svg>
