<?xml version="1.0" encoding="utf-8"?>
<!-- Generator: Adobe Illustrator 16.0.0, SVG Export Plug-In . SVG Version: 6.00 Build 0)  -->
<!DOCTYPE svg PUBLIC "-//W3C//DTD SVG 1.1//EN" "http://www.w3.org/Graphics/SVG/1.1/DTD/svg11.dtd">
<svg version="1.1" id="Layer_1" xmlns="http://www.w3.org/2000/svg" xmlns:xlink="http://www.w3.org/1999/xlink" x="0px" y="0px"
	 width="100px" height="100px" viewBox="0 0 100 100" enable-background="new 0 0 100 100" xml:space="preserve">
<g>
	<path d="M52.827,66.714l0.068-0.496c-0.666,0.059-1.337,0.097-2.015,0.097c-1.645,0-3.257-0.191-4.826-0.529l-0.043,0.31
		l-3.252,5.378l3.817,2.644l-3.816,10.278l10.865-9.617l-5.433-3.305L52.827,66.714z"/>
	<path d="M78.506,39.946c0-4.864-3.957-8.82-8.82-8.82c-0.559,0-1.125,0.057-1.69,0.169c-4.332-5.2-10.646-8.169-17.427-8.169
		c-9.72,0-18.465,6.343-21.524,15.514c-6.553,0.307-11.789,5.735-11.789,12.363c0,6.823,5.551,12.375,12.375,12.375
		c1.818,0,3.621-0.403,5.257-1.171c2.446,2.344,5.331,4.055,8.461,5.099l0.427-0.706l0.169-1.205
		c-3.043-1.022-5.832-2.738-8.151-5.105l-0.53-0.54l-0.665,0.363c-1.515,0.828-3.233,1.266-4.968,1.266
		c-5.721,0-10.375-4.654-10.375-10.375c0-5.721,4.653-10.375,10.369-10.375c0,0,0.001,0,0.001,0l0.899,0.007l0.212-0.715
		c2.586-8.709,10.741-14.792,19.831-14.792c6.377,0,12.304,2.881,16.259,7.906l0.411,0.521l0.64-0.176
		c0.607-0.167,1.216-0.251,1.808-0.251c3.761,0,6.82,3.06,6.82,6.82c0,1.362-0.401,2.679-1.16,3.806l-0.437,0.65l0.525,0.58
		c0.691,0.761,1.071,1.731,1.071,2.73c0,2.253-1.833,4.086-4.086,4.086c-0.305,0-0.627-0.046-1.014-0.145l-0.903-0.231L70.21,52.31
		c-2.354,7.119-8.292,12.256-15.42,13.733l-0.29,2.102c7.846-1.371,14.477-6.773,17.317-14.381c0.205,0.023,0.404,0.035,0.603,0.035
		c3.355,0,6.086-2.73,6.086-6.086c0-1.245-0.391-2.456-1.111-3.478C78.124,42.926,78.506,41.458,78.506,39.946z"/>
</g>
</svg>
