<?xml version="1.0" encoding="utf-8"?>
<!-- Generator: Adobe Illustrator 16.0.0, SVG Export Plug-In . SVG Version: 6.00 Build 0)  -->
<!DOCTYPE svg PUBLIC "-//W3C//DTD SVG 1.1//EN" "http://www.w3.org/Graphics/SVG/1.1/DTD/svg11.dtd">
<svg version="1.1" id="Layer_1" xmlns="http://www.w3.org/2000/svg" xmlns:xlink="http://www.w3.org/1999/xlink" x="0px" y="0px"
	 width="100px" height="100px" viewBox="0 0 100 100" enable-background="new 0 0 100 100" xml:space="preserve">
<path d="M82.471,33.108c0-4.863-3.957-8.82-8.82-8.82c-0.559,0-1.125,0.057-1.69,0.169c-4.332-5.2-10.646-8.169-17.427-8.169
	c-7.491,0-14.494,3.703-18.732,9.905l0.826,0.564l-0.826-0.564c-1.188,1.738-2.109,3.627-2.771,5.614
	c-4.345,0.198-8.272,2.654-10.344,6.519c-0.958,1.787-1.464,3.807-1.464,5.838c0,6.824,5.551,12.375,12.375,12.375
	c1.818,0,3.621-0.402,5.258-1.17c4.242,4.064,9.781,6.295,15.68,6.295c9.513,0,17.943-5.887,21.249-14.738
	c0.205,0.023,0.404,0.035,0.603,0.035c3.355,0,6.086-2.73,6.086-6.085c0-1.245-0.391-2.456-1.111-3.478
	C82.089,36.09,82.471,34.621,82.471,33.108z M79.399,38.146c0.691,0.762,1.071,1.731,1.071,2.73c0,2.253-1.833,4.085-4.086,4.085
	c-0.305,0-0.627-0.045-1.014-0.145l-0.903-0.23l-0.293,0.887c-2.807,8.488-10.7,14.191-19.642,14.191
	c-5.602,0-10.849-2.207-14.775-6.213l-0.529-0.541l-0.664,0.363c-1.515,0.828-3.233,1.266-4.969,1.266
	c-5.721,0-10.375-4.654-10.375-10.375c0-1.703,0.424-3.396,1.227-4.893c1.813-3.382,5.317-5.482,9.142-5.482c0,0,0.001,0,0.002,0
	c0.051,0.004,0.101,0.008,0.153,0.008l0.731-0.086l0.281-0.786l-1.011-0.291v-0.019l1.011,0.31c0.559-1.827,1.38-3.559,2.421-5.167
	h0.168v-0.267c0.037-0.055,0.068-0.114,0.106-0.168c3.866-5.657,10.251-9.034,17.081-9.034c6.377,0,12.304,2.881,16.259,7.906
	l0.411,0.521l0.64-0.176c0.607-0.167,1.216-0.251,1.808-0.251c3.761,0,6.82,3.06,6.82,6.82c0,1.363-0.401,2.68-1.16,3.807
	l-0.437,0.65L79.399,38.146z"/>
<g>
	<path d="M37.327,69.749c-2.495,0-4.524-2.029-4.524-4.524s2.029-4.524,4.524-4.524s4.524,2.029,4.524,4.524
		S39.821,69.749,37.327,69.749z M37.327,62.7c-1.392,0-2.524,1.133-2.524,2.524s1.132,2.524,2.524,2.524s2.524-1.133,2.524-2.524
		S38.718,62.7,37.327,62.7z"/>
</g>
<g>
	<path d="M44.376,83.553c-2.495,0-4.524-2.029-4.524-4.524c0-2.494,2.03-4.523,4.524-4.523s4.524,2.029,4.524,4.523
		C48.9,81.523,46.871,83.553,44.376,83.553z M44.376,76.505c-1.392,0-2.524,1.132-2.524,2.523s1.132,2.524,2.524,2.524
		c1.392,0,2.524-1.133,2.524-2.524S45.768,76.505,44.376,76.505z"/>
</g>
<g>
	<path d="M54.948,73.273c-2.495,0-4.524-2.029-4.524-4.524c0-2.494,2.029-4.523,4.524-4.523c2.494,0,4.523,2.029,4.523,4.523
		C59.472,71.244,57.442,73.273,54.948,73.273z M54.948,66.226c-1.392,0-2.524,1.132-2.524,2.523s1.133,2.524,2.524,2.524
		s2.523-1.133,2.523-2.524S56.34,66.226,54.948,66.226z"/>
</g>
<g>
	<path d="M72.765,69.749c-2.494,0-4.523-2.029-4.523-4.524s2.029-4.524,4.523-4.524s4.523,2.029,4.523,4.524
		S75.259,69.749,72.765,69.749z M72.765,62.7c-1.392,0-2.523,1.133-2.523,2.524s1.132,2.524,2.523,2.524s2.523-1.133,2.523-2.524
		S74.156,62.7,72.765,62.7z"/>
</g>
<g>
	<path d="M65.716,83.553c-2.494,0-4.523-2.029-4.523-4.524c0-2.494,2.029-4.523,4.523-4.523s4.523,2.029,4.523,4.523
		C70.239,81.523,68.21,83.553,65.716,83.553z M65.716,76.505c-1.392,0-2.523,1.132-2.523,2.523s1.132,2.524,2.523,2.524
		s2.523-1.133,2.523-2.524S67.107,76.505,65.716,76.505z"/>
</g>
</svg>
