<?xml version="1.0" encoding="utf-8"?>
<!-- Generator: Adobe Illustrator 16.0.0, SVG Export Plug-In . SVG Version: 6.00 Build 0)  -->
<!DOCTYPE svg PUBLIC "-//W3C//DTD SVG 1.1//EN" "http://www.w3.org/Graphics/SVG/1.1/DTD/svg11.dtd">
<svg version="1.1" id="Layer_1" xmlns="http://www.w3.org/2000/svg" xmlns:xlink="http://www.w3.org/1999/xlink" x="0px" y="0px"
	 width="100px" height="100px" viewBox="0 0 100 100" enable-background="new 0 0 100 100" xml:space="preserve">
<path d="M81.911,33.854c-3.085,0.443-6.334-0.5-8.715-2.852c-2.341-2.379-3.28-5.62-2.838-8.7c0.101-0.703,0.273-1.395,0.519-2.068
	c-0.745,0.058-1.483,0.185-2.21,0.376c-2.025,0.537-3.941,1.585-5.526,3.17c-1.724,1.724-2.818,3.837-3.302,6.058
	c-2.858-1.272-5.984-1.955-9.22-1.955c-9.719,0-18.464,6.343-21.524,15.513c-6.553,0.307-11.789,5.735-11.789,12.363
	c0,6.823,5.551,12.375,12.375,12.375c1.818,0,3.621-0.403,5.257-1.171c4.243,4.065,9.782,6.296,15.68,6.296
	c9.513,0,17.943-5.887,21.249-14.738c0.205,0.023,0.404,0.035,0.603,0.035c3.355,0,6.086-2.73,6.086-6.086
	c0-1.245-0.391-2.455-1.111-3.478c0.729-1.308,1.111-2.777,1.111-4.29c0-0.673-0.083-1.327-0.227-1.957
	c0.745-0.473,1.453-1.026,2.103-1.676c1.586-1.585,2.634-3.501,3.17-5.525c0.192-0.728,0.319-1.466,0.377-2.211
	C83.306,33.581,82.613,33.752,81.911,33.854z M75.485,49.741c0.691,0.761,1.071,1.731,1.071,2.73c0,2.253-1.833,4.086-4.086,4.086
	c-0.305,0-0.627-0.046-1.014-0.145l-0.903-0.231l-0.293,0.887c-2.807,8.488-10.7,14.192-19.642,14.192
	c-5.602,0-10.849-2.207-14.775-6.214l-0.53-0.54l-0.665,0.363c-1.515,0.828-3.233,1.266-4.968,1.266
	c-5.721,0-10.375-4.654-10.375-10.375c0-5.721,4.653-10.375,10.369-10.375c0,0,0.001,0,0.001,0l0.899,0.007l0.212-0.715
	c2.586-8.709,10.741-14.792,19.831-14.792c3.157,0,6.202,0.708,8.954,2.031c0.686,0.329,1.352,0.697,1.998,1.102
	c1.999,1.252,3.797,2.855,5.307,4.772l0.411,0.521l0.64-0.176c0.607-0.167,1.216-0.251,1.808-0.251c2.716,0,5.06,1.6,6.155,3.902
	c0.286,0.602,0.486,1.25,0.585,1.932c0.048,0.323,0.08,0.65,0.08,0.986c0,1.363-0.401,2.68-1.16,3.807l-0.437,0.65L75.485,49.741z
	 M79.019,39.656c-0.433,0.432-0.898,0.809-1.383,1.148c-1.442-2.91-4.438-4.92-7.899-4.92c-0.559,0-1.125,0.057-1.69,0.169
	c-1.808-2.169-3.963-3.944-6.35-5.283c0.34-2.042,1.286-4.002,2.858-5.575c1.092-1.092,2.373-1.875,3.735-2.374
	c-0.264,3.415,0.882,6.918,3.451,9.549l-0.005,0.004c0.016,0.015,0.031,0.027,0.046,0.041c0.02,0.02,0.035,0.041,0.055,0.06
	l0.006-0.005c2.63,2.569,6.135,3.714,9.549,3.451C80.894,37.284,80.11,38.565,79.019,39.656z"/>
</svg>
