<?xml version="1.0" encoding="utf-8"?>
<!-- Generator: Adobe Illustrator 16.0.0, SVG Export Plug-In . SVG Version: 6.00 Build 0)  -->
<!DOCTYPE svg PUBLIC "-//W3C//DTD SVG 1.1//EN" "http://www.w3.org/Graphics/SVG/1.1/DTD/svg11.dtd">
<svg version="1.1" id="Layer_1" xmlns="http://www.w3.org/2000/svg" xmlns:xlink="http://www.w3.org/1999/xlink" x="0px" y="0px"
	 width="100px" height="100px" viewBox="0 0 100 100" enable-background="new 0 0 100 100" xml:space="preserve">
<g>
	<path d="M43.675,38.938c-1.295,0-2.35,1.056-2.35,2.35c0,1.296,1.055,2.35,2.35,2.35s2.35-1.054,2.35-2.35
		C46.025,39.993,44.97,38.938,43.675,38.938z"/>
	<path d="M50,20c-16.568,0-30,13.432-30,30s13.432,30,30,30s30-13.432,30-30S66.568,20,50,20z M43.675,45.986
		c-2.592,0-4.699-2.105-4.699-4.698c0-2.591,2.107-4.699,4.699-4.699s4.7,2.108,4.7,4.699C48.375,43.88,46.267,45.986,43.675,45.986
		z M61.553,48.019h-7.228v4.498h6.656v3.172h-6.656v7.358h-3.562v-18.2h10.79V48.019z"/>
</g>
</svg>
