<?xml version="1.0" encoding="utf-8"?>
<!-- Generator: Adobe Illustrator 16.0.0, SVG Export Plug-In . SVG Version: 6.00 Build 0)  -->
<!DOCTYPE svg PUBLIC "-//W3C//DTD SVG 1.1//EN" "http://www.w3.org/Graphics/SVG/1.1/DTD/svg11.dtd">
<svg version="1.1" id="Layer_1" xmlns="http://www.w3.org/2000/svg" xmlns:xlink="http://www.w3.org/1999/xlink" x="0px" y="0px"
	 width="100px" height="100px" viewBox="0 0 100 100" enable-background="new 0 0 100 100" xml:space="preserve">
<g>
	<path d="M37.417,69.077c-5.836,0-10.583-4.747-10.583-10.583c0-0.625,0.06-1.259,0.177-1.894
		c-4.491-1.869-7.449-6.248-7.449-11.164c0-2.569,0.828-5.078,2.344-7.146c-1.031-1.582-1.572-3.397-1.572-5.296
		c0-5.376,4.374-9.75,9.75-9.75c1.083,0,2.144,0.178,3.164,0.531c2.503-3.792,6.771-6.115,11.335-6.115
		c5.844,0,10.938,3.687,12.817,9.115c2.521-1.379,5.338-2.102,8.223-2.102c9.484,0,17.202,7.717,17.202,17.202
		c0,9.485-7.718,17.202-17.202,17.202c-1.537,0-3.1-0.219-4.641-0.65c-0.088-0.008-0.164,0.017-0.2,0.086
		c-2.119,3.93-6.204,6.369-10.659,6.369c-1.304,0-2.588-0.211-3.828-0.627C44.351,67.25,41.024,69.077,37.417,69.077z
		 M30.083,25.244c-4.273,0-7.75,3.477-7.75,7.75c0,1.715,0.557,3.346,1.611,4.716l0.49,0.636l-0.516,0.616
		c-1.52,1.815-2.357,4.115-2.357,6.475c0,4.357,2.786,8.211,6.933,9.586l0.899,0.298l-0.249,0.914
		c-0.207,0.759-0.312,1.52-0.312,2.26c0,4.731,3.851,8.583,8.583,8.583c3.165,0,6.063-1.734,7.564-4.525l0.429-0.799l0.836,0.35
		c1.245,0.518,2.549,0.779,3.877,0.779c3.72,0,7.129-2.037,8.898-5.318c0.476-0.881,1.541-1.334,2.502-1.063
		c1.365,0.384,2.744,0.577,4.1,0.577c8.383,0,15.202-6.818,15.202-15.202c0-8.382-6.819-15.202-15.202-15.202
		c-2.939,0-5.801,0.851-8.271,2.46l-1.188,0.773l-0.332-1.377c-1.256-5.222-5.882-8.869-11.249-8.869
		c-4.14,0-7.993,2.241-10.056,5.849l-0.45,0.788l-0.828-0.372C32.242,25.473,31.176,25.244,30.083,25.244z"/>
</g>
<g>
	<path d="M50.7,83.649v0.6h-5.997v-0.6H50.7z"/>
	<path d="M51.614,82.75v-8.084h1.14l2.591,4.09c0.6,0.948,1.067,1.8,1.451,2.627l0.023-0.012c-0.096-1.08-0.119-2.063-0.119-3.322
		v-3.383h0.983v8.084h-1.056l-2.566-4.102c-0.563-0.899-1.104-1.823-1.512-2.698l-0.036,0.012c0.061,1.02,0.084,1.991,0.084,3.334
		v3.454H51.614z"/>
</g>
</svg>
