<?xml version="1.0" encoding="utf-8"?>
<!-- Generator: Adobe Illustrator 16.0.0, SVG Export Plug-In . SVG Version: 6.00 Build 0)  -->
<!DOCTYPE svg PUBLIC "-//W3C//DTD SVG 1.1//EN" "http://www.w3.org/Graphics/SVG/1.1/DTD/svg11.dtd">
<svg version="1.1" id="Layer_1" xmlns="http://www.w3.org/2000/svg" xmlns:xlink="http://www.w3.org/1999/xlink" x="0px" y="0px"
	 width="100px" height="100px" viewBox="0 0 100 100" enable-background="new 0 0 100 100" xml:space="preserve">
<g>
	<g>
		<path d="M50,78.459c-15.692,0-28.459-12.767-28.459-28.46C21.541,34.307,34.308,21.54,50,21.54
			c15.693,0,28.46,12.767,28.46,28.459C78.46,65.692,65.693,78.459,50,78.459z M50,23.54c-14.589,0-26.459,11.87-26.459,26.459
			c0,14.59,11.87,26.46,26.459,26.46c14.59,0,26.46-11.87,26.46-26.46C76.46,35.41,64.59,23.54,50,23.54z"/>
	</g>
</g>
<g>
	<g>
		<path d="M38.249,61.502l7.543-15.69l15.909-7.162L54.48,53.388L38.249,61.502z M47.278,47.336l-4.693,9.762l10.396-5.196
			l4.483-9.151L47.278,47.336z"/>
	</g>
</g>
</svg>
