<?xml version="1.0" encoding="utf-8"?>
<!-- Generator: Adobe Illustrator 16.0.0, SVG Export Plug-In . SVG Version: 6.00 Build 0)  -->
<!DOCTYPE svg PUBLIC "-//W3C//DTD SVG 1.1//EN" "http://www.w3.org/Graphics/SVG/1.1/DTD/svg11.dtd">
<svg version="1.1" id="Layer_1" xmlns="http://www.w3.org/2000/svg" xmlns:xlink="http://www.w3.org/1999/xlink" x="0px" y="0px"
	 width="100px" height="100px" viewBox="0 0 100 100" enable-background="new 0 0 100 100" xml:space="preserve">
<path d="M82.471,27.108c0-4.863-3.957-8.82-8.82-8.82c-0.559,0-1.125,0.057-1.689,0.169c-4.332-5.2-10.646-8.169-17.427-8.169
	c-7.491,0-14.494,3.703-18.732,9.905l0.826,0.564l-0.826-0.564c-1.188,1.738-2.109,3.627-2.771,5.614
	c-4.345,0.198-8.272,2.654-10.344,6.519c-0.958,1.787-1.464,3.807-1.464,5.838c0,6.824,5.551,12.375,12.375,12.375
	c1.818,0,3.621-0.402,5.258-1.17c4.242,4.064,9.781,6.295,15.68,6.295c9.513,0,17.942-5.887,21.249-14.738
	c0.205,0.023,0.404,0.035,0.604,0.035c3.354,0,6.086-2.73,6.086-6.085c0-1.245-0.392-2.456-1.111-3.478
	C82.089,30.09,82.471,28.621,82.471,27.108z M79.398,32.146c0.691,0.762,1.072,1.731,1.072,2.73c0,2.253-1.834,4.085-4.087,4.085
	c-0.305,0-0.627-0.045-1.014-0.145l-0.903-0.23l-0.293,0.887c-2.807,8.488-10.699,14.191-19.642,14.191
	c-5.602,0-10.849-2.207-14.775-6.213l-0.529-0.541l-0.664,0.363c-1.515,0.828-3.233,1.266-4.969,1.266
	c-5.721,0-10.375-4.654-10.375-10.375c0-1.703,0.424-3.396,1.227-4.893c1.813-3.382,5.317-5.482,9.142-5.482c0,0,0.001,0,0.002,0
	c0.051,0.004,0.101,0.008,0.153,0.008l0.731-0.086l0.281-0.786l-1.011-0.291v-0.019l1.011,0.31c0.559-1.827,1.38-3.559,2.421-5.167
	h0.168v-0.267c0.037-0.055,0.068-0.114,0.106-0.168c3.866-5.657,10.251-9.034,17.081-9.034c6.377,0,12.304,2.881,16.259,7.906
	l0.411,0.521l0.64-0.176c0.607-0.167,1.217-0.251,1.809-0.251c3.761,0,6.82,3.06,6.82,6.82c0,1.363-0.402,2.68-1.16,3.807
	l-0.438,0.65L79.398,32.146z"/>
<path d="M61.777,69.436c0-1.271-0.358-2.457-0.971-3.471l2.084-2.085l-2.215-2.215l-2.066,2.065
	c-0.607-0.381-1.279-0.666-1.998-0.838V59.98h-3.133v2.912c-0.719,0.17-1.391,0.457-1.998,0.838l-2.065-2.065L47.2,63.88
	l2.084,2.084c-0.613,1.015-0.973,2.199-0.973,3.472c0,1.312,0.381,2.53,1.029,3.565l-2.14,2.142l2.215,2.215l2.16-2.159
	c0.583,0.353,1.223,0.618,1.903,0.78v3.062h3.133v-3.062c0.683-0.162,1.322-0.429,1.904-0.781l2.159,2.16l2.216-2.215L60.75,73
	C61.398,71.966,61.777,70.746,61.777,69.436z M55.045,72.275c-1.568,0-2.84-1.271-2.84-2.84c0-1.569,1.271-2.842,2.84-2.842
	s2.842,1.272,2.842,2.842C57.887,71.004,56.613,72.275,55.045,72.275z"/>
<path d="M43.277,62.189c0-1.271-0.359-2.457-0.971-3.471l2.084-2.085l-2.215-2.215l-2.066,2.065
	c-0.608-0.381-1.28-0.666-1.999-0.838v-2.912h-3.132v2.912c-0.719,0.17-1.391,0.457-1.999,0.838l-2.065-2.065l-2.215,2.215
	l2.084,2.084c-0.613,1.015-0.973,2.199-0.973,3.472c0,1.312,0.381,2.53,1.029,3.565l-2.141,2.142l2.215,2.215l2.16-2.159
	c0.583,0.353,1.223,0.618,1.904,0.78v3.062h3.132v-3.062c0.683-0.162,1.322-0.428,1.905-0.781l2.159,2.16l2.216-2.215l-2.142-2.143
	C42.897,64.721,43.277,63.501,43.277,62.189z M36.543,65.03c-1.568,0-2.84-1.271-2.84-2.841c0-1.568,1.271-2.84,2.84-2.84
	s2.841,1.271,2.841,2.84C39.384,63.759,38.113,65.03,36.543,65.03z"/>
<path d="M79.833,62.189c0-1.271-0.358-2.457-0.972-3.471l2.084-2.085l-2.215-2.215l-2.065,2.065
	c-0.608-0.381-1.28-0.666-1.999-0.838v-2.912h-3.132v2.912c-0.72,0.17-1.392,0.457-1.999,0.838l-2.064-2.064l-2.216,2.215
	l2.084,2.084c-0.612,1.016-0.973,2.199-0.973,3.473c0,1.312,0.381,2.529,1.028,3.564l-2.141,2.141l2.215,2.215l2.16-2.158
	c0.583,0.354,1.223,0.617,1.904,0.779v3.063h3.132v-3.063c0.683-0.162,1.321-0.428,1.905-0.78l2.158,2.159l2.217-2.215l-2.143-2.142
	C79.453,64.721,79.833,63.501,79.833,62.189z M73.1,65.03c-1.567,0-2.84-1.271-2.84-2.841c0-1.568,1.271-2.84,2.84-2.84
	c1.569,0,2.842,1.271,2.842,2.84C75.941,63.759,74.669,65.03,73.1,65.03z"/>
<g>
	<path d="M52.162,93l-2.052-8.084h1.104l0.96,4.09c0.239,1.008,0.455,2.016,0.6,2.795h0.023c0.133-0.804,0.384-1.763,0.66-2.807
		l1.079-4.078h1.091l0.984,4.103c0.228,0.959,0.443,1.919,0.563,2.771h0.024c0.168-0.888,0.395-1.787,0.646-2.795l1.068-4.078h1.066
		L57.69,93H56.6l-1.02-4.21c-0.252-1.031-0.42-1.822-0.528-2.639h-0.024c-0.144,0.804-0.323,1.596-0.623,2.639L53.253,93H52.162z"/>
</g>
</svg>
