<?xml version="1.0" encoding="utf-8"?>
<!-- Generator: Adobe Illustrator 16.0.0, SVG Export Plug-In . SVG Version: 6.00 Build 0)  -->
<!DOCTYPE svg PUBLIC "-//W3C//DTD SVG 1.1//EN" "http://www.w3.org/Graphics/SVG/1.1/DTD/svg11.dtd">
<svg version="1.1" id="Layer_1" xmlns="http://www.w3.org/2000/svg" xmlns:xlink="http://www.w3.org/1999/xlink" x="0px" y="0px"
	 width="100px" height="100px" viewBox="0 0 100 100" enable-background="new 0 0 100 100" xml:space="preserve">
<path d="M61.246,51.375c0-2.337-0.66-4.515-1.785-6.379l3.831-3.831l-4.071-4.071l-3.798,3.797c-1.116-0.7-2.353-1.225-3.673-1.54
	V34h-5.757v5.35c-1.32,0.315-2.556,0.84-3.674,1.541l-3.796-3.796l-4.071,4.071l3.83,3.83c-1.126,1.865-1.786,4.043-1.786,6.38
	c0,2.41,0.7,4.651,1.891,6.554l-3.934,3.935l4.071,4.069l3.968-3.968c1.073,0.647,2.249,1.136,3.501,1.435v5.629h5.757V63.4
	c1.253-0.299,2.43-0.786,3.501-1.436l3.97,3.971l4.07-4.071l-3.936-3.937C60.547,56.025,61.246,53.784,61.246,51.375z
	 M48.872,56.596c-2.883,0-5.221-2.338-5.221-5.221s2.337-5.221,5.221-5.221c2.884,0,5.22,2.337,5.22,5.221
	C54.092,54.258,51.755,56.596,48.872,56.596z"/>
<g>
	<path d="M52.047,83.697c-0.469,0.168-1.392,0.443-2.483,0.443c-1.223,0-2.231-0.312-3.022-1.067
		c-0.696-0.672-1.127-1.751-1.127-3.011c0.012-2.41,1.667-4.174,4.378-4.174c0.935,0,1.667,0.204,2.015,0.372l-0.252,0.852
		c-0.432-0.191-0.971-0.348-1.787-0.348c-1.967,0-3.25,1.224-3.25,3.25c0,2.051,1.235,3.263,3.118,3.263
		c0.684,0,1.151-0.097,1.392-0.216V80.65h-1.644v-0.84h2.663V83.697z"/>
</g>
</svg>
