<?xml version="1.0" encoding="utf-8"?>
<!-- Generator: Adobe Illustrator 16.0.0, SVG Export Plug-In . SVG Version: 6.00 Build 0)  -->
<!DOCTYPE svg PUBLIC "-//W3C//DTD SVG 1.1//EN" "http://www.w3.org/Graphics/SVG/1.1/DTD/svg11.dtd">
<svg version="1.1" id="Layer_1" xmlns="http://www.w3.org/2000/svg" xmlns:xlink="http://www.w3.org/1999/xlink" x="0px" y="0px"
	 width="100px" height="100px" viewBox="0 0 100 100" enable-background="new 0 0 100 100" xml:space="preserve">
<g>
	<g>
		<path d="M42.881,77.492c0.4,0.039,0.721,0.02,1.32,0c0.938-0.061,1.877-0.318,2.556-0.799c0.858-0.58,1.418-1.438,1.637-2.416
			l-0.04-0.02c-0.579,0.598-1.438,0.938-2.615,0.938c-2.197,0-4.033-1.518-4.033-4.053s2.035-4.674,4.891-4.674
			c3.336,0,4.912,2.557,4.912,5.592c0,2.717-0.857,4.674-2.275,5.992c-1.239,1.117-2.955,1.717-4.973,1.795
			c-0.5,0.041-1.039,0.021-1.379,0V77.492z M44.719,70.963c0,1.117,0.62,2.076,1.838,2.076c0.838,0,1.418-0.379,1.697-0.84
			c0.1-0.199,0.14-0.396,0.14-0.777c0.02-1.377-0.499-2.736-1.917-2.736C45.458,68.686,44.719,69.604,44.719,70.963z"/>
	</g>
	<g>
		<path d="M34.471,31.775h-14.23c-0.195,0-0.352-0.525-0.352-1.174s0.156-1.176,0.352-1.176h14.23c0.193,0,0.352,0.527,0.352,1.176
			S34.665,31.775,34.471,31.775z"/>
	</g>
	<g>
		<path d="M33.874,38.824H16.706c-0.234,0-0.425-0.525-0.425-1.174s0.19-1.176,0.425-1.176h17.168c0.233,0,0.424,0.527,0.424,1.176
			S34.107,38.824,33.874,38.824z"/>
	</g>
	<g>
		<path d="M33.958,46.166h-13.73c-0.187,0-0.338-0.525-0.338-1.174s0.151-1.176,0.338-1.176h13.73c0.188,0,0.34,0.527,0.34,1.176
			S34.145,46.166,33.958,46.166z"/>
	</g>
	<path d="M68.958,21.152c-2.173,0-4.312,0.549-6.213,1.594c-1.559-1.031-3.418-1.594-5.284-1.594c-3.931,0-7.416,2.373-8.862,5.965
		c-0.691-0.156-1.398-0.236-2.109-0.236c-5.275,0-9.566,4.293-9.566,9.566c0,5.275,4.291,9.566,9.566,9.566
		c1.207,0,2.418-0.234,3.542-0.684c1.549,3.342,4.949,5.541,8.671,5.541c3.148,0,6.043-1.514,7.834-4.074
		c0.809,0.156,1.621,0.236,2.422,0.236c7.135,0,12.939-5.807,12.939-12.941S76.092,21.152,68.958,21.152z"/>
</g>
</svg>
