<?xml version="1.0" encoding="utf-8"?>
<!-- Generator: Adobe Illustrator 16.0.0, SVG Export Plug-In . SVG Version: 6.00 Build 0)  -->
<!DOCTYPE svg PUBLIC "-//W3C//DTD SVG 1.1//EN" "http://www.w3.org/Graphics/SVG/1.1/DTD/svg11.dtd">
<svg version="1.1" id="Layer_1" xmlns="http://www.w3.org/2000/svg" xmlns:xlink="http://www.w3.org/1999/xlink" x="0px" y="0px"
	 width="100px" height="100px" viewBox="0 0 100 100" enable-background="new 0 0 100 100" xml:space="preserve">
<g>
	<circle cx="32.066" cy="67.126" r="3.524"/>
	<circle cx="39.115" cy="80.93" r="3.524"/>
	<circle cx="49.687" cy="70.651" r="3.524"/>
	<circle cx="67.504" cy="67.126" r="3.524"/>
	<circle cx="60.455" cy="80.93" r="3.524"/>
	<g>
		<path d="M52.142,60.266c-5.649,0-10.625-3.513-12.576-8.707c-1.832,0.896-3.839,1.365-5.884,1.365
			c-7.417,0-13.451-6.035-13.451-13.452c0-7.418,6.034-13.452,13.451-13.452c1.3,0,2.58,0.186,3.82,0.556
			c1.802-5.486,6.877-9.216,12.763-9.216c2.854,0,5.639,0.914,7.934,2.592c2.861-1.698,6.108-2.592,9.442-2.592
			c10.229,0,18.552,8.322,18.552,18.552S77.87,54.462,67.641,54.462c-1.365,0-2.746-0.159-4.119-0.476
			C61.065,57.882,56.786,60.266,52.142,60.266z M40.253,48.656c0.147,0,0.294,0.027,0.435,0.084c0.35,0.139,0.612,0.437,0.704,0.803
			c1.248,4.931,5.668,8.374,10.75,8.374c4.088,0,7.835-2.239,9.779-5.844c0.261-0.483,0.821-0.723,1.351-0.573
			c1.455,0.407,2.925,0.614,4.369,0.614c8.934,0,16.202-7.268,16.202-16.202s-7.268-16.202-16.202-16.202
			c-3.158,0-6.226,0.918-8.872,2.655c-0.433,0.284-1,0.252-1.397-0.08c-1.991-1.661-4.515-2.575-7.106-2.575
			c-5.221,0-9.67,3.557-10.82,8.648c-0.076,0.338-0.296,0.624-0.603,0.783c-0.306,0.16-0.667,0.177-0.986,0.048
			c-1.336-0.544-2.741-0.819-4.174-0.819c-6.121,0-11.102,4.979-11.102,11.103c0,6.121,4.981,11.103,11.102,11.103
			c2.101,0,4.155-0.601,5.941-1.735C39.814,48.717,40.033,48.656,40.253,48.656z"/>
	</g>
</g>
</svg>
