<?xml version="1.0" encoding="utf-8"?>
<!-- Generator: Adobe Illustrator 16.0.0, SVG Export Plug-In . SVG Version: 6.00 Build 0)  -->
<!DOCTYPE svg PUBLIC "-//W3C//DTD SVG 1.1//EN" "http://www.w3.org/Graphics/SVG/1.1/DTD/svg11.dtd">
<svg version="1.1" id="Layer_1" xmlns="http://www.w3.org/2000/svg" xmlns:xlink="http://www.w3.org/1999/xlink" x="0px" y="0px"
	 width="100px" height="100px" viewBox="0 0 100 100" enable-background="new 0 0 100 100" xml:space="preserve">
<path d="M90.813,41.065c0.014-0.502-0.292-0.956-0.764-1.133c-0.468-0.175-1-0.033-1.319,0.355c-1.795,2.188-4.444,3.443-7.27,3.443
	c-5.182,0-9.398-4.215-9.398-9.397c0-2.608,1.053-5.036,2.963-6.835c0.366-0.345,0.473-0.884,0.265-1.34
	c-0.208-0.459-0.682-0.734-1.183-0.684c-7.521,0.729-13.251,6.762-13.707,14.211c-2.022-1.199-4.378-1.881-6.884-1.881
	c-0.119,0-0.237,0.012-0.356,0.015c-0.97,0.026-1.929,0.15-2.862,0.38c-1.692,0.419-3.298,1.161-4.715,2.197
	c-2.861-1.698-6.107-2.592-9.442-2.592c-10.229,0-18.552,8.322-18.552,18.553c0,10.229,8.323,18.55,18.552,18.55
	c1.365,0,2.746-0.159,4.119-0.475c2.457,3.895,6.736,6.278,11.38,6.278c5.649,0,10.625-3.512,12.576-8.706
	c1.831,0.896,3.839,1.364,5.884,1.364c7.417,0,13.452-6.034,13.452-13.452c0-2-0.447-3.893-1.233-5.598
	C87.239,51.916,90.649,46.948,90.813,41.065z M81.149,52.278c-2.055-2.955-5.259-5.055-8.966-5.635
	c-0.681-0.105-1.373-0.178-2.083-0.178c-0.123,0-0.244,0.01-0.367,0.013c-1.174,0.032-2.331,0.209-3.454,0.544
	c-0.713-2.173-1.945-4.063-3.533-5.563c-0.017-0.272-0.042-0.543-0.042-0.821c0-5.594,3.518-10.375,8.564-12.151
	c-1.016,1.758-1.557,3.755-1.557,5.847c0,6.479,5.27,11.747,11.748,11.747c2.367,0,4.636-0.704,6.55-1.992
	C87.017,47.735,84.482,50.697,81.149,52.278z"/>
</svg>
