<?xml version="1.0" encoding="utf-8"?>
<!-- Generator: Adobe Illustrator 16.0.0, SVG Export Plug-In . SVG Version: 6.00 Build 0)  -->
<!DOCTYPE svg PUBLIC "-//W3C//DTD SVG 1.1//EN" "http://www.w3.org/Graphics/SVG/1.1/DTD/svg11.dtd">
<svg version="1.1" id="Layer_1" xmlns="http://www.w3.org/2000/svg" xmlns:xlink="http://www.w3.org/1999/xlink" x="0px" y="0px"
	 width="100px" height="100px" viewBox="0 0 100 100" enable-background="new 0 0 100 100" xml:space="preserve">
<g>
	<g>
		<path d="M36.439,50.083c-2.592,0-4.699-2.105-4.699-4.698c0-2.591,2.107-4.699,4.699-4.699s4.699,2.108,4.699,4.699
			C41.139,47.977,39.031,50.083,36.439,50.083z M36.439,43.035c-1.295,0-2.35,1.056-2.35,2.35c0,1.296,1.055,2.35,2.35,2.35
			s2.35-1.054,2.35-2.35C38.789,44.09,37.734,43.035,36.439,43.035z"/>
	</g>
	<g>
		<path d="M57.406,61.215c-0.781,0.376-2.635,0.84-4.979,0.84c-6.746,0-10.221-4.227-10.221-9.784
			c0-6.658,4.748-10.336,10.654-10.336c2.287,0,4.023,0.434,4.805,0.869l-0.926,3.475c-0.869-0.376-2.113-0.725-3.705-0.725
			c-3.475,0-6.195,2.114-6.195,6.456c0,3.907,2.316,6.369,6.225,6.369c1.359,0,2.807-0.262,3.705-0.638L57.406,61.215z"/>
	</g>
</g>
</svg>
