<?xml version="1.0" encoding="utf-8"?>
<!-- Generator: Adobe Illustrator 16.0.0, SVG Export Plug-In . SVG Version: 6.00 Build 0)  -->
<!DOCTYPE svg PUBLIC "-//W3C//DTD SVG 1.1//EN" "http://www.w3.org/Graphics/SVG/1.1/DTD/svg11.dtd">
<svg version="1.1" id="Layer_1" xmlns="http://www.w3.org/2000/svg" xmlns:xlink="http://www.w3.org/1999/xlink" x="0px" y="0px"
	 width="100px" height="100px" viewBox="0 0 100 100" enable-background="new 0 0 100 100" xml:space="preserve">
<path d="M78.376,26.593c0-7.136-5.805-12.94-12.94-12.94c-2.172,0-4.311,0.55-6.213,1.594c-1.558-1.031-3.418-1.594-5.284-1.594
	c-3.931,0-7.416,2.372-8.862,5.965c-0.691-0.156-1.398-0.236-2.109-0.236c-5.275,0-9.566,4.293-9.566,9.568
	c0,0.807,0.112,1.587,0.301,2.336c-1.825,1.561-3.232,3.617-4.018,6.009c-1.24-0.37-2.52-0.557-3.82-0.557
	c-7.417,0-13.452,6.034-13.452,13.452c0,4.666,2.389,8.78,6.005,11.194c2.134,1.424,4.694,2.258,7.446,2.258
	c2.044,0,4.052-0.468,5.884-1.364c0.106,0.283,0.226,0.559,0.349,0.832c1.478,3.252,4.177,5.747,7.456,6.993
	c0.199,0.075,0.406,0.136,0.61,0.202l-3.433,5.861l3.818,2.643l-3.818,10.279l10.866-9.618l-5.433-3.304l5.433-5.615l-0.002-0.007
	c2.556-0.643,4.866-2.01,6.646-3.96c0.533-0.583,1.035-1.199,1.464-1.879c0.321,0.073,0.644,0.11,0.965,0.167
	c1.053,0.185,2.108,0.308,3.154,0.308c10.229,0,18.551-8.321,18.551-18.55c0-4.134-1.375-7.942-3.669-11.029
	C76.974,33.27,78.376,30.094,78.376,26.593z"/>
</svg>
