<?xml version="1.0" encoding="utf-8"?>
<!-- Generator: Adobe Illustrator 16.0.0, SVG Export Plug-In . SVG Version: 6.00 Build 0)  -->
<!DOCTYPE svg PUBLIC "-//W3C//DTD SVG 1.1//EN" "http://www.w3.org/Graphics/SVG/1.1/DTD/svg11.dtd">
<svg version="1.1" id="Layer_1" xmlns="http://www.w3.org/2000/svg" xmlns:xlink="http://www.w3.org/1999/xlink" x="0px" y="0px"
	 width="100px" height="100px" viewBox="0 0 100 100" enable-background="new 0 0 100 100" xml:space="preserve">
<g>
	<g>
		<path d="M40.278,95.334v-1.896c-1.339-0.062-2.635-0.439-3.395-0.859l0.599-2.337c0.839,0.46,2.017,0.879,3.315,0.879
			c1.157,0,1.937-0.459,1.937-1.238c0-0.758-0.64-1.237-2.136-1.736c-2.138-0.719-3.596-1.717-3.596-3.654
			c0-1.777,1.238-3.156,3.375-3.555V79.04h1.957v1.756c1.316,0.041,2.217,0.34,2.915,0.66l-0.599,2.256
			c-0.499-0.239-1.438-0.699-2.877-0.699c-1.297,0-1.715,0.58-1.715,1.139c0,0.639,0.697,1.079,2.416,1.697
			c2.375,0.839,3.313,1.937,3.313,3.754c0,1.777-1.237,3.296-3.534,3.674v2.058H40.278z"/>
	</g>
	<circle cx="27.24" cy="55.455" r="3.524"/>
	<circle cx="34.289" cy="69.259" r="3.524"/>
	<circle cx="44.861" cy="58.98" r="3.524"/>
	<circle cx="62.678" cy="55.455" r="3.524"/>
	<circle cx="55.629" cy="69.259" r="3.524"/>
	<g>
		<path d="M47.315,48.596c-5.649,0-10.625-3.512-12.575-8.707c-1.831,0.896-3.839,1.365-5.884,1.365
			c-7.418,0-13.452-6.035-13.452-13.453S21.438,14.35,28.856,14.35c1.3,0,2.58,0.187,3.82,0.556
			c1.801-5.487,6.877-9.216,12.762-9.216c2.854,0,5.639,0.915,7.934,2.591c2.861-1.698,6.107-2.591,9.443-2.591
			c10.229,0,18.551,8.322,18.551,18.551c0,10.229-8.322,18.553-18.551,18.553c-1.365,0-2.747-0.16-4.119-0.477
			C56.239,46.211,51.96,48.596,47.315,48.596z"/>
	</g>
</g>
</svg>
