<?xml version="1.0" encoding="utf-8"?>
<!-- Generator: Adobe Illustrator 16.0.0, SVG Export Plug-In . SVG Version: 6.00 Build 0)  -->
<!DOCTYPE svg PUBLIC "-//W3C//DTD SVG 1.1//EN" "http://www.w3.org/Graphics/SVG/1.1/DTD/svg11.dtd">
<svg version="1.1" id="Layer_1" xmlns="http://www.w3.org/2000/svg" xmlns:xlink="http://www.w3.org/1999/xlink" x="0px" y="0px"
	 width="100px" height="100px" viewBox="0 0 100 100" enable-background="new 0 0 100 100" xml:space="preserve">
<g>
	<g>
		<path d="M45.644,80.792c0,2.717-1.716,4.154-3.593,4.154c-1.978,0-3.536-1.479-3.536-3.934c0-2.316,1.418-4.074,3.656-4.074
			C44.387,76.938,45.644,78.577,45.644,80.792z M40.772,80.952c-0.02,1.357,0.459,2.336,1.338,2.336
			c0.858,0,1.278-0.879,1.278-2.355c0-1.318-0.36-2.338-1.318-2.338C41.173,78.595,40.772,79.634,40.772,80.952z M42.19,90.356
			l7.468-13.396h1.618l-7.449,13.396H42.19z M54.989,86.185c0,2.695-1.717,4.133-3.594,4.133c-1.957,0-3.515-1.479-3.515-3.914
			c0-2.316,1.418-4.074,3.635-4.074C53.731,82.329,54.989,83.968,54.989,86.185z M50.138,86.323c-0.02,1.357,0.46,2.338,1.318,2.338
			c0.857,0,1.277-0.879,1.277-2.338c0-1.318-0.359-2.336-1.299-2.336C50.537,83.987,50.138,85.026,50.138,86.323z"/>
	</g>
	<path d="M82.021,23.606c0-7.135-5.805-12.939-12.939-12.939c-2.173,0-4.312,0.549-6.213,1.594
		c-1.559-1.031-3.418-1.594-5.284-1.594c-3.931,0-7.415,2.373-8.862,5.965c-0.69-0.156-1.398-0.236-2.109-0.236
		c-5.275,0-9.566,4.293-9.566,9.566c0,0.695,0.079,1.373,0.221,2.025c-2.592,1.625-4.601,4.123-5.6,7.166
		c-1.24-0.369-2.52-0.557-3.82-0.557c-7.417,0-13.451,6.035-13.451,13.453s6.034,13.451,13.451,13.451
		c2.045,0,4.053-0.467,5.885-1.363c1.95,5.193,6.926,8.705,12.575,8.705c4.644,0,8.924-2.383,11.38-6.277
		c1.373,0.314,2.754,0.475,4.119,0.475c10.229,0,18.552-8.322,18.552-18.551c0-3.965-1.261-7.633-3.386-10.65
		C80.037,31.47,82.021,27.771,82.021,23.606z"/>
</g>
</svg>
