<?xml version="1.0" encoding="utf-8"?>
<!-- Generator: Adobe Illustrator 16.0.0, SVG Export Plug-In . SVG Version: 6.00 Build 0)  -->
<!DOCTYPE svg PUBLIC "-//W3C//DTD SVG 1.1//EN" "http://www.w3.org/Graphics/SVG/1.1/DTD/svg11.dtd">
<svg version="1.1" id="Layer_1" xmlns="http://www.w3.org/2000/svg" xmlns:xlink="http://www.w3.org/1999/xlink" x="0px" y="0px"
	 width="100px" height="100px" viewBox="0 0 100 100" enable-background="new 0 0 100 100" xml:space="preserve">
<g>
	<g>
		<path d="M43.601,87.559c0.619-1.957,1.498-3.893,2.396-5.41l1.837-0.16c-0.599,1.697-1.118,3.635-1.397,5.391L43.601,87.559z
			 M47.515,87.559c0.619-1.957,1.478-3.893,2.396-5.41l1.837-0.16c-0.619,1.697-1.118,3.635-1.397,5.391L47.515,87.559z"/>
	</g>
	<path d="M54.816,72.115l-1.604-1.273c0.347-0.746,0.545-1.574,0.545-2.449c0-0.848-0.185-1.65-0.51-2.377l1.639-1.363
		c0.678-0.564,0.771-1.572,0.206-2.25c-0.565-0.68-1.572-0.771-2.25-0.209l-1.64,1.365c-0.516-0.354-1.091-0.623-1.707-0.799v-2.145
		c0-0.883-0.716-1.598-1.599-1.598S46.3,59.732,46.3,60.615v2.145c-0.59,0.168-1.142,0.424-1.64,0.752l-1.695-1.346
		c-0.691-0.549-1.696-0.432-2.245,0.26c-0.548,0.689-0.434,1.695,0.258,2.244l1.604,1.273c-0.346,0.746-0.544,1.574-0.544,2.449
		c0,0.686,0.125,1.342,0.343,1.955l-1.7,1.414c-0.678,0.564-0.771,1.572-0.206,2.25c0.315,0.381,0.77,0.576,1.229,0.576
		c0.361,0,0.723-0.121,1.021-0.369l1.513-1.26c0.603,0.484,1.301,0.85,2.063,1.064v2.145c0,0.883,0.714,1.598,1.597,1.598
		s1.599-0.715,1.599-1.598v-2.145c0.588-0.166,1.141-0.42,1.639-0.752l1.696,1.348c0.294,0.232,0.644,0.346,0.991,0.346
		c0.471,0,0.938-0.207,1.254-0.605C55.623,73.67,55.508,72.664,54.816,72.115z M45.851,70.074c-0.059-0.123-0.127-0.244-0.219-0.355
		c-0.02-0.023-0.044-0.041-0.065-0.064c-0.205-0.377-0.333-0.803-0.333-1.262c0-0.604,0.21-1.154,0.55-1.602
		c0.067-0.061,0.136-0.121,0.193-0.193c0.03-0.039,0.051-0.08,0.076-0.119c0.479-0.461,1.128-0.75,1.844-0.75
		c1.47,0,2.664,1.195,2.664,2.664c0,0.586-0.196,1.125-0.519,1.564c-0.081,0.068-0.157,0.145-0.225,0.23
		c-0.03,0.039-0.05,0.08-0.076,0.119c-0.479,0.461-1.128,0.75-1.845,0.75C47.069,71.057,46.339,70.668,45.851,70.074z"/>
	<g>
		<path d="M47.667,56.371c-5.649,0-10.624-3.512-12.575-8.705c-1.832,0.895-3.839,1.363-5.884,1.363
			c-7.418,0-13.452-6.035-13.452-13.451c0-7.418,6.034-13.453,13.452-13.453c1.3,0,2.58,0.188,3.82,0.557
			c1.802-5.486,6.877-9.217,12.763-9.217c2.854,0,5.638,0.916,7.933,2.592c2.861-1.697,6.108-2.592,9.443-2.592
			c10.229,0,18.551,8.322,18.551,18.553c0,10.229-8.322,18.551-18.551,18.551c-1.365,0-2.747-0.16-4.119-0.477
			C56.591,53.988,52.312,56.371,47.667,56.371z"/>
	</g>
</g>
</svg>
