<?xml version="1.0" encoding="utf-8"?>
<!-- Generator: Adobe Illustrator 16.0.0, SVG Export Plug-In . SVG Version: 6.00 Build 0)  -->
<!DOCTYPE svg PUBLIC "-//W3C//DTD SVG 1.1//EN" "http://www.w3.org/Graphics/SVG/1.1/DTD/svg11.dtd">
<svg version="1.1" id="Layer_1" xmlns="http://www.w3.org/2000/svg" xmlns:xlink="http://www.w3.org/1999/xlink" x="0px" y="0px"
	 width="100px" height="100px" viewBox="0 0 100 100" enable-background="new 0 0 100 100" xml:space="preserve">
<g>
	<path d="M52.665,74.544c-5.649,0-10.625-3.511-12.576-8.706c-1.832,0.896-3.839,1.364-5.884,1.364
		c-7.417,0-13.452-6.034-13.452-13.452s6.035-13.452,13.452-13.452c1.3,0,2.58,0.188,3.82,0.557
		c1.802-5.487,6.877-9.217,12.763-9.217c2.854,0,5.639,0.915,7.934,2.592c2.861-1.698,6.107-2.592,9.442-2.592
		c10.229,0,18.552,8.323,18.552,18.553c0,10.229-8.322,18.55-18.552,18.55c-1.365,0-2.746-0.159-4.119-0.475
		C61.588,72.16,57.309,74.544,52.665,74.544z"/>
</g>
</svg>
