<?xml version="1.0" encoding="utf-8"?>
<!-- Generator: Adobe Illustrator 16.0.0, SVG Export Plug-In . SVG Version: 6.00 Build 0)  -->
<!DOCTYPE svg PUBLIC "-//W3C//DTD SVG 1.1//EN" "http://www.w3.org/Graphics/SVG/1.1/DTD/svg11.dtd">
<svg version="1.1" id="Layer_1" xmlns="http://www.w3.org/2000/svg" xmlns:xlink="http://www.w3.org/1999/xlink" x="0px" y="0px"
	 width="100px" height="100px" viewBox="0 0 100 100" enable-background="new 0 0 100 100" xml:space="preserve">
<g>
	<path d="M59.059,68.979l-1.773-1.407c0.383-0.825,0.602-1.74,0.602-2.708c0-0.936-0.204-1.822-0.563-2.627l1.811-1.507
		c0.749-0.623,0.851-1.736,0.228-2.485c-0.625-0.751-1.737-0.854-2.487-0.229l-1.812,1.507c-0.57-0.391-1.207-0.688-1.887-0.883
		V56.27c0-0.977-0.791-1.766-1.766-1.766s-1.766,0.789-1.766,1.766v2.369c-0.651,0.186-1.261,0.468-1.811,0.832l-1.875-1.487
		c-0.763-0.605-1.874-0.479-2.48,0.285c-0.606,0.765-0.479,1.875,0.285,2.48l1.772,1.406c-0.382,0.826-0.601,1.742-0.601,2.708
		c0,0.759,0.138,1.484,0.378,2.161l-1.879,1.563c-0.749,0.624-0.851,1.739-0.228,2.487c0.349,0.421,0.851,0.638,1.358,0.638
		c0.399,0,0.799-0.134,1.129-0.409l1.672-1.39c0.665,0.532,1.437,0.937,2.28,1.175v2.37c0,0.975,0.79,1.766,1.766,1.766
		s1.766-0.791,1.766-1.766v-2.37c0.65-0.185,1.261-0.465,1.811-0.831l1.875,1.488c0.325,0.258,0.711,0.382,1.096,0.382
		c0.52,0,1.036-0.229,1.385-0.668C59.95,70.696,59.822,69.584,59.059,68.979z M49.149,66.724c-0.064-0.138-0.14-0.271-0.241-0.393
		c-0.022-0.027-0.05-0.048-0.073-0.073c-0.227-0.415-0.368-0.887-0.368-1.395c0-0.668,0.231-1.276,0.607-1.771
		c0.075-0.066,0.15-0.132,0.214-0.213c0.034-0.042,0.056-0.089,0.084-0.132c0.53-0.51,1.247-0.828,2.038-0.828
		c1.624,0,2.944,1.321,2.944,2.943c0,0.647-0.217,1.244-0.573,1.729c-0.089,0.076-0.173,0.161-0.248,0.255
		c-0.034,0.041-0.056,0.088-0.084,0.131c-0.53,0.511-1.247,0.828-2.039,0.828C50.496,67.807,49.688,67.38,49.149,66.724z"/>
	<path d="M68.301,26.59c-3.335,0-6.582,0.893-9.442,2.591c-2.295-1.677-5.08-2.591-7.934-2.591c-5.885,0-10.961,3.729-12.763,9.216
		c-1.24-0.37-2.52-0.557-3.82-0.557c-7.417,0-13.452,6.034-13.452,13.452s6.034,13.452,13.452,13.452
		c2.045,0,4.053-0.468,5.884-1.364c0.129,0.345,0.429-2.866,0.429-2.866c-0.129,0.028-0.256,0.073-0.372,0.146
		c-1.786,1.136-3.84,1.735-5.941,1.735c-6.122,0-11.102-4.981-11.102-11.103s4.98-11.103,11.102-11.103
		c1.434,0,2.837,0.275,4.174,0.819c0.319,0.131,0.68,0.113,0.986-0.047c0.306-0.16,0.526-0.447,0.603-0.783
		c1.149-5.092,5.599-8.648,10.82-8.648c2.591,0,5.115,0.914,7.106,2.574c0.397,0.332,0.964,0.363,1.397,0.08
		c2.646-1.736,5.714-2.654,8.873-2.654c8.934,0,16.202,7.268,16.202,16.201s-7.268,16.203-16.202,16.203
		c-1.444,0-2.915-0.208-4.369-0.615c-0.53-0.149-1.09,0.091-1.351,0.573c-0.322,0.597-0.71,1.142-1.124,1.659v3.348
		c1.044-0.881,1.978-1.906,2.725-3.092c1.373,0.315,2.754,0.477,4.119,0.477c10.229,0,18.552-8.323,18.552-18.553
		C86.853,34.913,78.53,26.59,68.301,26.59z"/>
</g>
</svg>
