<?xml version="1.0" encoding="utf-8"?>
<!-- Generator: Adobe Illustrator 16.0.0, SVG Export Plug-In . SVG Version: 6.00 Build 0)  -->
<!DOCTYPE svg PUBLIC "-//W3C//DTD SVG 1.1//EN" "http://www.w3.org/Graphics/SVG/1.1/DTD/svg11.dtd">
<svg version="1.1" id="Layer_1" xmlns="http://www.w3.org/2000/svg" xmlns:xlink="http://www.w3.org/1999/xlink" x="0px" y="0px"
	 width="100px" height="100px" viewBox="0 0 100 100" enable-background="new 0 0 100 100" xml:space="preserve">
<g>
	<g>
		<path d="M30.401,35.546h21.77c0.135,0.011,0.266,0.041,0.403,0.041c2.758,0,4.993-2.235,4.993-4.993
			c0-2.757-2.235-4.993-4.993-4.993c-2.757,0-4.993,2.236-4.993,4.993c0,0.958,0.284,1.843,0.751,2.603H30.401
			c-0.648,0-1.175,0.525-1.175,1.175S29.752,35.546,30.401,35.546z"/>
		<path d="M59.133,47.606c-0.034-0.002-0.064-0.02-0.098-0.02h-27.9c-0.648,0-1.176,0.525-1.176,1.175s0.527,1.175,1.176,1.175
			h23.582c-0.482,0.768-0.772,1.669-0.772,2.643c0,2.758,2.235,4.993,4.993,4.993c2.756,0,4.992-2.235,4.992-4.993
			C63.93,49.89,61.797,47.712,59.133,47.606z"/>
		<path d="M75.041,38.188c0-2.758-2.234-4.992-4.993-4.992c-2.756,0-4.992,2.234-4.992,4.992c0,0.975,0.291,1.875,0.773,2.644H30.5
			c-0.649,0-1.175,0.526-1.175,1.175c0,0.649,0.525,1.175,1.175,1.175h39.647c0.034,0,0.064-0.017,0.099-0.019
			C72.909,43.057,75.041,40.879,75.041,38.188z"/>
	</g>
	<g>
		<path d="M45.876,69.116h8.207v2.498h-5.171v3.074h4.832v2.477h-4.832v5.41h-3.036V69.116z"/>
	</g>
</g>
</svg>
