<?xml version="1.0" encoding="utf-8"?>
<!-- Generator: Adobe Illustrator 16.0.0, SVG Export Plug-In . SVG Version: 6.00 Build 0)  -->
<!DOCTYPE svg PUBLIC "-//W3C//DTD SVG 1.1//EN" "http://www.w3.org/Graphics/SVG/1.1/DTD/svg11.dtd">
<svg version="1.1" id="Layer_1" xmlns="http://www.w3.org/2000/svg" xmlns:xlink="http://www.w3.org/1999/xlink" x="0px" y="0px"
	 width="100px" height="100px" viewBox="0 0 100 100" enable-background="new 0 0 100 100" xml:space="preserve">
<g>
	<g>
		<path d="M37.249,48.855h-14.23c-0.193,0-0.352-0.526-0.352-1.175s0.158-1.175,0.352-1.175h14.23c0.195,0,0.352,0.526,0.352,1.175
			S37.444,48.855,37.249,48.855z"/>
	</g>
	<g>
		<path d="M36.651,55.904H19.483c-0.233,0-0.424-0.527-0.424-1.175c0-0.648,0.19-1.175,0.424-1.175h17.168
			c0.234,0,0.424,0.526,0.424,1.175C37.075,55.376,36.886,55.904,36.651,55.904z"/>
	</g>
	<g>
		<path d="M36.737,63.246h-13.73c-0.188,0-0.34-0.526-0.34-1.175s0.152-1.175,0.34-1.175h13.73c0.187,0,0.338,0.526,0.338,1.175
			S36.924,63.246,36.737,63.246z"/>
	</g>
	<path d="M71.735,38.231c-2.172,0-4.311,0.551-6.213,1.595c-1.558-1.031-3.418-1.595-5.283-1.595c-3.931,0-7.416,2.372-8.861,5.965
		c-0.691-0.155-1.398-0.236-2.11-0.236c-5.274,0-9.565,4.293-9.565,9.568c0,5.274,4.291,9.565,9.565,9.565
		c1.206,0,2.418-0.236,3.542-0.686c1.549,3.342,4.949,5.543,8.672,5.543c3.146,0,6.042-1.515,7.833-4.075
		c0.81,0.156,1.621,0.236,2.421,0.236c7.136,0,12.94-5.805,12.94-12.94S78.871,38.231,71.735,38.231z"/>
</g>
</svg>
