<?xml version="1.0" encoding="utf-8"?>
<!-- Generator: Adobe Illustrator 16.0.0, SVG Export Plug-In . SVG Version: 6.00 Build 0)  -->
<!DOCTYPE svg PUBLIC "-//W3C//DTD SVG 1.1//EN" "http://www.w3.org/Graphics/SVG/1.1/DTD/svg11.dtd">
<svg version="1.1" id="Layer_1" xmlns="http://www.w3.org/2000/svg" xmlns:xlink="http://www.w3.org/1999/xlink" x="0px" y="0px"
	 width="100px" height="100px" viewBox="0 0 100 100" enable-background="new 0 0 100 100" xml:space="preserve">
<g>
	<g>
		<path d="M49.183,79.885c0.939-0.162,2.257-0.281,4.114-0.281c1.877,0,3.214,0.359,4.114,1.078c0.879,0.68,1.438,1.797,1.438,3.115
			s-0.419,2.456-1.238,3.195c-1.039,0.959-2.576,1.418-4.373,1.418c-0.399,0-0.76-0.021-1.039-0.081v4.833h-3.016V79.885z
			 M52.198,85.993c0.26,0.06,0.56,0.08,1.019,0.08c1.617,0,2.616-0.819,2.616-2.177c0-1.238-0.859-1.977-2.396-1.977
			c-0.599,0-1.018,0.039-1.238,0.1V85.993z"/>
	</g>
	<g>
		<path d="M55.546,55.809l0.335-2.435c-0.741,0.112-1.492,0.19-2.259,0.19c-0.945,0-3.61-0.889-4.517-1.06l-0.376,2.686
			l-3.252,5.378l3.818,2.643L45.478,73.49l10.866-9.618l-5.433-3.304L55.546,55.809z"/>
		<path d="M69.102,13.35c-3.335,0-6.581,0.894-9.442,2.592c-2.295-1.678-5.08-2.592-7.934-2.592c-5.885,0-10.961,3.729-12.764,9.217
			c-1.239-0.371-2.52-0.557-3.819-0.557c-7.417,0-13.452,6.034-13.452,13.451c0,7.418,6.035,13.453,13.452,13.453
			c2.045,0,4.052-0.469,5.884-1.364c0.988,2.633,2.758,4.829,4.996,6.357v-3.019c-1.505-1.412-2.635-3.242-3.17-5.356
			c-0.092-0.366-0.354-0.664-0.704-0.804c-0.14-0.056-0.288-0.083-0.435-0.083c-0.22,0-0.439,0.062-0.63,0.184
			c-1.786,1.136-3.841,1.735-5.941,1.735c-6.122,0-11.103-4.98-11.103-11.104c0-6.121,4.98-11.102,11.103-11.102
			c1.433,0,2.837,0.275,4.174,0.818c0.319,0.131,0.681,0.113,0.987-0.047c0.305-0.159,0.525-0.445,0.602-0.782
			c1.149-5.093,5.6-8.649,10.82-8.649c2.592,0,5.115,0.914,7.105,2.575c0.397,0.331,0.965,0.364,1.398,0.08
			c2.646-1.737,5.714-2.655,8.872-2.655c8.934,0,16.202,7.268,16.202,16.202c0,8.934-7.269,16.202-16.202,16.202
			c-1.444,0-2.915-0.207-4.369-0.615c-0.53-0.148-1.091,0.091-1.352,0.574c-1.198,2.223-3.09,3.904-5.317,4.881v2.512
			c2.825-0.988,5.281-2.883,6.919-5.479c1.372,0.316,2.754,0.477,4.119,0.477c10.229,0,18.552-8.322,18.552-18.552
			S79.331,13.35,69.102,13.35z"/>
	</g>
</g>
</svg>
