<?xml version="1.0" encoding="utf-8"?>
<!-- Generator: Adobe Illustrator 16.0.0, SVG Export Plug-In . SVG Version: 6.00 Build 0)  -->
<!DOCTYPE svg PUBLIC "-//W3C//DTD SVG 1.1//EN" "http://www.w3.org/Graphics/SVG/1.1/DTD/svg11.dtd">
<svg version="1.1" id="Layer_1" xmlns="http://www.w3.org/2000/svg" xmlns:xlink="http://www.w3.org/1999/xlink" x="0px" y="0px"
	 width="100px" height="100px" viewBox="0 0 100 100" enable-background="new 0 0 100 100" xml:space="preserve">
<g>
	<g>
		<path d="M33.98,45.757c0.648,0,1.174-0.525,1.174-1.175c0-5.182,4.217-9.398,9.398-9.398s9.398,4.216,9.398,9.398
			c0,0.649,0.525,1.175,1.174,1.175s1.176-0.525,1.176-1.175c0-6.478-5.27-11.748-11.748-11.748s-11.748,5.27-11.748,11.748
			C32.805,45.231,33.332,45.757,33.98,45.757z"/>
		<path d="M44.553,30.714c0.648,0,1.174-0.526,1.174-1.175v-6.461c0-0.649-0.525-1.175-1.174-1.175s-1.174,0.525-1.174,1.175v6.461
			C43.379,30.188,43.904,30.714,44.553,30.714z"/>
		<path d="M33.326,34.955c0.459-0.458,0.459-1.202,0-1.661l-4.584-4.585c-0.459-0.459-1.203-0.459-1.662,0s-0.459,1.202,0,1.661
			l4.584,4.585c0.23,0.229,0.531,0.344,0.832,0.344S33.098,35.184,33.326,34.955z"/>
		<path d="M61.635,28.708c-0.459-0.459-1.203-0.459-1.662,0l-3.857,3.859c-0.459,0.458-0.459,1.202,0,1.661
			c0.229,0.229,0.529,0.343,0.83,0.343s0.602-0.114,0.83-0.343l3.859-3.859C62.094,29.911,62.094,29.167,61.635,28.708z"/>
		<path d="M55.867,47.551H33.238c-0.648,0-1.176,0.526-1.176,1.175s0.527,1.175,1.176,1.175h22.629c0.648,0,1.176-0.526,1.176-1.175
			S56.516,47.551,55.867,47.551z"/>
		<path d="M53.07,54.796H36.035c-0.648,0-1.174,0.526-1.174,1.175c0,0.648,0.525,1.175,1.174,1.175H53.07
			c0.648,0,1.174-0.526,1.174-1.175C54.244,55.322,53.719,54.796,53.07,54.796z"/>
	</g>
	<g>
		<path d="M39.941,77.381l-0.957,3.455H35.85l4.092-13.459h3.994l4.193,13.459h-3.295l-1.037-3.455H39.941z M43.357,75.105
			l-0.84-2.856c-0.238-0.799-0.479-1.797-0.678-2.596h-0.041C41.6,70.453,41.4,71.471,41.18,72.25l-0.799,2.856H43.357z"/>
	</g>
</g>
</svg>
