<?xml version="1.0" encoding="utf-8"?>
<!-- Generator: Adobe Illustrator 16.0.0, SVG Export Plug-In . SVG Version: 6.00 Build 0)  -->
<!DOCTYPE svg PUBLIC "-//W3C//DTD SVG 1.1//EN" "http://www.w3.org/Graphics/SVG/1.1/DTD/svg11.dtd">
<svg version="1.1" id="Layer_1" xmlns="http://www.w3.org/2000/svg" xmlns:xlink="http://www.w3.org/1999/xlink" x="0px" y="0px"
	 width="100px" height="100px" viewBox="0 0 100 100" enable-background="new 0 0 100 100" xml:space="preserve">
<g>
	<g>
		<path d="M56.722,78.822H51.69l-0.279,1.998c0.279-0.041,0.519-0.041,0.838-0.041c1.238,0,2.516,0.279,3.415,0.939
			c0.979,0.658,1.577,1.736,1.577,3.254c0,2.417-2.077,4.553-5.571,4.553c-1.577,0-2.896-0.358-3.614-0.738l0.559-2.277
			c0.56,0.281,1.738,0.641,2.916,0.641c1.258,0,2.596-0.6,2.596-1.977c0-1.34-1.059-2.158-3.654-2.158
			c-0.719,0-1.218,0.04-1.736,0.121l0.838-6.811h7.148V78.822z"/>
	</g>
	<g>
		<path d="M56.171,63.282c-5.649,0-10.624-3.513-12.575-8.706c-1.832,0.895-3.84,1.363-5.885,1.363
			c-7.417,0-13.451-6.034-13.451-13.451c0-7.418,6.034-13.453,13.451-13.453c1.301,0,2.58,0.188,3.82,0.557
			c1.803-5.486,6.878-9.216,12.764-9.216c2.854,0,5.638,0.915,7.934,2.592c2.86-1.698,6.107-2.592,9.441-2.592
			c10.229,0,18.553,8.321,18.553,18.552c0,10.229-8.323,18.551-18.553,18.551c-1.365,0-2.746-0.159-4.118-0.476
			C65.095,60.898,60.814,63.282,56.171,63.282z"/>
	</g>
</g>
</svg>
