<?xml version="1.0" encoding="utf-8"?>
<!-- Generator: Adobe Illustrator 16.0.0, SVG Export Plug-In . SVG Version: 6.00 Build 0)  -->
<!DOCTYPE svg PUBLIC "-//W3C//DTD SVG 1.1//EN" "http://www.w3.org/Graphics/SVG/1.1/DTD/svg11.dtd">
<svg version="1.1" id="Layer_1" xmlns="http://www.w3.org/2000/svg" xmlns:xlink="http://www.w3.org/1999/xlink" x="0px" y="0px"
	 width="100px" height="100px" viewBox="0 0 100 100" enable-background="new 0 0 100 100" xml:space="preserve">
<g>
	<g>
		<path d="M54.924,81.627v7.728c0,2.337,0.898,3.515,2.436,3.515c1.598,0,2.477-1.118,2.477-3.515v-7.728h3.035v7.548
			c0,4.153-2.098,6.13-5.611,6.13c-3.395,0-5.371-1.896-5.371-6.169v-7.509H54.924z"/>
	</g>
	<path d="M56.732,69.858l-1.604-1.273c0.346-0.747,0.545-1.575,0.545-2.45c0-0.847-0.186-1.649-0.51-2.376l1.639-1.364
		c0.678-0.563,0.77-1.571,0.207-2.251c-0.566-0.678-1.572-0.77-2.252-0.207l-1.639,1.365c-0.516-0.354-1.092-0.623-1.707-0.799
		v-2.145c0-0.883-0.715-1.598-1.598-1.598s-1.598,0.715-1.598,1.598v2.145c-0.59,0.168-1.141,0.422-1.639,0.752l-1.697-1.346
		c-0.691-0.549-1.695-0.433-2.244,0.259c-0.549,0.69-0.434,1.696,0.258,2.245l1.604,1.272c-0.346,0.745-0.543,1.575-0.543,2.449
		c0,0.687,0.125,1.343,0.342,1.955l-1.701,1.415c-0.678,0.563-0.77,1.572-0.205,2.25c0.316,0.38,0.77,0.576,1.229,0.576
		c0.361,0,0.723-0.121,1.021-0.37l1.512-1.259c0.604,0.484,1.301,0.849,2.064,1.064v2.145c0,0.883,0.715,1.598,1.598,1.598
		s1.598-0.715,1.598-1.598v-2.145c0.588-0.167,1.141-0.42,1.639-0.752l1.695,1.347c0.295,0.233,0.645,0.346,0.992,0.346
		c0.471,0,0.938-0.207,1.254-0.604C57.539,71.412,57.424,70.406,56.732,69.858z M47.768,67.817
		c-0.059-0.124-0.127-0.245-0.219-0.355c-0.02-0.023-0.045-0.041-0.066-0.064c-0.205-0.377-0.332-0.804-0.332-1.263
		c0-0.604,0.209-1.153,0.549-1.603c0.068-0.059,0.137-0.119,0.193-0.192c0.031-0.038,0.051-0.079,0.076-0.119
		c0.48-0.461,1.129-0.749,1.846-0.749c1.469,0,2.662,1.195,2.662,2.663c0,0.587-0.195,1.125-0.518,1.565
		c-0.08,0.066-0.158,0.145-0.225,0.23c-0.031,0.038-0.051,0.079-0.076,0.117c-0.479,0.463-1.129,0.751-1.844,0.751
		C48.986,68.799,48.256,68.411,47.768,67.817z"/>
	<g>
		<path d="M49.584,54.114c-5.648,0-10.625-3.512-12.576-8.706c-1.83,0.896-3.838,1.364-5.883,1.364
			c-7.418,0-13.451-6.035-13.451-13.452c0-7.418,6.033-13.452,13.451-13.452c1.301,0,2.58,0.188,3.82,0.557
			c1.801-5.487,6.877-9.217,12.762-9.217c2.854,0,5.639,0.915,7.934,2.592c2.861-1.698,6.107-2.592,9.443-2.592
			c10.229,0,18.551,8.322,18.551,18.552s-8.322,18.552-18.551,18.552c-1.365,0-2.746-0.16-4.119-0.476
			C58.508,51.73,54.229,54.114,49.584,54.114z M37.695,42.504c0.148,0,0.295,0.028,0.436,0.083c0.35,0.139,0.611,0.438,0.703,0.803
			c1.25,4.932,5.67,8.375,10.75,8.375c4.088,0,7.836-2.239,9.779-5.844c0.26-0.482,0.82-0.723,1.352-0.573
			c1.455,0.407,2.924,0.614,4.369,0.614c8.934,0,16.201-7.268,16.201-16.202s-7.268-16.202-16.201-16.202
			c-3.158,0-6.227,0.918-8.873,2.655c-0.434,0.283-1,0.251-1.396-0.08c-1.992-1.66-4.516-2.575-7.107-2.575
			c-5.221,0-9.67,3.557-10.82,8.649c-0.076,0.337-0.295,0.623-0.602,0.782c-0.307,0.161-0.668,0.178-0.986,0.047
			c-1.336-0.543-2.74-0.818-4.174-0.818c-6.121,0-11.104,4.98-11.104,11.103s4.982,11.103,11.104,11.103
			c2.102,0,4.154-0.6,5.941-1.736C37.258,42.565,37.477,42.504,37.695,42.504z"/>
	</g>
</g>
</svg>
