<?xml version="1.0" encoding="utf-8"?>
<!-- Generator: Adobe Illustrator 16.0.0, SVG Export Plug-In . SVG Version: 6.00 Build 0)  -->
<!DOCTYPE svg PUBLIC "-//W3C//DTD SVG 1.1//EN" "http://www.w3.org/Graphics/SVG/1.1/DTD/svg11.dtd">
<svg version="1.1" id="Layer_1" xmlns="http://www.w3.org/2000/svg" xmlns:xlink="http://www.w3.org/1999/xlink" x="0px" y="0px"
	 width="100px" height="100px" viewBox="0 0 100 100" enable-background="new 0 0 100 100" xml:space="preserve">
<g>
	<g>
		<path d="M52.136,95.361l6.41-9.225v-0.08h-5.831v-2.516h9.765v1.758l-6.271,9.105v0.078h6.37V97H52.136V95.361z"/>
	</g>
	<path d="M90.203,21.45c0-7.136-5.806-12.94-12.94-12.94c-2.173,0-4.312,0.55-6.213,1.594c-1.559-1.031-3.418-1.594-5.284-1.594
		c-3.93,0-7.415,2.373-8.861,5.966c-0.691-0.157-1.398-0.236-2.109-0.236c-5.275,0-9.566,4.292-9.566,9.566
		c0,0.808,0.111,1.588,0.301,2.337c-1.824,1.561-3.232,3.617-4.018,6.009c-1.24-0.37-2.52-0.557-3.82-0.557
		c-7.416,0-13.451,6.034-13.451,13.452c0,4.666,2.389,8.781,6.006,11.194c2.134,1.424,4.693,2.258,7.445,2.258
		c2.045,0,4.053-0.468,5.885-1.364c0.105,0.283,0.225,0.559,0.35,0.832c1.477,3.252,4.177,5.748,7.455,6.993
		c0.199,0.076,0.406,0.136,0.609,0.202l-3.433,5.861l3.817,2.643l-3.817,10.279l10.866-9.617l-5.433-3.305l5.433-5.615l-0.002-0.007
		c2.555-0.642,4.865-2.009,6.646-3.959c0.533-0.583,1.036-1.2,1.465-1.88c0.321,0.074,0.644,0.11,0.965,0.167
		c1.054,0.185,2.108,0.309,3.153,0.309c10.229,0,18.553-8.322,18.553-18.552c0-4.133-1.375-7.941-3.67-11.028
		C88.798,28.126,90.203,24.951,90.203,21.45z M87.853,41.486c0,4.833-2.139,9.165-5.505,12.136
		c-2.856,2.522-6.597,4.066-10.698,4.066c-0.115,0-0.232-0.01-0.35-0.013c-0.242-0.005-0.484-0.008-0.727-0.025
		c-0.931-0.065-1.867-0.225-2.799-0.455c-0.165-0.041-0.33-0.075-0.494-0.121c-0.529-0.148-1.09,0.091-1.351,0.574
		c-0.38,0.703-0.845,1.336-1.351,1.93c-2.086,2.445-5.138,3.914-8.428,3.914c-4.972,0-9.302-3.301-10.656-8.061
		c-0.03-0.105-0.066-0.208-0.094-0.314c-0.092-0.365-0.354-0.664-0.704-0.803c-0.14-0.057-0.288-0.084-0.435-0.084
		c-0.221,0-0.439,0.063-0.631,0.184c-1.785,1.136-3.84,1.735-5.941,1.735c-2.195,0-4.238-0.649-5.965-1.754
		c-2.425-1.554-4.207-4.019-4.859-6.913c-0.176-0.785-0.277-1.598-0.277-2.436c0-6.122,4.98-11.103,11.102-11.103
		c1.434,0,2.838,0.275,4.175,0.819c0.319,0.13,0.681,0.113,0.986-0.047s0.526-0.446,0.603-0.783
		c0.482-2.137,1.551-3.996,3.008-5.443c0.695-0.689,1.477-1.287,2.33-1.771c1.624-0.918,3.496-1.435,5.482-1.435
		c2.591,0,5.115,0.914,7.105,2.574c0.397,0.332,0.965,0.363,1.397,0.08c2.646-1.736,5.714-2.654,8.872-2.654
		c4.344,0,8.285,1.727,11.197,4.52c0.697,0.668,1.33,1.398,1.899,2.182C86.691,34.659,87.853,37.936,87.853,41.486z M71.65,22.936
		c-3.334,0-6.581,0.893-9.441,2.59c-2.296-1.676-5.08-2.59-7.934-2.59c-2.199,0-4.286,0.521-6.131,1.46
		c-0.018-0.194-0.029-0.391-0.029-0.59c0-3.684,2.996-6.681,6.68-6.681c0.861,0,1.706,0.166,2.51,0.493
		c0.174,0.071,0.356,0.106,0.545,0.106c0.231,0,0.463-0.057,0.667-0.163c0.376-0.196,0.646-0.546,0.741-0.962
		c0.69-3.063,3.367-5.203,6.508-5.203c1.559,0,3.077,0.549,4.275,1.548c0.259,0.217,0.588,0.336,0.926,0.336
		c0.28,0,0.554-0.081,0.791-0.236c1.643-1.079,3.546-1.647,5.505-1.647c5.543,0,10.054,4.51,10.054,10.054
		c0,2.629-1.022,5.017-2.68,6.81C81.287,24.971,76.705,22.936,71.65,22.936z"/>
</g>
</svg>
