<?xml version="1.0" encoding="utf-8"?>
<!-- Generator: Adobe Illustrator 16.0.0, SVG Export Plug-In . SVG Version: 6.00 Build 0)  -->
<!DOCTYPE svg PUBLIC "-//W3C//DTD SVG 1.1//EN" "http://www.w3.org/Graphics/SVG/1.1/DTD/svg11.dtd">
<svg version="1.1" id="Layer_1" xmlns="http://www.w3.org/2000/svg" xmlns:xlink="http://www.w3.org/1999/xlink" x="0px" y="0px"
	 width="100px" height="100px" viewBox="0 0 100 100" enable-background="new 0 0 100 100" xml:space="preserve">
<g>
	<g>
		<path d="M46.913,84.505c0.979-0.162,2.416-0.281,4.055-0.281c1.996,0,3.395,0.299,4.353,1.059
			c0.819,0.639,1.259,1.598,1.259,2.836c0,1.697-1.219,2.875-2.376,3.295v0.059c0.938,0.381,1.457,1.258,1.796,2.496
			c0.42,1.537,0.82,3.295,1.079,3.814h-3.116c-0.199-0.398-0.539-1.477-0.918-3.135c-0.378-1.697-0.959-2.137-2.216-2.156h-0.899
			v5.291h-3.016V84.505z M49.929,90.294h1.199c1.518,0,2.416-0.758,2.416-1.938c0-1.217-0.839-1.855-2.236-1.855
			c-0.738,0-1.158,0.039-1.379,0.1V90.294z"/>
	</g>
	<path d="M38.821,58.536c0,1.865-1.512,3.379-3.377,3.379s-3.378-1.514-3.378-3.379s3.378-6.9,3.378-6.9
		S38.821,56.671,38.821,58.536z"/>
	<path d="M53.358,68.815c0,1.865-1.512,3.377-3.377,3.377s-3.377-1.512-3.377-3.377s3.377-6.9,3.377-6.9S53.358,66.95,53.358,68.815
		z"/>
	<path d="M67.162,65.292c0,1.865-1.513,3.377-3.378,3.377s-3.377-1.512-3.377-3.377s3.377-6.902,3.377-6.902
		S67.162,63.427,67.162,65.292z"/>
	<g>
		<path d="M51.995,51.636c-5.649,0-10.625-3.513-12.576-8.707c-1.831,0.896-3.838,1.364-5.883,1.364
			c-7.418,0-13.452-6.034-13.452-13.452s6.034-13.452,13.452-13.452c1.3,0,2.58,0.187,3.82,0.556
			c1.801-5.486,6.877-9.215,12.762-9.215c2.854,0,5.639,0.914,7.934,2.59c2.861-1.697,6.107-2.59,9.443-2.59
			c10.229,0,18.551,8.322,18.551,18.551s-8.322,18.552-18.551,18.552c-1.365,0-2.747-0.16-4.119-0.476
			C60.919,49.251,56.64,51.636,51.995,51.636z M40.107,40.024c0.147,0,0.294,0.027,0.435,0.084c0.35,0.139,0.611,0.438,0.704,0.803
			c1.248,4.931,5.669,8.375,10.749,8.375c4.089,0,7.836-2.24,9.779-5.844c0.261-0.484,0.82-0.723,1.352-0.574
			c1.454,0.407,2.924,0.614,4.369,0.614c8.934,0,16.201-7.269,16.201-16.202s-7.268-16.201-16.201-16.201
			c-3.158,0-6.227,0.918-8.873,2.654c-0.434,0.283-1,0.252-1.396-0.08c-1.992-1.66-4.516-2.574-7.107-2.574
			c-5.221,0-9.67,3.557-10.819,8.648c-0.077,0.337-0.297,0.623-0.603,0.783c-0.307,0.16-0.668,0.177-0.986,0.047
			c-1.337-0.545-2.74-0.819-4.174-0.819c-6.122,0-11.103,4.98-11.103,11.103s4.98,11.103,11.103,11.103
			c2.101,0,4.154-0.601,5.941-1.735C39.668,40.087,39.888,40.024,40.107,40.024z"/>
	</g>
</g>
</svg>
