<?xml version="1.0" encoding="utf-8"?>
<!-- Generator: Adobe Illustrator 16.0.0, SVG Export Plug-In . SVG Version: 6.00 Build 0)  -->
<!DOCTYPE svg PUBLIC "-//W3C//DTD SVG 1.1//EN" "http://www.w3.org/Graphics/SVG/1.1/DTD/svg11.dtd">
<svg version="1.1" id="Layer_1" xmlns="http://www.w3.org/2000/svg" xmlns:xlink="http://www.w3.org/1999/xlink" x="0px" y="0px"
	 width="100px" height="100px" viewBox="0 0 100 100" enable-background="new 0 0 100 100" xml:space="preserve">
<g>
	<g>
		<path d="M48.001,82.482v5.171h5.012v-5.171h3.035V95.94h-3.035V90.31h-5.012v5.631h-3.035V82.482H48.001z"/>
	</g>
	<g>
		<path d="M41.39,19.481c0.648,0,1.174-0.525,1.174-1.175v-4.895c0-0.648-0.525-1.175-1.174-1.175s-1.175,0.526-1.175,1.175v4.895
			C40.215,18.956,40.741,19.481,41.39,19.481z"/>
		<path d="M53.081,25.453c0.301,0,0.602-0.114,0.832-0.344l4.209-4.209c0.459-0.459,0.459-1.203,0-1.662s-1.203-0.459-1.662,0
			l-4.209,4.21c-0.459,0.459-0.459,1.204,0,1.661C52.48,25.339,52.781,25.453,53.081,25.453z"/>
		<path d="M26.994,25.109c0.229,0.229,0.53,0.344,0.831,0.344s0.602-0.114,0.83-0.344c0.459-0.459,0.459-1.202,0-1.661l-4.209-4.21
			c-0.459-0.459-1.203-0.459-1.662,0c-0.459,0.46-0.459,1.203,0,1.662L26.994,25.109z"/>
		<path d="M24.79,35.7c0-0.648-0.525-1.175-1.175-1.175h-5.286c-0.648,0-1.176,0.526-1.176,1.175s0.527,1.174,1.176,1.174h5.286
			C24.265,36.874,24.79,36.349,24.79,35.7z"/>
		<path d="M66.337,30.63c-3.336,0-6.582,0.894-9.443,2.592c-1.417-1.035-3.022-1.778-4.715-2.197
			c-2.186-5.054-7.717-8.033-13.293-6.812c-6.328,1.387-10.347,7.663-8.961,13.99c0.096,0.437,0.227,0.854,0.37,1.266
			c-6.43,1.006-11.368,6.565-11.368,13.273c0,7.418,6.033,13.452,13.451,13.452c2.045,0,4.053-0.468,5.884-1.364
			c1.95,5.194,6.927,8.706,12.575,8.706c4.645,0,8.924-2.384,11.381-6.278c1.373,0.315,2.754,0.476,4.119,0.476
			c10.229,0,18.551-8.322,18.551-18.552S76.565,30.63,66.337,30.63z M39.389,26.508c3.952-0.865,7.868,0.912,9.929,4.137
			c-0.119-0.003-0.238-0.015-0.357-0.015c-5.885,0-10.961,3.729-12.762,9.217c-1.123-0.334-2.279-0.512-3.454-0.543
			c-0.216-0.512-0.4-1.043-0.522-1.604C31.112,32.64,34.327,27.618,39.389,26.508z M66.337,65.384c-1.445,0-2.914-0.207-4.369-0.614
			c-0.531-0.148-1.091,0.091-1.352,0.573c-1.943,3.605-5.69,5.844-9.779,5.844c-5.08,0-9.501-3.443-10.749-8.374
			c-0.093-0.364-0.354-0.664-0.704-0.804c-0.141-0.055-0.287-0.082-0.435-0.082c-0.22,0-0.439,0.062-0.63,0.183
			c-1.787,1.136-3.841,1.735-5.941,1.735c-6.121,0-11.103-4.98-11.103-11.103S26.257,41.64,32.378,41.64
			c1.434,0,2.838,0.275,4.174,0.818c0.318,0.131,0.68,0.114,0.986-0.047c0.307-0.159,0.525-0.445,0.603-0.781
			c1.149-5.094,5.599-8.65,10.819-8.65c0.49,0,0.977,0.043,1.459,0.107c0.877,0.117,1.732,0.335,2.553,0.653
			c1.115,0.433,2.164,1.039,3.096,1.814c0.396,0.331,0.963,0.364,1.396,0.081c2.646-1.737,5.715-2.656,8.873-2.656
			c8.934,0,16.201,7.269,16.201,16.202C82.538,58.116,75.271,65.384,66.337,65.384z"/>
	</g>
</g>
</svg>
