<?xml version="1.0" encoding="utf-8"?>
<!-- Generator: Adobe Illustrator 16.0.0, SVG Export Plug-In . SVG Version: 6.00 Build 0)  -->
<!DOCTYPE svg PUBLIC "-//W3C//DTD SVG 1.1//EN" "http://www.w3.org/Graphics/SVG/1.1/DTD/svg11.dtd">
<svg version="1.1" id="Layer_1" xmlns="http://www.w3.org/2000/svg" xmlns:xlink="http://www.w3.org/1999/xlink" x="0px" y="0px"
	 width="100px" height="100px" viewBox="0 0 100 100" enable-background="new 0 0 100 100" xml:space="preserve">
<g>
	<g>
		<path d="M41.464,86.283c-1.258-0.658-1.877-1.716-1.877-2.854c0-2.197,1.977-3.654,4.573-3.654c3.034,0,4.293,1.758,4.293,3.334
			c0,1.118-0.599,2.217-1.897,2.855v0.061c1.277,0.479,2.396,1.558,2.396,3.215c0,2.357-1.977,3.953-4.992,3.953
			c-3.295,0-4.813-1.857-4.813-3.613c0-1.558,0.898-2.637,2.316-3.256V86.283z M45.857,89.479c0-1.139-0.859-1.818-2.036-2.137
			c-0.998,0.279-1.578,0.998-1.578,1.937c-0.02,0.938,0.7,1.817,1.837,1.817C45.138,91.097,45.857,90.397,45.857,89.479z
			 M42.462,83.329c0,0.878,0.779,1.437,1.817,1.756c0.698-0.199,1.317-0.838,1.317-1.638c0-0.817-0.459-1.616-1.576-1.616
			C42.982,81.831,42.462,82.53,42.462,83.329z"/>
	</g>
	<path d="M35.021,57.64c0,1.865-1.513,3.377-3.378,3.377s-3.377-1.512-3.377-3.377c0-1.866,3.377-6.902,3.377-6.902
		S35.021,55.773,35.021,57.64z"/>
	<path d="M49.558,67.918c0,1.865-1.512,3.378-3.378,3.378c-1.865,0-3.377-1.513-3.377-3.378s3.377-6.901,3.377-6.901
		S49.558,66.053,49.558,67.918z"/>
	<path d="M63.362,64.394c0,1.865-1.513,3.377-3.378,3.377s-3.378-1.512-3.378-3.377s3.378-6.9,3.378-6.9
		S63.362,62.528,63.362,64.394z"/>
	<g>
		<path d="M48.195,50.737c-5.649,0-10.625-3.512-12.575-8.706c-1.832,0.896-3.84,1.364-5.885,1.364
			c-7.417,0-13.451-6.035-13.451-13.453c0-7.417,6.034-13.451,13.451-13.451c1.301,0,2.58,0.187,3.82,0.557
			c1.802-5.488,6.877-9.217,12.763-9.217c2.854,0,5.639,0.915,7.934,2.592c2.861-1.699,6.107-2.592,9.442-2.592
			c10.229,0,18.552,8.322,18.552,18.552s-8.322,18.552-18.552,18.552c-1.365,0-2.746-0.16-4.119-0.477
			C57.118,48.354,52.838,50.737,48.195,50.737z"/>
	</g>
</g>
</svg>
