<?xml version="1.0" encoding="utf-8"?>
<!-- Generator: Adobe Illustrator 16.0.0, SVG Export Plug-In . SVG Version: 6.00 Build 0)  -->
<!DOCTYPE svg PUBLIC "-//W3C//DTD SVG 1.1//EN" "http://www.w3.org/Graphics/SVG/1.1/DTD/svg11.dtd">
<svg version="1.1" id="Layer_1" xmlns="http://www.w3.org/2000/svg" xmlns:xlink="http://www.w3.org/1999/xlink" x="0px" y="0px"
	 width="100px" height="100px" viewBox="0 0 100 100" enable-background="new 0 0 100 100" xml:space="preserve">
<g>
	<circle cx="28.855" cy="69.311" r="3.524"/>
	<circle cx="35.903" cy="83.114" r="3.524"/>
	<circle cx="46.476" cy="72.835" r="3.524"/>
	<circle cx="64.293" cy="69.311" r="3.524"/>
	<circle cx="57.245" cy="83.114" r="3.524"/>
	<g>
		<path d="M48.931,62.45c-5.649,0-10.625-3.513-12.575-8.707c-1.832,0.896-3.84,1.365-5.885,1.365
			c-7.417,0-13.451-6.035-13.451-13.452c0-7.418,6.034-13.452,13.451-13.452c1.301,0,2.58,0.186,3.82,0.555
			c1.802-5.485,6.877-9.215,12.763-9.215c2.854,0,5.639,0.914,7.934,2.592c2.861-1.698,6.108-2.592,9.442-2.592
			c10.229,0,18.552,8.321,18.552,18.551c0,10.23-8.322,18.552-18.552,18.552c-1.365,0-2.746-0.159-4.119-0.476
			C57.854,60.066,53.574,62.45,48.931,62.45z"/>
	</g>
</g>
</svg>
