<?xml version="1.0" encoding="utf-8"?>
<!-- Generator: Adobe Illustrator 16.0.0, SVG Export Plug-In . SVG Version: 6.00 Build 0)  -->
<!DOCTYPE svg PUBLIC "-//W3C//DTD SVG 1.1//EN" "http://www.w3.org/Graphics/SVG/1.1/DTD/svg11.dtd">
<svg version="1.1" id="Layer_1" xmlns="http://www.w3.org/2000/svg" xmlns:xlink="http://www.w3.org/1999/xlink" x="0px" y="0px"
	 width="100px" height="100px" viewBox="0 0 100 100" enable-background="new 0 0 100 100" xml:space="preserve">
<g>
	<path d="M38.767,31.779c0-5.594,3.518-10.376,8.564-12.151c-1.016,1.758-1.555,3.755-1.555,5.848
		c0,6.478,5.268,11.747,11.746,11.747c2.367,0,4.635-0.705,6.551-1.993c-0.203,0.741-0.473,1.452-0.797,2.131h2.547
		c0.623-1.601,1.002-3.329,1.051-5.153c0.014-0.502-0.291-0.958-0.764-1.134c-0.467-0.174-1-0.032-1.318,0.355
		c-1.795,2.189-4.445,3.444-7.27,3.444c-5.184,0-9.398-4.215-9.398-9.397c0-2.609,1.053-5.037,2.963-6.836
		c0.367-0.344,0.473-0.883,0.266-1.34c-0.209-0.459-0.682-0.736-1.184-0.685c-7.84,0.761-13.752,7.279-13.752,15.164
		c0,1.972,0.389,3.851,1.074,5.581h2.564C39.239,35.669,38.767,33.781,38.767,31.779z"/>
	<g>
		<path d="M72.382,43.498H27.013c-0.617,0-1.121-0.525-1.121-1.175c0-0.648,0.504-1.175,1.121-1.175h45.369
			c0.619,0,1.121,0.526,1.121,1.175C73.503,42.973,73.001,43.498,72.382,43.498z"/>
	</g>
	<g>
		<path d="M71.688,50.547H26.319c-0.619,0-1.121-0.526-1.121-1.176c0-0.647,0.502-1.174,1.121-1.174h45.369
			c0.619,0,1.119,0.526,1.119,1.174C72.808,50.021,72.308,50.547,71.688,50.547z"/>
	</g>
	<g>
		<path d="M71.688,57.889H26.319c-0.619,0-1.121-0.526-1.121-1.175c0-0.649,0.502-1.175,1.121-1.175h45.369
			c0.619,0,1.119,0.525,1.119,1.175C72.808,57.362,72.308,57.889,71.688,57.889z"/>
	</g>
	<g>
		<path d="M42.218,78.11h3.014v5.949h0.041c0.299-0.519,0.619-0.998,0.939-1.478l3.035-4.472h3.754l-4.453,5.73l4.672,7.728h-3.535
			l-3.314-5.811l-1.139,1.418v4.393h-3.014V78.11z"/>
	</g>
</g>
</svg>
