<?xml version="1.0" encoding="utf-8"?>
<!-- Generator: Adobe Illustrator 16.0.0, SVG Export Plug-In . SVG Version: 6.00 Build 0)  -->
<!DOCTYPE svg PUBLIC "-//W3C//DTD SVG 1.1//EN" "http://www.w3.org/Graphics/SVG/1.1/DTD/svg11.dtd">
<svg version="1.1" id="Layer_1" xmlns="http://www.w3.org/2000/svg" xmlns:xlink="http://www.w3.org/1999/xlink" x="0px" y="0px"
	 width="100px" height="100px" viewBox="0 0 100 100" enable-background="new 0 0 100 100" xml:space="preserve">
<g>
	<g>
		<path d="M83.039,62.489H20.143c-0.857,0-1.553-0.528-1.553-1.175c0-0.649,0.696-1.175,1.553-1.175h62.896
			c0.857,0,1.553,0.525,1.553,1.175C84.592,61.961,83.896,62.489,83.039,62.489z"/>
	</g>
	<g>
		<path d="M83.039,69.537H20.143c-0.857,0-1.553-0.528-1.553-1.174c0-0.649,0.695-1.175,1.553-1.175h62.896
			c0.857,0,1.553,0.525,1.553,1.175C84.592,69.009,83.896,69.537,83.039,69.537z"/>
	</g>
	<g>
		<path d="M83.039,76.879H20.143c-0.857,0-1.553-0.528-1.553-1.175c0-0.649,0.695-1.175,1.553-1.175h62.896
			c0.857,0,1.553,0.525,1.553,1.175C84.592,76.352,83.896,76.879,83.039,76.879z"/>
	</g>
	<path d="M32.081,46.529c1.434,0,2.838,0.275,4.174,0.819c0.319,0.131,0.68,0.113,0.986-0.047c0.306-0.159,0.526-0.446,0.603-0.782
		c1.149-5.092,5.599-8.649,10.82-8.649c2.591,0,5.115,0.915,7.106,2.574c0.397,0.332,0.964,0.364,1.397,0.081
		c2.646-1.737,5.714-2.655,8.873-2.655c8.934,0,16.202,7.268,16.202,16.201c0,0.992-0.103,1.959-0.275,2.902h2.374
		c0.15-0.948,0.25-1.913,0.25-2.902c0-10.229-8.323-18.551-18.552-18.551c-3.335,0-6.582,0.893-9.442,2.591
		c-2.295-1.676-5.08-2.591-7.934-2.591c-5.885,0-10.961,3.729-12.763,9.216c-1.24-0.37-2.52-0.557-3.82-0.557
		c-7.195,0-13.072,5.684-13.418,12.794h2.35C21.356,51.158,26.182,46.529,32.081,46.529z"/>
</g>
</svg>
