<?xml version="1.0" encoding="utf-8"?>
<!-- Generator: Adobe Illustrator 16.0.0, SVG Export Plug-In . SVG Version: 6.00 Build 0)  -->
<!DOCTYPE svg PUBLIC "-//W3C//DTD SVG 1.1//EN" "http://www.w3.org/Graphics/SVG/1.1/DTD/svg11.dtd">
<svg version="1.1" id="Layer_1" xmlns="http://www.w3.org/2000/svg" xmlns:xlink="http://www.w3.org/1999/xlink" x="0px" y="0px"
	 width="100px" height="100px" viewBox="0 0 100 100" enable-background="new 0 0 100 100" xml:space="preserve">
<g>
	<g>
		<path d="M52.755,77.26v1.918l-5.352,11.061h-3.216l5.354-10.443v-0.039h-5.952V77.26H52.755z"/>
	</g>
	<path d="M51.55,62.879c0,1.865-1.512,3.377-3.377,3.377s-3.378-1.512-3.378-3.377s3.378-6.9,3.378-6.9S51.55,61.014,51.55,62.879z"
		/>
	<g>
		<path d="M48.371,53.689c-5.649,0-10.625-3.512-12.576-8.705c-1.831,0.895-3.838,1.363-5.883,1.363
			c-7.418,0-13.452-6.035-13.452-13.451c0-7.418,6.034-13.453,13.452-13.453c1.3,0,2.58,0.188,3.819,0.557
			c1.802-5.486,6.878-9.215,12.763-9.215c2.854,0,5.639,0.914,7.934,2.59c2.861-1.697,6.107-2.59,9.443-2.59
			c10.229,0,18.551,8.32,18.551,18.551c0,10.229-8.322,18.551-18.551,18.551c-1.365,0-2.747-0.158-4.119-0.477
			C57.294,51.307,53.015,53.689,48.371,53.689z"/>
	</g>
</g>
</svg>
