<?xml version="1.0" encoding="utf-8"?>
<!-- Generator: Adobe Illustrator 16.0.0, SVG Export Plug-In . SVG Version: 6.00 Build 0)  -->
<!DOCTYPE svg PUBLIC "-//W3C//DTD SVG 1.1//EN" "http://www.w3.org/Graphics/SVG/1.1/DTD/svg11.dtd">
<svg version="1.1" id="Layer_1" xmlns="http://www.w3.org/2000/svg" xmlns:xlink="http://www.w3.org/1999/xlink" x="0px" y="0px"
	 width="100px" height="100px" viewBox="0 0 100 100" enable-background="new 0 0 100 100" xml:space="preserve">
<g>
	<g>
		<path d="M35.839,77.055h-0.04l-2.476,1.178l-0.499-2.277l3.455-1.598h2.496v12.98h-2.936V77.055z"/>
		<path d="M52.634,80.788c0,3.994-1.618,6.769-4.913,6.769c-3.354,0-4.832-3.016-4.852-6.689c0-3.773,1.578-6.729,4.932-6.729
			C51.256,74.139,52.634,77.233,52.634,80.788z M45.904,80.867c0,2.977,0.719,4.395,1.877,4.395c1.178,0,1.817-1.479,1.817-4.434
			c0-2.875-0.619-4.393-1.837-4.393C46.663,76.436,45.904,77.832,45.904,80.867z"/>
	</g>
	<g>
		<path d="M32.689,25.275h-14.23c-0.194,0-0.352-0.525-0.352-1.174s0.157-1.176,0.352-1.176h14.23c0.194,0,0.352,0.527,0.352,1.176
			S32.884,25.275,32.689,25.275z"/>
	</g>
	<g>
		<path d="M32.092,32.324H14.924c-0.234,0-0.424-0.525-0.424-1.174c0-0.649,0.19-1.176,0.424-1.176h17.168
			c0.234,0,0.424,0.526,0.424,1.176C32.516,31.799,32.326,32.324,32.092,32.324z"/>
	</g>
	<g>
		<path d="M32.177,39.666h-13.73c-0.187,0-0.339-0.525-0.339-1.174s0.152-1.176,0.339-1.176h13.73c0.187,0,0.339,0.527,0.339,1.176
			S32.364,39.666,32.177,39.666z"/>
	</g>
	<path d="M49.679,52.246c0,1.865-1.512,3.378-3.377,3.378c-1.866,0-3.377-1.513-3.377-3.378c0-1.864,3.377-6.9,3.377-6.9
		S49.679,50.382,49.679,52.246z"/>
	<path d="M64.216,62.525c0,1.865-1.512,3.378-3.377,3.378c-1.865,0-3.377-1.513-3.377-3.378s3.377-6.901,3.377-6.901
		S64.216,60.66,64.216,62.525z"/>
	<path d="M70.386,13.467c-2.172,0-4.312,0.55-6.213,1.594c-1.559-1.031-3.418-1.594-5.284-1.594c-3.93,0-7.416,2.373-8.861,5.966
		c-0.691-0.157-1.398-0.236-2.11-0.236c-5.275,0-9.566,4.292-9.566,9.566s4.291,9.566,9.566,9.566c1.207,0,2.418-0.235,3.542-0.685
		c1.549,3.342,4.949,5.542,8.671,5.542c3.147,0,6.042-1.515,7.833-4.075c0.809,0.156,1.621,0.236,2.421,0.236
		c7.135,0,12.94-5.806,12.94-12.94C83.326,19.271,77.521,13.467,70.386,13.467z"/>
</g>
</svg>
