<?xml version="1.0" encoding="utf-8"?>
<!-- Generator: Adobe Illustrator 16.0.0, SVG Export Plug-In . SVG Version: 6.00 Build 0)  -->
<!DOCTYPE svg PUBLIC "-//W3C//DTD SVG 1.1//EN" "http://www.w3.org/Graphics/SVG/1.1/DTD/svg11.dtd">
<svg version="1.1" id="Layer_1" xmlns="http://www.w3.org/2000/svg" xmlns:xlink="http://www.w3.org/1999/xlink" x="0px" y="0px"
	 width="100px" height="100px" viewBox="0 0 100 100" enable-background="new 0 0 100 100" xml:space="preserve">
<g>
	<g>
		<path d="M49.906,21.368c-0.648,0-1.174-0.526-1.174-1.175v-4.895c0-0.648,0.525-1.175,1.174-1.175s1.176,0.526,1.176,1.175v4.895
			C51.082,20.842,50.555,21.368,49.906,21.368z"/>
	</g>
	<g>
		<path d="M36.342,27.341c-0.301,0-0.602-0.115-0.83-0.345l-4.209-4.21c-0.459-0.458-0.459-1.202,0-1.661s1.201-0.459,1.66,0
			l4.209,4.21c0.459,0.459,0.459,1.202,0,1.661C36.943,27.226,36.643,27.341,36.342,27.341z"/>
	</g>
	<g>
		<path d="M32.133,38.761h-5.287c-0.648,0-1.174-0.525-1.174-1.174c0-0.649,0.525-1.176,1.174-1.176h5.287
			c0.648,0,1.176,0.526,1.176,1.176C33.309,38.235,32.781,38.761,32.133,38.761z"/>
	</g>
	<path d="M40.508,37.587c0-5.183,4.217-9.398,9.398-9.398s9.398,4.216,9.398,9.398c0,0.701-0.084,1.381-0.229,2.038h2.389
		c0.117-0.663,0.189-1.343,0.189-2.038c0-6.479-5.27-11.748-11.748-11.748s-11.748,5.27-11.748,11.748
		c0,0.695,0.072,1.375,0.189,2.038h2.389C40.592,38.968,40.508,38.288,40.508,37.587z"/>
	<path d="M61.6,27.341c0.301,0,0.6-0.115,0.83-0.345l4.209-4.21c0.459-0.458,0.459-1.202,0-1.661s-1.203-0.459-1.662,0l-4.209,4.21
		c-0.459,0.459-0.459,1.203,0,1.661C60.998,27.226,61.299,27.341,61.6,27.341z"/>
	<path d="M64.633,37.587c0,0.648,0.525,1.174,1.176,1.174h6.266c0.648,0,1.174-0.525,1.174-1.174c0-0.649-0.525-1.176-1.174-1.176
		h-6.266C65.158,36.411,64.633,36.938,64.633,37.587z"/>
	<g>
		<path d="M74.059,44.588H26.482c-0.648,0-1.176-0.526-1.176-1.175s0.527-1.175,1.176-1.175h47.576c0.65,0,1.176,0.526,1.176,1.175
			S74.709,44.588,74.059,44.588z"/>
	</g>
	<g>
		<path d="M73.332,51.636H25.754c-0.648,0-1.174-0.525-1.174-1.174s0.525-1.175,1.174-1.175h47.578c0.648,0,1.174,0.526,1.174,1.175
			S73.98,51.636,73.332,51.636z"/>
	</g>
	<g>
		<path d="M73.332,58.979H25.754c-0.648,0-1.174-0.526-1.174-1.175s0.525-1.175,1.174-1.175h47.578c0.648,0,1.174,0.526,1.174,1.175
			S73.98,58.979,73.332,58.979z"/>
	</g>
	<g>
		<path d="M46.42,80.375h3.035v8.505c0,3.835-1.838,5.174-4.771,5.174c-0.719,0-1.639-0.121-2.238-0.32l0.34-2.457
			c0.42,0.141,0.959,0.24,1.559,0.24c1.277,0,2.076-0.579,2.076-2.656V80.375z"/>
	</g>
</g>
</svg>
