<?xml version="1.0" encoding="utf-8"?>
<!-- Generator: Adobe Illustrator 16.0.0, SVG Export Plug-In . SVG Version: 6.00 Build 0)  -->
<!DOCTYPE svg PUBLIC "-//W3C//DTD SVG 1.1//EN" "http://www.w3.org/Graphics/SVG/1.1/DTD/svg11.dtd">
<svg version="1.1" id="Layer_1" xmlns="http://www.w3.org/2000/svg" xmlns:xlink="http://www.w3.org/1999/xlink" x="0px" y="0px"
	 width="100px" height="100px" viewBox="0 0 100 100" enable-background="new 0 0 100 100" xml:space="preserve">
<g>
	<g>
		<path d="M45.469,91.842l0.519-3.574H44.35V86.43h1.938l0.319-2.258H44.93v-1.836h1.956l0.52-3.475h1.758l-0.5,3.475h1.838
			l0.498-3.475h1.777l-0.498,3.475h1.598v1.836h-1.897l-0.301,2.258h1.638v1.838h-1.957l-0.498,3.574h-1.799l0.521-3.574h-1.817
			l-0.499,3.574H45.469z M49.901,86.43l0.299-2.258h-1.817l-0.319,2.258H49.901z"/>
	</g>
	<path d="M53.826,65.219l-1.645-1.305c0.354-0.766,0.557-1.615,0.557-2.514c0-0.869-0.188-1.691-0.521-2.438l1.68-1.398
		c0.695-0.578,0.791-1.611,0.212-2.309c-0.579-0.695-1.612-0.791-2.309-0.211l-1.681,1.398c-0.529-0.363-1.12-0.639-1.752-0.818
		v-2.199c0-0.906-0.734-1.641-1.639-1.641c-0.906,0-1.64,0.734-1.64,1.641v2.199c-0.604,0.17-1.17,0.432-1.681,0.771l-1.739-1.381
		c-0.709-0.563-1.74-0.443-2.304,0.264c-0.562,0.711-0.443,1.74,0.266,2.305l1.645,1.305c-0.354,0.766-0.557,1.615-0.557,2.512
		c0,0.705,0.127,1.379,0.351,2.006l-1.743,1.451c-0.696,0.578-0.791,1.611-0.213,2.307c0.324,0.393,0.791,0.592,1.262,0.592
		c0.369,0,0.74-0.125,1.047-0.379l1.552-1.289c0.617,0.494,1.334,0.869,2.115,1.09v2.199c0,0.906,0.733,1.639,1.64,1.639
		c0.904,0,1.639-0.732,1.639-1.639v-2.199c0.604-0.17,1.17-0.432,1.68-0.771l1.74,1.381c0.302,0.238,0.66,0.355,1.018,0.355
		c0.483,0,0.962-0.213,1.285-0.621C54.653,66.813,54.535,65.781,53.826,65.219z M44.63,63.127c-0.06-0.127-0.129-0.25-0.224-0.365
		c-0.021-0.023-0.046-0.043-0.068-0.066c-0.21-0.387-0.341-0.824-0.341-1.295c0-0.617,0.215-1.184,0.563-1.643
		c0.07-0.063,0.14-0.123,0.199-0.197c0.031-0.039,0.052-0.082,0.079-0.123c0.491-0.475,1.157-0.768,1.892-0.768
		c1.506,0,2.731,1.225,2.731,2.73c0,0.602-0.201,1.154-0.532,1.605c-0.082,0.07-0.16,0.148-0.23,0.236
		c-0.03,0.039-0.051,0.082-0.077,0.123c-0.492,0.473-1.157,0.768-1.892,0.768C45.88,64.133,45.131,63.736,44.63,63.127z"/>
	<path d="M71.263,60.381l-0.999-0.795c0.216-0.465,0.339-0.98,0.339-1.525c0-0.527-0.115-1.027-0.316-1.48l1.02-0.85
		c0.423-0.352,0.48-0.979,0.129-1.4c-0.352-0.424-0.979-0.48-1.402-0.129l-1.021,0.85c-0.321-0.221-0.68-0.389-1.063-0.498v-1.336
		c0-0.549-0.445-0.996-0.995-0.996s-0.995,0.447-0.995,0.996v1.336c-0.367,0.104-0.711,0.262-1.021,0.469l-1.056-0.838
		c-0.432-0.342-1.057-0.27-1.398,0.16s-0.27,1.057,0.16,1.398l0.999,0.793c-0.216,0.465-0.339,0.98-0.339,1.525
		c0,0.428,0.078,0.836,0.213,1.217l-1.059,0.881c-0.422,0.352-0.48,0.98-0.128,1.402c0.196,0.236,0.479,0.359,0.766,0.359
		c0.224,0,0.45-0.076,0.636-0.232l0.941-0.783c0.375,0.303,0.811,0.529,1.285,0.664v1.334c0,0.551,0.445,0.996,0.995,0.996
		s0.995-0.445,0.995-0.996v-1.334c0.366-0.105,0.711-0.262,1.021-0.469l1.057,0.838c0.183,0.146,0.401,0.215,0.618,0.215
		c0.293,0,0.584-0.127,0.78-0.375C71.765,61.346,71.693,60.721,71.263,60.381z M65.679,59.109c-0.036-0.078-0.078-0.154-0.136-0.223
		c-0.013-0.016-0.028-0.025-0.042-0.041c-0.127-0.234-0.206-0.5-0.206-0.785c0-0.377,0.13-0.719,0.341-0.998
		c0.043-0.037,0.085-0.074,0.121-0.121c0.02-0.023,0.031-0.049,0.048-0.072c0.299-0.289,0.702-0.467,1.148-0.467
		c0.915,0,1.659,0.742,1.659,1.658c0,0.365-0.123,0.699-0.323,0.975c-0.051,0.041-0.098,0.09-0.14,0.143
		c-0.019,0.023-0.031,0.051-0.047,0.074c-0.299,0.289-0.703,0.469-1.149,0.469C66.438,59.721,65.983,59.479,65.679,59.109z"/>
	<path d="M32.644,57.104l-0.999-0.793c0.215-0.465,0.338-0.98,0.338-1.525c0-0.527-0.114-1.027-0.316-1.48l1.021-0.85
		c0.422-0.35,0.48-0.979,0.129-1.4c-0.352-0.424-0.979-0.48-1.402-0.129l-1.021,0.85c-0.32-0.221-0.68-0.389-1.063-0.498v-1.336
		c0-0.549-0.446-0.994-0.996-0.994c-0.549,0-0.994,0.445-0.994,0.994v1.336c-0.367,0.104-0.711,0.262-1.021,0.469l-1.056-0.838
		c-0.431-0.342-1.057-0.27-1.398,0.16c-0.341,0.43-0.27,1.057,0.161,1.398l0.999,0.793c-0.216,0.465-0.339,0.98-0.339,1.525
		c0,0.428,0.078,0.836,0.213,1.219l-1.059,0.879c-0.422,0.352-0.48,0.98-0.129,1.402c0.197,0.236,0.48,0.359,0.766,0.359
		c0.225,0,0.45-0.076,0.637-0.23l0.941-0.785c0.375,0.303,0.811,0.529,1.285,0.664v1.336c0,0.549,0.445,0.996,0.994,0.996
		c0.55,0,0.996-0.447,0.996-0.996v-1.336c0.366-0.104,0.71-0.262,1.02-0.469l1.057,0.838c0.184,0.146,0.401,0.215,0.618,0.215
		c0.294,0,0.584-0.127,0.78-0.377C33.146,58.07,33.073,57.445,32.644,57.104z M27.06,55.834c-0.037-0.078-0.078-0.152-0.136-0.223
		c-0.013-0.016-0.028-0.025-0.042-0.041c-0.127-0.234-0.207-0.5-0.207-0.785c0-0.377,0.131-0.719,0.342-0.998
		c0.043-0.037,0.085-0.074,0.121-0.119c0.019-0.025,0.031-0.051,0.047-0.076c0.299-0.287,0.703-0.465,1.148-0.465
		c0.915,0,1.659,0.744,1.659,1.658c0,0.365-0.122,0.701-0.323,0.975c-0.05,0.041-0.098,0.09-0.14,0.143
		c-0.019,0.023-0.03,0.051-0.047,0.074c-0.299,0.289-0.702,0.469-1.149,0.469C27.818,56.445,27.363,56.203,27.06,55.834z"/>
	<g>
		<path d="M47.491,52.088c-5.65,0-10.625-3.512-12.576-8.707c-1.832,0.896-3.84,1.365-5.884,1.365
			c-7.417,0-13.452-6.035-13.452-13.453c0-7.416,6.035-13.451,13.452-13.451c1.3,0,2.579,0.186,3.819,0.557
			c1.803-5.486,6.878-9.217,12.764-9.217c2.854,0,5.639,0.914,7.934,2.592c2.86-1.697,6.107-2.592,9.442-2.592
			c10.229,0,18.552,8.322,18.552,18.551c0,10.23-8.322,18.553-18.552,18.553c-1.365,0-2.747-0.16-4.119-0.477
			C56.414,49.705,52.135,52.088,47.491,52.088z"/>
	</g>
</g>
</svg>
