<?xml version="1.0" encoding="utf-8"?>
<!-- Generator: Adobe Illustrator 16.0.0, SVG Export Plug-In . SVG Version: 6.00 Build 0)  -->
<!DOCTYPE svg PUBLIC "-//W3C//DTD SVG 1.1//EN" "http://www.w3.org/Graphics/SVG/1.1/DTD/svg11.dtd">
<svg version="1.1" id="Layer_1" xmlns="http://www.w3.org/2000/svg" xmlns:xlink="http://www.w3.org/1999/xlink" x="0px" y="0px"
	 width="100px" height="100px" viewBox="0 0 100 100" enable-background="new 0 0 100 100" xml:space="preserve">
<g>
	<path d="M57.014,79.59l-1.604-1.273c0.346-0.748,0.545-1.576,0.545-2.45c0-0.847-0.185-1.649-0.51-2.377l1.639-1.362
		c0.678-0.564,0.77-1.572,0.206-2.251c-0.565-0.679-1.571-0.771-2.251-0.208l-1.639,1.366c-0.516-0.355-1.092-0.624-1.707-0.801
		v-2.143c0-0.884-0.716-1.6-1.598-1.6c-0.883,0-1.598,0.716-1.598,1.6v2.143c-0.59,0.169-1.142,0.424-1.639,0.753l-1.697-1.345
		c-0.69-0.55-1.695-0.434-2.244,0.258s-0.434,1.697,0.258,2.245l1.604,1.272c-0.346,0.746-0.543,1.575-0.543,2.449
		c0,0.687,0.125,1.343,0.342,1.955l-1.701,1.416c-0.677,0.563-0.77,1.571-0.205,2.249c0.315,0.38,0.77,0.576,1.229,0.576
		c0.361,0,0.723-0.12,1.021-0.371l1.513-1.257c0.603,0.483,1.301,0.848,2.063,1.064v2.144c0,0.883,0.715,1.598,1.598,1.598
		c0.882,0,1.598-0.715,1.598-1.598V81.5c0.588-0.167,1.141-0.422,1.639-0.753l1.696,1.348c0.294,0.232,0.644,0.345,0.991,0.345
		c0.471,0,0.938-0.207,1.254-0.604C57.819,81.144,57.704,80.139,57.014,79.59z M48.048,77.549c-0.059-0.125-0.127-0.245-0.219-0.355
		c-0.02-0.023-0.045-0.042-0.065-0.065c-0.206-0.376-0.333-0.803-0.333-1.262c0-0.604,0.209-1.154,0.55-1.602
		c0.067-0.06,0.136-0.119,0.193-0.192c0.03-0.039,0.05-0.08,0.076-0.119c0.479-0.461,1.128-0.75,1.845-0.75
		c1.469,0,2.663,1.195,2.663,2.663c0,0.587-0.196,1.124-0.519,1.565c-0.081,0.067-0.157,0.145-0.225,0.23
		c-0.03,0.037-0.05,0.079-0.076,0.118c-0.479,0.461-1.128,0.75-1.844,0.75C49.267,78.531,48.536,78.143,48.048,77.549z"/>
	<g>
		<path d="M49.864,63.846c-5.648,0-10.625-3.513-12.575-8.706c-1.831,0.896-3.839,1.364-5.884,1.364
			c-7.418,0-13.452-6.034-13.452-13.452S23.987,29.6,31.405,29.6c1.3,0,2.58,0.187,3.82,0.557c1.801-5.487,6.877-9.216,12.762-9.216
			c2.854,0,5.639,0.914,7.934,2.591c2.861-1.698,6.107-2.591,9.443-2.591c10.229,0,18.551,8.322,18.551,18.55
			c0,10.23-8.322,18.553-18.551,18.553c-1.365,0-2.746-0.16-4.119-0.476C58.788,61.462,54.509,63.846,49.864,63.846z"/>
	</g>
</g>
</svg>
