<?xml version="1.0" encoding="utf-8"?>
<!-- Generator: Adobe Illustrator 16.0.0, SVG Export Plug-In . SVG Version: 6.00 Build 0)  -->
<!DOCTYPE svg PUBLIC "-//W3C//DTD SVG 1.1//EN" "http://www.w3.org/Graphics/SVG/1.1/DTD/svg11.dtd">
<svg version="1.1" id="Layer_1" xmlns="http://www.w3.org/2000/svg" xmlns:xlink="http://www.w3.org/1999/xlink" x="0px" y="0px"
	 width="100px" height="100px" viewBox="0 0 100 100" enable-background="new 0 0 100 100" xml:space="preserve">
<g>
	<path d="M23.386,60.126V41.883h4.818l3.789,6.685c1.083,1.923,2.139,4.196,2.978,6.252h0.054c-0.244-2.408-0.325-4.871-0.325-7.632
		v-5.305h3.789v18.243h-4.331l-3.897-7.039c-1.083-1.946-2.301-4.303-3.167-6.44h-0.108c0.135,2.435,0.19,5.007,0.19,7.985v5.494
		H23.386z"/>
	<path d="M40.707,61.182l5.792-19.624h2.734l-5.792,19.624H40.707z"/>
	<path d="M55.269,55.444l-1.299,4.683h-4.25l5.549-18.243h5.413l5.685,18.243H61.9l-1.408-4.683H55.269z M59.897,52.358l-1.137-3.87
		c-0.324-1.083-0.649-2.437-0.92-3.52h-0.054c-0.271,1.083-0.541,2.464-0.839,3.52l-1.083,3.87H59.897z"/>
</g>
</svg>
