<?xml version="1.0" encoding="utf-8"?>
<!-- Generator: Adobe Illustrator 16.0.0, SVG Export Plug-In . SVG Version: 6.00 Build 0)  -->
<!DOCTYPE svg PUBLIC "-//W3C//DTD SVG 1.1//EN" "http://www.w3.org/Graphics/SVG/1.1/DTD/svg11.dtd">
<svg version="1.1" id="Layer_1" xmlns="http://www.w3.org/2000/svg" xmlns:xlink="http://www.w3.org/1999/xlink" x="0px" y="0px"
	 width="100px" height="100px" viewBox="0 0 100 100" enable-background="new 0 0 100 100" xml:space="preserve">
<g>
	<g>
		<g>
			<path d="M49.776,89.379h-14.23c-0.195,0-0.353-0.526-0.353-1.175c0-0.649,0.157-1.175,0.353-1.175h14.23
				c0.193,0,0.352,0.525,0.352,1.175C50.128,88.853,49.97,89.379,49.776,89.379z"/>
		</g>
	</g>
	<g>
		<path d="M55.373,89.379V75.92h3.554l2.796,4.932c0.799,1.418,1.577,3.096,2.196,4.613h0.04c-0.179-1.777-0.239-3.595-0.239-5.631
			V75.92h2.795v13.459H63.32l-2.876-5.191c-0.798-1.438-1.697-3.175-2.336-4.753h-0.08c0.101,1.797,0.14,3.694,0.14,5.891v4.054
			H55.373z"/>
	</g>
	<g>
		<path d="M55.209,60.039c-5.649,0-10.625-3.512-12.575-8.705c-1.832,0.895-3.84,1.363-5.885,1.363
			c-7.417,0-13.451-6.035-13.451-13.452s6.034-13.452,13.451-13.452c1.301,0,2.58,0.187,3.82,0.557
			c1.802-5.486,6.878-9.217,12.763-9.217c2.854,0,5.639,0.915,7.934,2.592c2.861-1.697,6.108-2.592,9.442-2.592
			c10.229,0,18.552,8.322,18.552,18.553c0,10.229-8.322,18.551-18.552,18.551c-1.365,0-2.746-0.159-4.119-0.477
			C64.133,57.656,59.853,60.039,55.209,60.039z M43.321,48.43c0.146,0,0.294,0.027,0.434,0.082c0.35,0.141,0.612,0.438,0.705,0.805
			c1.248,4.93,5.668,8.373,10.749,8.373c4.089,0,7.835-2.238,9.778-5.844c0.262-0.482,0.821-0.722,1.352-0.573
			c1.455,0.408,2.925,0.614,4.369,0.614c8.934,0,16.202-7.268,16.202-16.201c0-8.935-7.269-16.203-16.202-16.203
			c-3.158,0-6.227,0.918-8.872,2.656c-0.433,0.283-1.001,0.251-1.397-0.08c-1.991-1.661-4.515-2.576-7.106-2.576
			c-5.221,0-9.671,3.557-10.819,8.65c-0.076,0.336-0.297,0.623-0.603,0.782c-0.307,0.159-0.668,0.177-0.987,0.047
			c-1.336-0.544-2.74-0.819-4.174-0.819c-6.121,0-11.102,4.98-11.102,11.103s4.98,11.103,11.102,11.103
			c2.102,0,4.155-0.6,5.941-1.734C42.882,48.491,43.101,48.43,43.321,48.43z"/>
	</g>
</g>
</svg>
