<?xml version="1.0" encoding="utf-8"?>
<!-- Generator: Adobe Illustrator 16.0.0, SVG Export Plug-In . SVG Version: 6.00 Build 0)  -->
<!DOCTYPE svg PUBLIC "-//W3C//DTD SVG 1.1//EN" "http://www.w3.org/Graphics/SVG/1.1/DTD/svg11.dtd">
<svg version="1.1" id="Layer_1" xmlns="http://www.w3.org/2000/svg" xmlns:xlink="http://www.w3.org/1999/xlink" x="0px" y="0px"
	 width="100px" height="100px" viewBox="0 0 100 100" enable-background="new 0 0 100 100" xml:space="preserve">
<g>
	<g>
		<path d="M57.676,51.589c-6.48,0-11.748-5.27-11.748-11.746c0-6.479,5.268-11.748,11.748-11.748c6.477,0,11.747,5.27,11.747,11.748
			C69.423,46.319,64.152,51.589,57.676,51.589z"/>
	</g>
	<g>
		<path d="M58.824,25.079c-0.648,0-1.174-0.525-1.174-1.174V19.01c0-0.648,0.525-1.175,1.174-1.175S60,18.361,60,19.01v4.896
			C60,24.554,59.473,25.079,58.824,25.079z"/>
	</g>
	<g>
		<path d="M70.518,31.052c-0.301,0-0.602-0.114-0.831-0.344c-0.458-0.459-0.458-1.203,0-1.662l4.208-4.209
			c0.459-0.459,1.202-0.459,1.661,0s0.459,1.202,0,1.66l-4.208,4.211C71.118,30.938,70.818,31.052,70.518,31.052z"/>
	</g>
	<g>
		<path d="M45.26,31.052c-0.3,0-0.601-0.114-0.83-0.344l-4.21-4.211c-0.459-0.458-0.459-1.201,0-1.66
			c0.458-0.459,1.202-0.459,1.661,0l4.21,4.209c0.459,0.459,0.459,1.203,0,1.662C45.861,30.938,45.561,31.052,45.26,31.052z"/>
	</g>
	<g>
		<path d="M56.739,63.125c-0.649,0-1.175-0.526-1.175-1.176v-4.895c0-0.649,0.525-1.175,1.175-1.175
			c0.647,0,1.175,0.525,1.175,1.175v4.895C57.914,62.599,57.387,63.125,56.739,63.125z"/>
	</g>
	<g>
		<path d="M40.837,56.468c-0.301,0-0.602-0.115-0.831-0.345c-0.459-0.458-0.459-1.202,0-1.661l4.211-4.209
			c0.459-0.459,1.201-0.459,1.66,0c0.459,0.457,0.459,1.201,0,1.66l-4.209,4.21C41.438,56.353,41.137,56.468,40.837,56.468z"/>
	</g>
	<g>
		<path d="M74.512,56.468c-0.301,0-0.602-0.115-0.83-0.345l-4.209-4.21c-0.458-0.459-0.458-1.201,0-1.66
			c0.459-0.459,1.203-0.459,1.662,0l4.207,4.209c0.459,0.459,0.459,1.203,0,1.661C75.113,56.353,74.813,56.468,74.512,56.468z"/>
	</g>
	<g>
		<path d="M39.9,41.017h-5.286c-0.649,0-1.175-0.526-1.175-1.174c0-0.65,0.525-1.176,1.175-1.176H39.9
			c0.649,0,1.175,0.525,1.175,1.176C41.075,40.49,40.55,41.017,39.9,41.017z"/>
	</g>
	<g>
		<path d="M79.842,41.017h-6.266c-0.65,0-1.176-0.526-1.176-1.174c0-0.65,0.525-1.176,1.176-1.176h6.266
			c0.649,0,1.175,0.525,1.175,1.176C81.017,40.49,80.491,41.017,79.842,41.017z"/>
	</g>
	<g>
		<path d="M57.781,81.783H57.74l-2.477,1.178l-0.498-2.277l3.453-1.598h2.496v12.98h-2.934V81.783z"/>
	</g>
</g>
</svg>
