<?xml version="1.0" encoding="utf-8"?>
<!-- Generator: Adobe Illustrator 16.0.0, SVG Export Plug-In . SVG Version: 6.00 Build 0)  -->
<!DOCTYPE svg PUBLIC "-//W3C//DTD SVG 1.1//EN" "http://www.w3.org/Graphics/SVG/1.1/DTD/svg11.dtd">
<svg version="1.1" id="Layer_1" xmlns="http://www.w3.org/2000/svg" xmlns:xlink="http://www.w3.org/1999/xlink" x="0px" y="0px"
	 width="100px" height="100px" viewBox="0 0 100 100" enable-background="new 0 0 100 100" xml:space="preserve">
<g>
	<g>
		<path d="M55.59,93.484c-0.279-0.299-0.559-0.598-0.879-0.959c-0.877,0.68-2.096,1.178-3.693,1.178
			c-3.254,0-4.692-1.916-4.692-3.813c0-1.777,1.019-3.057,2.556-3.875v-0.059c-0.578-0.66-1.038-1.639-1.038-2.617
			c0-1.697,1.357-3.555,4.073-3.555c2.077,0,3.635,1.219,3.635,3.156c0,1.357-0.799,2.535-2.656,3.455l-0.02,0.078
			c0.778,0.879,1.598,1.857,2.256,2.537c0.539-0.859,0.959-2.098,1.139-3.295h2.717c-0.361,2.057-1.04,3.793-2.238,5.113
			c0.76,0.877,1.537,1.756,2.377,2.654H55.59z M53.295,90.83c-0.82-0.82-1.918-2.078-3.036-3.316
			c-0.559,0.42-1.059,0.998-1.059,1.877c0,1.158,0.858,2.117,2.276,2.117C52.235,91.508,52.895,91.207,53.295,90.83z M51.776,81.684
			c-0.778,0-1.197,0.678-1.197,1.377c0,0.68,0.298,1.279,0.938,1.938c0.977-0.658,1.457-1.197,1.457-1.977
			c0-0.639-0.379-1.338-1.158-1.338H51.776z"/>
	</g>
	<path d="M81.015,20.26c0-7.135-5.806-12.939-12.94-12.939c-2.172,0-4.311,0.549-6.213,1.594c-1.559-1.031-3.418-1.594-5.283-1.594
		c-3.931,0-7.416,2.373-8.861,5.965c-0.691-0.156-1.398-0.236-2.11-0.236c-5.274,0-9.565,4.293-9.565,9.566
		c0,0.809,0.111,1.588,0.301,2.338c-1.825,1.561-3.232,3.617-4.018,6.008c-1.24-0.369-2.52-0.557-3.82-0.557
		c-7.418,0-13.451,6.035-13.451,13.453c0,4.666,2.389,8.781,6.006,11.193c2.133,1.424,4.693,2.258,7.445,2.258
		c2.045,0,4.053-0.467,5.884-1.363c0.106,0.283,0.226,0.559,0.35,0.832c1.478,3.252,4.177,5.748,7.455,6.992
		c0.2,0.076,0.407,0.137,0.61,0.203l-3.434,5.861l3.818,2.643l-3.818,10.279l10.867-9.619l-5.434-3.303l5.434-5.615l-0.002-0.008
		c2.555-0.641,4.865-2.01,6.645-3.959c0.533-0.582,1.036-1.199,1.465-1.879c0.321,0.074,0.644,0.109,0.965,0.166
		c1.054,0.186,2.109,0.309,3.154,0.309c10.229,0,18.552-8.322,18.552-18.551c0-4.133-1.375-7.941-3.669-11.029
		C79.611,26.936,81.015,23.762,81.015,20.26z"/>
</g>
</svg>
