<?xml version="1.0" encoding="utf-8"?>
<!-- Generator: Adobe Illustrator 16.0.0, SVG Export Plug-In . SVG Version: 6.00 Build 0)  -->
<!DOCTYPE svg PUBLIC "-//W3C//DTD SVG 1.1//EN" "http://www.w3.org/Graphics/SVG/1.1/DTD/svg11.dtd">
<svg version="1.1" id="Layer_1" xmlns="http://www.w3.org/2000/svg" xmlns:xlink="http://www.w3.org/1999/xlink" x="0px" y="0px"
	 width="100px" height="100px" viewBox="0 0 100 100" enable-background="new 0 0 100 100" xml:space="preserve">
<g>
	<g>
		<path d="M45.049,78.83c-15.142,0-27.459-12.316-27.459-27.46c0-15.14,12.318-27.459,27.459-27.459S72.509,36.23,72.509,51.37
			C72.509,66.513,60.191,78.83,45.049,78.83z M45.049,29.784c-11.902,0-21.586,9.686-21.586,21.586
			c0,11.903,9.684,21.586,21.586,21.586s21.586-9.683,21.586-21.586C66.635,39.469,56.952,29.784,45.049,29.784z"/>
	</g>
	<g>
		<polygon points="35.466,60.671 41.584,47.945 54.632,42.071 48.78,54.015 		"/>
	</g>
</g>
</svg>
