<?xml version="1.0" encoding="utf-8"?>
<!-- Generator: Adobe Illustrator 16.0.0, SVG Export Plug-In . SVG Version: 6.00 Build 0)  -->
<!DOCTYPE svg PUBLIC "-//W3C//DTD SVG 1.1//EN" "http://www.w3.org/Graphics/SVG/1.1/DTD/svg11.dtd">
<svg version="1.1" id="Layer_1" xmlns="http://www.w3.org/2000/svg" xmlns:xlink="http://www.w3.org/1999/xlink" x="0px" y="0px"
	 width="100px" height="100px" viewBox="0 0 100 100" enable-background="new 0 0 100 100" xml:space="preserve">
<g>
	<g>
		<path d="M47.873,36.616c-0.648,0-1.175-0.527-1.175-1.175v-4.896c0-0.648,0.526-1.175,1.175-1.175s1.175,0.526,1.175,1.175v4.896
			C49.048,36.089,48.521,36.616,47.873,36.616z"/>
	</g>
	<g>
		<path d="M34.309,42.586c-0.301,0-0.602-0.114-0.83-0.343l-4.211-4.21c-0.458-0.459-0.458-1.203,0-1.662
			c0.459-0.458,1.203-0.458,1.662,0l4.209,4.21c0.459,0.458,0.459,1.2,0,1.661C34.91,42.472,34.609,42.586,34.309,42.586z"/>
	</g>
	<g>
		<path d="M30.099,54.007h-5.286c-0.648,0-1.175-0.525-1.175-1.175c0-0.648,0.526-1.175,1.175-1.175h5.286
			c0.649,0,1.175,0.526,1.175,1.175C31.273,53.482,30.748,54.007,30.099,54.007z"/>
	</g>
	<path d="M38.475,52.833c0-5.181,4.217-9.398,9.398-9.398s9.398,4.217,9.398,9.398c0,0.702-0.084,1.381-0.229,2.04h2.39
		c0.117-0.664,0.189-1.342,0.189-2.04c0-6.477-5.271-11.748-11.748-11.748s-11.748,5.271-11.748,11.748
		c0,0.697,0.072,1.375,0.189,2.04h2.39C38.559,54.213,38.475,53.535,38.475,52.833z"/>
	<path d="M59.565,42.586c0.301,0,0.601-0.114,0.831-0.343l4.209-4.21c0.459-0.459,0.459-1.204,0-1.662
		c-0.459-0.458-1.203-0.458-1.662,0l-4.209,4.21c-0.459,0.458-0.459,1.202,0,1.661C58.965,42.472,59.265,42.586,59.565,42.586z"/>
	<path d="M62.6,52.833c0,0.649,0.526,1.175,1.175,1.175h6.266c0.649,0,1.175-0.525,1.175-1.175c0-0.648-0.525-1.175-1.175-1.175
		h-6.266C63.126,51.658,62.6,52.184,62.6,52.833z"/>
	<g>
		<path d="M72.025,59.835H24.449c-0.648,0-1.176-0.528-1.176-1.175c0-0.649,0.527-1.175,1.176-1.175h47.576
			c0.649,0,1.176,0.525,1.176,1.175C73.201,59.307,72.675,59.835,72.025,59.835z"/>
	</g>
	<g>
		<path d="M71.298,66.883H23.721c-0.648,0-1.174-0.528-1.174-1.175c0-0.649,0.525-1.175,1.174-1.175h47.577
			c0.649,0,1.175,0.525,1.175,1.175C72.473,66.355,71.947,66.883,71.298,66.883z"/>
	</g>
	<g>
		<path d="M71.298,74.226H23.721c-0.648,0-1.174-0.528-1.174-1.175c0-0.649,0.525-1.175,1.174-1.175h47.577
			c0.649,0,1.175,0.525,1.175,1.175C72.473,73.698,71.947,74.226,71.298,74.226z"/>
	</g>
</g>
</svg>
