<?xml version="1.0" encoding="utf-8"?>
<!-- Generator: Adobe Illustrator 16.0.0, SVG Export Plug-In . SVG Version: 6.00 Build 0)  -->
<!DOCTYPE svg PUBLIC "-//W3C//DTD SVG 1.1//EN" "http://www.w3.org/Graphics/SVG/1.1/DTD/svg11.dtd">
<svg version="1.1" id="Layer_1" xmlns="http://www.w3.org/2000/svg" xmlns:xlink="http://www.w3.org/1999/xlink" x="0px" y="0px"
	 width="100px" height="100px" viewBox="0 0 100 100" enable-background="new 0 0 100 100" xml:space="preserve">
<g>
	<g>
		<path d="M44.951,76.768h3.035v10.901h5.352v2.557h-8.387V76.768z"/>
	</g>
	<g>
		<path d="M80.242,44.92H17.348c-0.857,0-1.555-0.526-1.555-1.175s0.697-1.175,1.555-1.175h62.895c0.857,0,1.553,0.526,1.553,1.175
			S81.1,44.92,80.242,44.92z"/>
	</g>
	<g>
		<path d="M80.242,51.968H17.348c-0.857,0-1.553-0.525-1.553-1.174s0.695-1.175,1.553-1.175h62.895c0.857,0,1.553,0.526,1.553,1.175
			S81.1,51.968,80.242,51.968z"/>
	</g>
	<g>
		<path d="M80.242,59.311H17.348c-0.857,0-1.553-0.526-1.553-1.175s0.695-1.175,1.553-1.175h62.895c0.857,0,1.553,0.526,1.553,1.175
			S81.1,59.311,80.242,59.311z"/>
	</g>
	<path d="M29.285,28.96c1.434,0,2.838,0.275,4.174,0.82c0.318,0.13,0.68,0.113,0.986-0.048c0.307-0.159,0.527-0.445,0.604-0.782
		c1.148-5.092,5.598-8.649,10.818-8.649c2.592,0,5.115,0.915,7.107,2.575c0.396,0.332,0.965,0.363,1.396,0.08
		c2.646-1.737,5.715-2.655,8.873-2.655c8.934,0,16.201,7.269,16.201,16.202c0,0.992-0.102,1.959-0.273,2.902h2.373
		c0.15-0.949,0.25-1.913,0.25-2.902c0-10.229-8.322-18.552-18.551-18.552c-3.336,0-6.582,0.894-9.443,2.592
		c-2.295-1.677-5.08-2.592-7.934-2.592c-5.885,0-10.961,3.729-12.762,9.216c-1.24-0.369-2.52-0.556-3.82-0.556
		c-7.195,0-13.072,5.683-13.418,12.794h2.35C18.561,33.59,23.385,28.96,29.285,28.96z"/>
</g>
</svg>
