<?xml version="1.0" encoding="utf-8"?>
<!-- Generator: Adobe Illustrator 16.0.0, SVG Export Plug-In . SVG Version: 6.00 Build 0)  -->
<!DOCTYPE svg PUBLIC "-//W3C//DTD SVG 1.1//EN" "http://www.w3.org/Graphics/SVG/1.1/DTD/svg11.dtd">
<svg version="1.1" id="Layer_1" xmlns="http://www.w3.org/2000/svg" xmlns:xlink="http://www.w3.org/1999/xlink" x="0px" y="0px"
	 width="100px" height="100px" viewBox="0 0 100 100" enable-background="new 0 0 100 100" xml:space="preserve">
<g>
	<path d="M41.322,50.731c0-5.596,3.517-10.376,8.564-12.152c-1.017,1.756-1.557,3.755-1.557,5.847
		c0,6.478,5.27,11.748,11.748,11.748c2.367,0,4.636-0.704,6.55-1.994c-0.202,0.741-0.472,1.451-0.795,2.131h2.547
		c0.622-1.602,1-3.33,1.05-5.154c0.015-0.501-0.292-0.958-0.763-1.133c-0.469-0.173-1-0.033-1.319,0.356
		c-1.795,2.188-4.444,3.444-7.27,3.444c-5.182,0-9.398-4.217-9.398-9.398c0-2.608,1.053-5.036,2.963-6.836
		c0.366-0.344,0.472-0.883,0.264-1.341c-0.208-0.457-0.681-0.735-1.183-0.684c-7.839,0.762-13.751,7.28-13.751,15.166
		c0,1.97,0.388,3.848,1.073,5.58h2.565C41.793,54.62,41.322,52.731,41.322,50.731z"/>
	<g>
		<path d="M74.475,62.449h-45.37c-0.619,0-1.121-0.528-1.121-1.175c0-0.649,0.502-1.175,1.121-1.175h45.37
			c0.62,0,1.121,0.525,1.121,1.175C75.595,61.921,75.094,62.449,74.475,62.449z"/>
	</g>
	<g>
		<path d="M74.475,69.498h-45.37c-0.62,0-1.121-0.528-1.121-1.175c0-0.649,0.501-1.175,1.121-1.175h45.37
			c0.618,0,1.121,0.525,1.121,1.175C75.595,68.97,75.093,69.498,74.475,69.498z"/>
	</g>
	<g>
		<path d="M74.475,76.84h-45.37c-0.62,0-1.121-0.528-1.121-1.175c0-0.649,0.501-1.175,1.121-1.175h45.37
			c0.618,0,1.121,0.525,1.121,1.175C75.595,76.312,75.093,76.84,74.475,76.84z"/>
	</g>
</g>
</svg>
