<?xml version="1.0" encoding="utf-8"?>
<!-- Generator: Adobe Illustrator 16.0.0, SVG Export Plug-In . SVG Version: 6.00 Build 0)  -->
<!DOCTYPE svg PUBLIC "-//W3C//DTD SVG 1.1//EN" "http://www.w3.org/Graphics/SVG/1.1/DTD/svg11.dtd">
<svg version="1.1" id="Layer_1" xmlns="http://www.w3.org/2000/svg" xmlns:xlink="http://www.w3.org/1999/xlink" x="0px" y="0px"
	 width="100px" height="100px" viewBox="0 0 100 100" enable-background="new 0 0 100 100" xml:space="preserve">
<g>
	<g>
		<path d="M47.169,78.94v13.458h-3.035V78.94H47.169z"/>
	</g>
	<path d="M87.075,31.375c0.016-0.502-0.291-0.957-0.764-1.133c-0.467-0.174-1-0.033-1.318,0.355
		c-1.795,2.189-4.443,3.444-7.27,3.444c-5.182,0-9.398-4.216-9.398-9.397c0-2.609,1.053-5.036,2.963-6.836
		c0.367-0.345,0.473-0.884,0.266-1.341c-0.209-0.457-0.682-0.734-1.184-0.684c-7.521,0.73-13.252,6.764-13.707,14.212
		c-2.021-1.199-4.377-1.881-6.883-1.881c-0.119,0-0.238,0.012-0.357,0.015c-0.969,0.026-1.93,0.149-2.861,0.38
		c-1.693,0.419-3.299,1.162-4.715,2.197c-2.861-1.698-6.107-2.592-9.443-2.592c-10.229,0-18.551,8.322-18.551,18.552
		s8.322,18.552,18.551,18.552c1.365,0,2.746-0.16,4.119-0.476c2.457,3.895,6.736,6.278,11.381,6.278
		c5.648,0,10.625-3.512,12.574-8.706c1.832,0.896,3.84,1.364,5.885,1.364c7.418,0,13.451-6.034,13.451-13.452
		c0-1.999-0.445-3.892-1.232-5.597C83.503,42.226,86.913,37.259,87.075,31.375z M66.362,61.33c-2.102,0-4.154-0.6-5.941-1.735
		c-0.191-0.121-0.41-0.183-0.631-0.183c-0.146,0-0.293,0.027-0.434,0.082c-0.35,0.14-0.611,0.439-0.705,0.804
		c-1.248,4.931-5.668,8.374-10.748,8.374c-4.09,0-7.836-2.238-9.779-5.844c-0.262-0.482-0.82-0.722-1.352-0.573
		c-1.455,0.407-2.924,0.614-4.369,0.614c-8.934,0-16.201-7.268-16.201-16.202c0-8.934,7.268-16.202,16.201-16.202
		c3.158,0,6.227,0.919,8.873,2.656c0.434,0.283,1,0.25,1.396-0.081c0.932-0.775,1.98-1.382,3.096-1.814
		c0.82-0.318,1.676-0.536,2.553-0.653c0.482-0.064,0.969-0.107,1.459-0.107c2.631,0,5.064,0.905,6.98,2.454
		c1.885,1.523,3.27,3.67,3.838,6.196c0.078,0.336,0.297,0.622,0.604,0.781c0.307,0.161,0.668,0.178,0.986,0.047
		c0.113-0.046,0.23-0.078,0.344-0.121c1.234-0.456,2.518-0.697,3.83-0.697c3.559,0,6.723,1.689,8.756,4.302
		c0.5,0.641,0.928,1.338,1.277,2.08c0.678,1.435,1.068,3.031,1.068,4.721C77.464,56.35,72.483,61.33,66.362,61.33z M77.411,42.588
		c-2.055-2.955-5.258-5.055-8.967-5.635c-0.68-0.105-1.371-0.178-2.082-0.178c-0.123,0-0.244,0.01-0.367,0.014
		c-1.174,0.031-2.33,0.209-3.453,0.543c-0.713-2.172-1.945-4.063-3.533-5.563c-0.016-0.272-0.041-0.544-0.041-0.821
		c0-5.593,3.518-10.375,8.564-12.15c-1.016,1.758-1.557,3.754-1.557,5.847c0,6.479,5.27,11.747,11.748,11.747
		c2.367,0,4.635-0.705,6.549-1.993C83.28,38.045,80.745,41.007,77.411,42.588z"/>
</g>
</svg>
