<?xml version="1.0" encoding="utf-8"?>
<!-- Generator: Adobe Illustrator 16.0.0, SVG Export Plug-In . SVG Version: 6.00 Build 0)  -->
<!DOCTYPE svg PUBLIC "-//W3C//DTD SVG 1.1//EN" "http://www.w3.org/Graphics/SVG/1.1/DTD/svg11.dtd">
<svg version="1.1" id="Layer_1" xmlns="http://www.w3.org/2000/svg" xmlns:xlink="http://www.w3.org/1999/xlink" x="0px" y="0px"
	 width="100px" height="100px" viewBox="0 0 100 100" enable-background="new 0 0 100 100" xml:space="preserve">
<g>
	<g>
		<path d="M60.762,96.277c-1.918-0.559-3.516-1.158-5.332-1.897c-0.3-0.12-0.619-0.179-0.918-0.199
			c-3.057-0.2-5.893-2.437-5.893-6.85c0-4.054,2.557-7.068,6.592-7.068c4.093,0,6.35,3.115,6.35,6.81
			c0,3.055-1.418,5.211-3.176,6.01v0.081c1.019,0.299,2.178,0.558,3.234,0.758L60.762,96.277z M58.346,87.191
			c0-2.475-1.158-4.513-3.235-4.513c-2.076,0-3.275,2.038-3.275,4.573c0,2.557,1.219,4.514,3.275,4.514
			C57.166,91.766,58.346,89.827,58.346,87.191z"/>
	</g>
	<path d="M55.978,62.33c0,1.865-1.512,3.377-3.377,3.377c-1.866,0-3.378-1.512-3.378-3.377c0-1.866,3.378-6.901,3.378-6.901
		S55.978,60.464,55.978,62.33z"/>
	<g>
		<path d="M52.799,53.142c-5.65,0-10.625-3.513-12.576-8.706c-1.832,0.895-3.84,1.363-5.885,1.363
			c-7.416,0-13.451-6.034-13.451-13.451c0-7.418,6.035-13.453,13.451-13.453c1.301,0,2.58,0.188,3.82,0.557
			c1.803-5.486,6.878-9.216,12.764-9.216c2.854,0,5.639,0.914,7.934,2.592c2.86-1.698,6.107-2.592,9.441-2.592
			c10.23,0,18.553,8.321,18.553,18.552c0,10.229-8.322,18.551-18.553,18.551c-1.364,0-2.746-0.159-4.118-0.476
			C61.722,50.758,57.442,53.142,52.799,53.142z M40.91,41.531c0.146,0,0.295,0.027,0.435,0.083c0.35,0.14,0.612,0.438,0.704,0.804
			c1.248,4.931,5.668,8.374,10.75,8.374c4.088,0,7.835-2.239,9.778-5.844c0.261-0.483,0.821-0.722,1.351-0.573
			c1.455,0.407,2.926,0.613,4.369,0.613c8.935,0,16.203-7.268,16.203-16.201s-7.269-16.202-16.203-16.202
			c-3.158,0-6.226,0.917-8.871,2.655c-0.434,0.283-1.001,0.252-1.398-0.08c-1.99-1.661-4.515-2.575-7.105-2.575
			c-5.221,0-9.671,3.556-10.82,8.649c-0.076,0.336-0.297,0.623-0.603,0.783c-0.306,0.159-0.667,0.176-0.986,0.046
			c-1.337-0.543-2.741-0.819-4.175-0.819c-6.121,0-11.102,4.98-11.102,11.104c0,6.121,4.98,11.102,11.102,11.102
			c2.102,0,4.156-0.6,5.941-1.734C40.471,41.594,40.689,41.531,40.91,41.531z"/>
	</g>
</g>
</svg>
