<?xml version="1.0" encoding="utf-8"?>
<!-- Generator: Adobe Illustrator 16.0.0, SVG Export Plug-In . SVG Version: 6.00 Build 0)  -->
<!DOCTYPE svg PUBLIC "-//W3C//DTD SVG 1.1//EN" "http://www.w3.org/Graphics/SVG/1.1/DTD/svg11.dtd">
<svg version="1.1" id="Layer_1" xmlns="http://www.w3.org/2000/svg" xmlns:xlink="http://www.w3.org/1999/xlink" x="0px" y="0px"
	 width="100px" height="100px" viewBox="0 0 100 100" enable-background="new 0 0 100 100" xml:space="preserve">
<g>
	<path d="M65.101,43h-0.055c-0.271,1-0.542,2.269-0.84,3.323L63.124,50h4.033l-1.136-3.677C65.696,45.242,65.372,44,65.101,43z"/>
	<path d="M52.183,22.095c-15.142,0-27.46,12.317-27.46,27.459s12.318,27.459,27.46,27.459s27.46-12.317,27.46-27.459
		S67.325,22.095,52.183,22.095z M46,58h-4.582l-3.896-7.299C36.44,48.752,35.221,47,34.354,44h-0.107C34.381,47,34,49.554,34,52.531
		V58h-4V40h5.464l3.79,6.717C40.337,48.639,41.393,51,42.231,53h0.055C42.042,50,42,47.849,42,45.089V40h4V58z M50.702,59h-2.735
		l5.794-20h2.732L50.702,59z M69.161,58l-1.407-5H62.53l-1.299,5h-4.252l5.551-18h5.412l5.686,18H69.161z"/>
</g>
</svg>
