<?xml version="1.0" encoding="utf-8"?>
<!-- Generator: Adobe Illustrator 16.0.0, SVG Export Plug-In . SVG Version: 6.00 Build 0)  -->
<!DOCTYPE svg PUBLIC "-//W3C//DTD SVG 1.1//EN" "http://www.w3.org/Graphics/SVG/1.1/DTD/svg11.dtd">
<svg version="1.1" id="Layer_1" xmlns="http://www.w3.org/2000/svg" xmlns:xlink="http://www.w3.org/1999/xlink" x="0px" y="0px"
	 width="100px" height="100px" viewBox="0 0 100 100" enable-background="new 0 0 100 100" xml:space="preserve">
<g>
	<path d="M40.042,58.03c0.649,0,1.175-0.526,1.175-1.174c0-5.182,4.216-9.398,9.398-9.398c5.182,0,9.398,4.216,9.398,9.398
		c0,0.648,0.526,1.174,1.175,1.174c0.649,0,1.175-0.526,1.175-1.174c0-6.478-5.27-11.748-11.748-11.748
		c-6.478,0-11.747,5.27-11.747,11.748C38.868,57.504,39.394,58.03,40.042,58.03z"/>
	<path d="M50.615,42.987c0.649,0,1.175-0.527,1.175-1.175v-6.461c0-0.649-0.526-1.175-1.175-1.175c-0.648,0-1.174,0.525-1.174,1.175
		v6.461C49.44,42.46,49.966,42.987,50.615,42.987z"/>
	<path d="M39.388,47.228c0.459-0.459,0.459-1.203,0-1.661l-4.584-4.585c-0.459-0.458-1.203-0.458-1.661,0
		c-0.459,0.459-0.459,1.203,0,1.661l4.584,4.585c0.229,0.229,0.53,0.344,0.831,0.344C38.858,47.572,39.159,47.457,39.388,47.228z"/>
	<path d="M67.696,40.981c-0.459-0.458-1.202-0.458-1.661,0l-3.858,3.858c-0.459,0.459-0.459,1.203,0,1.661
		c0.229,0.229,0.53,0.344,0.83,0.344c0.301,0,0.602-0.115,0.831-0.344l3.858-3.858C68.155,42.184,68.155,41.441,67.696,40.981z"/>
	<path d="M61.93,59.824H39.3c-0.648,0-1.175,0.525-1.175,1.175c0,0.649,0.526,1.175,1.175,1.175h22.63
		c0.649,0,1.175-0.526,1.175-1.175C63.104,60.35,62.579,59.824,61.93,59.824z"/>
	<path d="M59.132,67.069H42.098c-0.649,0-1.175,0.525-1.175,1.175c0,0.648,0.526,1.175,1.175,1.175h17.034
		c0.648,0,1.175-0.527,1.175-1.175C60.307,67.595,59.78,67.069,59.132,67.069z"/>
</g>
</svg>
