<?xml version="1.0" encoding="utf-8"?>
<!-- Generator: Adobe Illustrator 16.0.0, SVG Export Plug-In . SVG Version: 6.00 Build 0)  -->
<!DOCTYPE svg PUBLIC "-//W3C//DTD SVG 1.1//EN" "http://www.w3.org/Graphics/SVG/1.1/DTD/svg11.dtd">
<svg version="1.1" id="Layer_1" xmlns="http://www.w3.org/2000/svg" xmlns:xlink="http://www.w3.org/1999/xlink" x="0px" y="0px"
	 width="100px" height="100px" viewBox="0 0 100 100" enable-background="new 0 0 100 100" xml:space="preserve">
<g>
	<g>
		<path d="M62.941,33.864c-1.201,0-2.359,0.184-3.451,0.52c-1.092-0.336-2.25-0.52-3.45-0.52c-6.478,0-11.747,5.271-11.747,11.748
			c0,6.479,5.27,11.747,11.747,11.747c1.2,0,2.358-0.183,3.45-0.519c1.092,0.336,2.25,0.519,3.451,0.519
			c6.478,0,11.748-5.269,11.748-11.747C74.689,39.135,69.418,33.864,62.941,33.864z M46.642,45.612c0-5.14,4.148-9.324,9.271-9.391
			c-2.859,2.144-4.72,5.55-4.72,9.391s1.86,7.246,4.72,9.392C50.791,54.936,46.642,50.752,46.642,45.612z"/>
		<path d="M56.04,29.394c0.648,0,1.175-0.525,1.175-1.174v-4.896c0-0.649-0.526-1.175-1.175-1.175c-0.649,0-1.175,0.525-1.175,1.175
			v4.896C54.865,28.868,55.39,29.394,56.04,29.394z"/>
		<path d="M41.644,35.021c0.23,0.229,0.53,0.344,0.831,0.344c0.3,0,0.601-0.114,0.831-0.344c0.459-0.458,0.459-1.202,0-1.661
			l-4.211-4.209c-0.459-0.459-1.202-0.459-1.661,0s-0.459,1.201,0,1.661L41.644,35.021z"/>
		<path d="M55.103,61.649c-0.648,0-1.174,0.527-1.174,1.176v4.895c0,0.65,0.525,1.176,1.174,1.176s1.176-0.525,1.176-1.176v-4.895
			C56.279,62.177,55.751,61.649,55.103,61.649z"/>
		<path d="M42.581,56.022l-4.21,4.21c-0.459,0.459-0.459,1.203,0,1.661c0.229,0.229,0.529,0.344,0.83,0.344s0.602-0.114,0.83-0.344
			l4.211-4.209c0.459-0.459,0.459-1.203,0-1.662S43.04,55.563,42.581,56.022z"/>
		<path d="M39.439,45.612c0-0.648-0.525-1.175-1.174-1.175h-5.287c-0.648,0-1.174,0.526-1.174,1.175s0.525,1.174,1.174,1.174h5.287
			C38.914,46.786,39.439,46.261,39.439,45.612z"/>
	</g>
	<g>
		<path d="M47.641,72.628c1.118-0.18,2.575-0.299,4.093-0.299c2.576,0,4.253,0.48,5.531,1.438c1.398,1.039,2.277,2.695,2.277,5.072
			c0,2.576-0.939,4.354-2.217,5.451c-1.418,1.178-3.594,1.738-6.23,1.738c-1.578,0-2.715-0.1-3.454-0.199V72.628z M50.675,83.591
			c0.26,0.061,0.699,0.061,1.059,0.061c2.775,0.02,4.592-1.498,4.592-4.713c0-2.795-1.637-4.273-4.271-4.273
			c-0.66,0-1.119,0.061-1.379,0.121V83.591z"/>
	</g>
</g>
</svg>
