<?xml version="1.0" encoding="utf-8"?>
<!-- Generator: Adobe Illustrator 16.0.0, SVG Export Plug-In . SVG Version: 6.00 Build 0)  -->
<!DOCTYPE svg PUBLIC "-//W3C//DTD SVG 1.1//EN" "http://www.w3.org/Graphics/SVG/1.1/DTD/svg11.dtd">
<svg version="1.1" id="Layer_1" xmlns="http://www.w3.org/2000/svg" xmlns:xlink="http://www.w3.org/1999/xlink" x="0px" y="0px"
	 width="100px" height="100px" viewBox="0 0 100 100" enable-background="new 0 0 100 100" xml:space="preserve">
<path d="M79.381,35.222c0-7.136-5.805-12.94-12.94-12.94c-2.172,0-4.311,0.549-6.212,1.593c-1.559-1.031-3.418-1.593-5.284-1.593
	c-3.93,0-7.416,2.372-8.861,5.965c-0.691-0.157-1.398-0.236-2.11-0.236c-5.275,0-9.566,4.292-9.566,9.566
	c0,0.695,0.079,1.371,0.22,2.025c-2.592,1.624-4.601,4.123-5.6,7.165c-1.24-0.369-2.52-0.555-3.82-0.555
	c-7.417,0-13.452,6.034-13.452,13.452s6.035,13.452,13.452,13.452c2.045,0,4.053-0.468,5.884-1.365
	c1.951,5.194,6.926,8.707,12.576,8.707c4.644,0,8.923-2.384,11.38-6.28c1.373,0.317,2.753,0.477,4.119,0.477
	c10.229,0,18.552-8.323,18.552-18.552c0-3.963-1.26-7.632-3.386-10.65C77.396,43.084,79.381,39.384,79.381,35.222z"/>
</svg>
