<?xml version="1.0" encoding="utf-8"?>
<!-- Generator: Adobe Illustrator 16.0.0, SVG Export Plug-In . SVG Version: 6.00 Build 0)  -->
<!DOCTYPE svg PUBLIC "-//W3C//DTD SVG 1.1//EN" "http://www.w3.org/Graphics/SVG/1.1/DTD/svg11.dtd">
<svg version="1.1" id="Layer_1" xmlns="http://www.w3.org/2000/svg" xmlns:xlink="http://www.w3.org/1999/xlink" x="0px" y="0px"
	 width="100px" height="100px" viewBox="0 0 100 100" enable-background="new 0 0 100 100" xml:space="preserve">
<g>
	<g>
		<path d="M52.213,95.508c0.539,0.301,1.777,0.799,3.016,0.799c1.578,0,2.376-0.758,2.376-1.717c0-1.298-1.278-1.877-2.616-1.877
			h-1.237v-2.176h1.198c1.018,0,2.297-0.4,2.297-1.498c0-0.779-0.619-1.359-1.918-1.359c-1.057,0-2.177,0.461-2.695,0.779
			l-0.619-2.195c0.779-0.5,2.316-0.979,4.014-0.979c2.756,0,4.294,1.457,4.294,3.234c0,1.378-0.78,2.476-2.377,3.016v0.039
			c1.558,0.28,2.815,1.459,2.815,3.176c0,2.276-2.018,3.953-5.313,3.953c-1.677,0-3.095-0.439-3.854-0.898L52.213,95.508z"/>
	</g>
	<g>
		<path d="M47.604,18.441c0.648,0,1.174-0.525,1.174-1.176v-4.895c0-0.648-0.525-1.174-1.174-1.174s-1.175,0.525-1.175,1.174v4.895
			C46.429,17.916,46.955,18.441,47.604,18.441z"/>
		<path d="M59.295,24.413c0.301,0,0.602-0.114,0.831-0.345l4.21-4.209c0.458-0.459,0.458-1.203,0-1.661
			c-0.459-0.459-1.203-0.459-1.662,0l-4.209,4.21c-0.459,0.459-0.459,1.203,0,1.66C58.694,24.299,58.995,24.413,59.295,24.413z"/>
		<path d="M33.208,24.068c0.229,0.23,0.53,0.345,0.831,0.345s0.601-0.114,0.83-0.345c0.459-0.459,0.459-1.201,0-1.66l-4.209-4.21
			c-0.459-0.459-1.203-0.459-1.662,0c-0.459,0.46-0.459,1.202,0,1.661L33.208,24.068z"/>
		<path d="M31.004,34.66c0-0.649-0.526-1.176-1.175-1.176h-5.286c-0.648,0-1.175,0.526-1.175,1.176c0,0.648,0.526,1.174,1.175,1.174
			h5.286C30.478,35.834,31.004,35.309,31.004,34.66z"/>
		<path d="M72.551,29.59c-3.336,0-6.582,0.893-9.443,2.592c-1.417-1.036-3.022-1.779-4.715-2.197
			c-2.186-5.055-7.717-8.033-13.293-6.813c-6.328,1.388-10.347,7.664-8.961,13.99c0.096,0.437,0.227,0.854,0.37,1.266
			c-6.43,1.006-11.369,6.566-11.369,13.273c0,7.418,6.034,13.453,13.452,13.453c2.045,0,4.053-0.469,5.884-1.364
			c1.95,5.194,6.927,8.706,12.575,8.706c4.645,0,8.924-2.384,11.381-6.279c1.373,0.316,2.754,0.477,4.119,0.477
			c10.229,0,18.551-8.322,18.551-18.552S82.779,29.59,72.551,29.59z M45.603,25.469c3.952-0.867,7.868,0.91,9.929,4.136
			c-0.119-0.003-0.238-0.015-0.357-0.015c-5.885,0-10.961,3.729-12.762,9.217c-1.123-0.335-2.28-0.512-3.454-0.544
			c-0.216-0.512-0.4-1.042-0.523-1.603C37.325,31.599,40.541,26.578,45.603,25.469z"/>
	</g>
</g>
</svg>
