<?xml version="1.0" encoding="utf-8"?>
<!-- Generator: Adobe Illustrator 16.0.0, SVG Export Plug-In . SVG Version: 6.00 Build 0)  -->
<!DOCTYPE svg PUBLIC "-//W3C//DTD SVG 1.1//EN" "http://www.w3.org/Graphics/SVG/1.1/DTD/svg11.dtd">
<svg version="1.1" id="Layer_1" xmlns="http://www.w3.org/2000/svg" xmlns:xlink="http://www.w3.org/1999/xlink" x="0px" y="0px"
	 width="100px" height="100px" viewBox="0 0 100 100" enable-background="new 0 0 100 100" xml:space="preserve">
<g>
	<g>
		<path d="M35.58,51.964H21.35c-0.194,0-0.352-0.526-0.352-1.175c0-0.649,0.157-1.175,0.352-1.175h14.23
			c0.194,0,0.352,0.525,0.352,1.175C35.932,51.438,35.774,51.964,35.58,51.964z"/>
	</g>
	<g>
		<path d="M34.982,59.013H17.814c-0.233,0-0.425-0.526-0.425-1.175c0-0.649,0.191-1.175,0.425-1.175h17.168
			c0.233,0,0.424,0.525,0.424,1.175C35.406,58.487,35.216,59.013,34.982,59.013z"/>
	</g>
	<g>
		<path d="M35.067,66.355h-13.73c-0.188,0-0.339-0.526-0.339-1.175c0-0.649,0.151-1.175,0.339-1.175h13.73
			c0.188,0,0.339,0.525,0.339,1.175C35.406,65.829,35.255,66.355,35.067,66.355z"/>
	</g>
	<path d="M70.066,41.339c-2.173,0-4.312,0.551-6.213,1.595c-1.558-1.03-3.418-1.595-5.284-1.595c-3.93,0-7.416,2.373-8.861,5.967
		c-0.691-0.157-1.398-0.236-2.109-0.236c-5.275,0-9.566,4.291-9.566,9.566c0,5.274,4.291,9.565,9.566,9.565
		c1.206,0,2.418-0.235,3.541-0.684c1.549,3.342,4.949,5.542,8.672,5.542c3.147,0,6.043-1.515,7.834-4.076
		c0.809,0.157,1.621,0.236,2.421,0.236c7.136,0,12.94-5.805,12.94-12.94C83.007,47.145,77.202,41.339,70.066,41.339z M70.066,64.333
		c-0.894,0-1.806-0.128-2.712-0.382c-0.127-0.035-0.258-0.054-0.389-0.054c-0.531,0-1.019,0.291-1.27,0.759
		c-1.17,2.169-3.426,3.517-5.885,3.517c-3.057,0-5.715-2.071-6.467-5.037c-0.112-0.449-0.436-0.817-0.861-0.987
		c-0.17-0.068-0.352-0.103-0.537-0.103c-0.275,0-0.543,0.078-0.774,0.225c-1.074,0.684-2.31,1.044-3.573,1.044
		c-3.684,0-6.68-2.996-6.68-6.679c0-3.684,2.996-6.681,6.68-6.681c0.861,0,1.706,0.166,2.51,0.492
		c0.174,0.071,0.357,0.108,0.545,0.108c0.232,0,0.463-0.058,0.667-0.164c0.376-0.196,0.646-0.548,0.741-0.962
		c0.691-3.064,3.367-5.205,6.508-5.205c1.559,0,3.077,0.551,4.275,1.549c0.259,0.217,0.588,0.336,0.926,0.336
		c0.281,0,0.553-0.081,0.791-0.236c1.643-1.078,3.546-1.648,5.505-1.648c5.544,0,10.054,4.511,10.054,10.055
		S75.61,64.333,70.066,64.333z"/>
</g>
</svg>
