<?xml version="1.0" encoding="utf-8"?>
<!-- Generator: Adobe Illustrator 16.0.0, SVG Export Plug-In . SVG Version: 6.00 Build 0)  -->
<!DOCTYPE svg PUBLIC "-//W3C//DTD SVG 1.1//EN" "http://www.w3.org/Graphics/SVG/1.1/DTD/svg11.dtd">
<svg version="1.1" id="Layer_1" xmlns="http://www.w3.org/2000/svg" xmlns:xlink="http://www.w3.org/1999/xlink" x="0px" y="0px"
	 width="100px" height="100px" viewBox="0 0 100 100" enable-background="new 0 0 100 100" xml:space="preserve">
<g>
	<g>
		<path d="M50.634,80.293c0.799,0.42,2.076,0.839,3.375,0.839c1.398,0,2.137-0.579,2.137-1.458c0-0.838-0.639-1.317-2.257-1.877
			c-2.236-0.799-3.714-2.037-3.714-3.994c0-2.295,1.938-4.033,5.092-4.033c1.537,0,2.636,0.299,3.435,0.68l-0.679,2.436
			c-0.52-0.26-1.498-0.64-2.795-0.64c-1.318,0-1.957,0.62-1.957,1.298c0,0.859,0.738,1.238,2.495,1.898
			c2.376,0.879,3.476,2.116,3.476,4.013c0,2.257-1.719,4.173-5.412,4.173c-1.537,0-3.056-0.42-3.814-0.838L50.634,80.293z"/>
	</g>
	<g>
		<path d="M37.644,33.508h-14.23c-0.195,0-0.352-0.525-0.352-1.174s0.156-1.175,0.352-1.175h14.23c0.193,0,0.352,0.526,0.352,1.175
			S37.837,33.508,37.644,33.508z"/>
	</g>
	<g>
		<path d="M37.046,40.557H19.878c-0.234,0-0.425-0.525-0.425-1.174s0.19-1.176,0.425-1.176h17.168c0.234,0,0.424,0.527,0.424,1.176
			S37.28,40.557,37.046,40.557z"/>
	</g>
	<g>
		<path d="M37.13,47.898h-13.73c-0.186,0-0.338-0.525-0.338-1.174s0.152-1.176,0.338-1.176h13.73c0.188,0,0.34,0.527,0.34,1.176
			S37.317,47.898,37.13,47.898z"/>
	</g>
	<path d="M72.13,22.885c-2.173,0-4.312,0.549-6.213,1.594c-1.559-1.031-3.418-1.594-5.284-1.594c-3.931,0-7.415,2.373-8.862,5.965
		c-0.691-0.156-1.398-0.236-2.109-0.236c-5.275,0-9.566,4.293-9.566,9.567s4.291,9.565,9.566,9.565c1.207,0,2.418-0.235,3.543-0.685
		c1.548,3.343,4.948,5.543,8.67,5.543c3.148,0,6.043-1.515,7.834-4.075c0.809,0.156,1.621,0.235,2.422,0.235
		c7.135,0,12.939-5.806,12.939-12.94S79.265,22.885,72.13,22.885z M72.13,45.879c-0.895,0-1.807-0.129-2.713-0.383
		c-0.127-0.035-0.258-0.054-0.389-0.054c-0.531,0-1.018,0.292-1.27,0.759c-1.17,2.169-3.425,3.517-5.885,3.517
		c-3.056,0-5.715-2.071-6.466-5.037c-0.112-0.448-0.437-0.817-0.862-0.987c-0.17-0.068-0.352-0.103-0.537-0.103
		c-0.275,0-0.543,0.077-0.773,0.225c-1.074,0.685-2.311,1.044-3.574,1.044c-3.684,0-6.68-2.996-6.68-6.679
		c0-3.685,2.996-6.681,6.68-6.681c0.861,0,1.707,0.166,2.51,0.493c0.174,0.07,0.357,0.106,0.545,0.106
		c0.232,0,0.463-0.057,0.668-0.164c0.376-0.195,0.646-0.546,0.74-0.961c0.691-3.064,3.368-5.204,6.509-5.204
		c1.558,0,3.077,0.55,4.274,1.548c0.26,0.217,0.588,0.336,0.926,0.336c0.281,0,0.555-0.081,0.791-0.236
		c1.643-1.078,3.547-1.647,5.506-1.647c5.543,0,10.053,4.511,10.053,10.054C82.183,41.369,77.673,45.879,72.13,45.879z"/>
</g>
</svg>
