<?xml version="1.0" encoding="utf-8"?>
<!-- Generator: Adobe Illustrator 16.0.0, SVG Export Plug-In . SVG Version: 6.00 Build 0)  -->
<!DOCTYPE svg PUBLIC "-//W3C//DTD SVG 1.1//EN" "http://www.w3.org/Graphics/SVG/1.1/DTD/svg11.dtd">
<svg version="1.1" id="Layer_1" xmlns="http://www.w3.org/2000/svg" xmlns:xlink="http://www.w3.org/1999/xlink" x="0px" y="0px"
	 width="100px" height="100px" viewBox="0 0 100 100" enable-background="new 0 0 100 100" xml:space="preserve">
<g>
	<g>
		<path d="M52.313,97.779v-3.095h-5.752v-1.978l4.893-7.908h3.734v7.608h1.537v2.277h-1.537v3.095H52.313z M52.313,92.407v-2.876
			c0-0.777,0.039-1.578,0.079-2.415h-0.06c-0.42,0.837-0.779,1.597-1.219,2.415l-1.717,2.836l-0.021,0.04H52.313z"/>
	</g>
	<path d="M93.85,27.721c0.015-0.502-0.292-0.958-0.764-1.135c-0.468-0.174-1-0.033-1.318,0.356
		c-1.795,2.188-4.445,3.444-7.271,3.444c-5.182,0-9.397-4.216-9.397-9.398c0-2.609,1.053-5.035,2.963-6.835
		c0.366-0.345,0.473-0.884,0.265-1.341s-0.682-0.734-1.184-0.684c-7.521,0.729-13.251,6.763-13.706,14.213
		c-2.022-1.2-4.378-1.881-6.884-1.881c-0.119,0-0.237,0.01-0.356,0.014c-0.97,0.025-1.93,0.15-2.862,0.381
		c-1.692,0.418-3.298,1.16-4.715,2.195c-2.861-1.697-6.107-2.59-9.442-2.59c-10.229,0-18.552,8.322-18.552,18.551
		s8.322,18.551,18.552,18.551c1.365,0,2.746-0.159,4.119-0.475c2.457,3.895,6.736,6.278,11.38,6.278
		c5.649,0,10.625-3.513,12.575-8.706c1.832,0.896,3.84,1.364,5.885,1.364c7.417,0,13.451-6.034,13.451-13.452
		c0-1.999-0.446-3.893-1.232-5.598C90.276,38.57,93.687,33.604,93.85,27.721z M84.186,38.934c-2.055-2.956-5.259-5.055-8.967-5.635
		c-0.68-0.107-1.372-0.179-2.082-0.179c-0.123,0-0.244,0.01-0.367,0.013c-1.174,0.033-2.33,0.209-3.453,0.543
		c-0.713-2.172-1.945-4.062-3.533-5.561c-0.017-0.273-0.041-0.545-0.041-0.822c0-5.594,3.518-10.375,8.564-12.15
		c-1.017,1.757-1.557,3.754-1.557,5.846c0,6.479,5.27,11.748,11.747,11.748c2.368,0,4.636-0.705,6.55-1.993
		C90.054,34.391,87.52,37.352,84.186,38.934z"/>
</g>
</svg>
