<?xml version="1.0" encoding="utf-8"?>
<!-- Generator: Adobe Illustrator 16.0.0, SVG Export Plug-In . SVG Version: 6.00 Build 0)  -->
<!DOCTYPE svg PUBLIC "-//W3C//DTD SVG 1.1//EN" "http://www.w3.org/Graphics/SVG/1.1/DTD/svg11.dtd">
<svg version="1.1" id="Layer_1" xmlns="http://www.w3.org/2000/svg" xmlns:xlink="http://www.w3.org/1999/xlink" x="0px" y="0px"
	 width="100px" height="100px" viewBox="0 0 100 100" enable-background="new 0 0 100 100" xml:space="preserve">
<path d="M61.648,58.638L58.701,56.3c0.635-1.374,1-2.895,1-4.501c0-1.558-0.339-3.033-0.936-4.371l3.011-2.504
	c1.247-1.038,1.416-2.89,0.38-4.136c-1.038-1.246-2.89-1.418-4.137-0.379l-3.013,2.506c-0.948-0.651-2.006-1.146-3.138-1.468v-3.941
	c0-1.623-1.315-2.937-2.938-2.937s-2.937,1.313-2.937,2.937v3.941c-1.082,0.308-2.097,0.774-3.012,1.382l-3.117-2.475
	c-1.271-1.005-3.117-0.794-4.126,0.476c-1.008,1.271-0.796,3.119,0.475,4.126l2.947,2.338c-0.635,1.372-0.999,2.894-0.999,4.504
	c0,1.259,0.229,2.466,0.629,3.59l-3.125,2.601c-1.246,1.038-1.416,2.89-0.379,4.136c0.581,0.698,1.417,1.059,2.259,1.059
	c0.662,0,1.328-0.221,1.877-0.679l2.78-2.313c1.106,0.889,2.391,1.559,3.791,1.956v3.942c0,1.623,1.314,2.937,2.937,2.937
	s2.938-1.314,2.938-2.937v-3.942c1.081-0.307,2.096-0.773,3.011-1.383l3.117,2.476c0.54,0.428,1.184,0.636,1.824,0.636
	c0.864,0,1.722-0.381,2.302-1.111C63.131,61.495,62.919,59.648,61.648,58.638z M45.17,54.892c-0.105-0.229-0.23-0.45-0.399-0.654
	c-0.038-0.046-0.083-0.078-0.123-0.121c-0.377-0.693-0.61-1.476-0.61-2.317c0-1.111,0.385-2.123,1.009-2.945
	c0.124-0.109,0.249-0.221,0.356-0.355c0.055-0.07,0.092-0.146,0.141-0.219c0.881-0.849,2.072-1.376,3.389-1.376
	c2.699,0,4.896,2.196,4.896,4.896c0,1.076-0.361,2.064-0.954,2.875c-0.148,0.124-0.286,0.266-0.412,0.425
	c-0.055,0.069-0.092,0.145-0.139,0.218c-0.882,0.849-2.073,1.376-3.391,1.376C47.411,56.692,46.068,55.982,45.17,54.892z"/>
</svg>
