<?xml version="1.0" encoding="utf-8"?>
<!-- Generator: Adobe Illustrator 16.0.0, SVG Export Plug-In . SVG Version: 6.00 Build 0)  -->
<!DOCTYPE svg PUBLIC "-//W3C//DTD SVG 1.1//EN" "http://www.w3.org/Graphics/SVG/1.1/DTD/svg11.dtd">
<svg version="1.1" id="Layer_1" xmlns="http://www.w3.org/2000/svg" xmlns:xlink="http://www.w3.org/1999/xlink" x="0px" y="0px"
	 width="100px" height="100px" viewBox="0 0 100 100" enable-background="new 0 0 100 100" xml:space="preserve">
<g>
	<g>
		<path d="M44.63,54.008c-6.477,0-11.747-5.269-11.747-11.748c0-6.477,5.271-11.747,11.747-11.747
			c6.479,0,11.748,5.27,11.748,11.747C56.378,48.739,51.108,54.008,44.63,54.008z M44.63,32.863c-5.182,0-9.397,4.217-9.397,9.398
			c0,5.184,4.216,9.398,9.397,9.398s9.398-4.214,9.398-9.398C54.028,37.08,49.812,32.863,44.63,32.863z"/>
	</g>
	<g>
		<path d="M44.63,26.044c-0.648,0-1.174-0.526-1.174-1.175v-4.896c0-0.649,0.525-1.175,1.174-1.175s1.176,0.526,1.176,1.175v4.896
			C45.806,25.518,45.278,26.044,44.63,26.044z"/>
	</g>
	<g>
		<path d="M56.323,32.015c-0.301,0-0.602-0.115-0.831-0.344c-0.459-0.458-0.459-1.202,0-1.661l4.209-4.209
			c0.459-0.459,1.202-0.459,1.661,0c0.459,0.458,0.459,1.202,0,1.661l-4.209,4.209C56.924,31.9,56.624,32.015,56.323,32.015z"/>
	</g>
	<g>
		<path d="M31.065,32.015c-0.301,0-0.602-0.115-0.83-0.344l-4.21-4.209c-0.458-0.459-0.458-1.202,0-1.661
			c0.459-0.459,1.202-0.459,1.661,0l4.21,4.209c0.458,0.459,0.458,1.202,0,1.661C31.667,31.9,31.366,32.015,31.065,32.015z"/>
	</g>
	<g>
		<path d="M43.694,65.544c-0.648,0-1.175-0.526-1.175-1.175v-4.895c0-0.649,0.526-1.175,1.175-1.175s1.175,0.526,1.175,1.175v4.895
			C44.869,65.019,44.343,65.544,43.694,65.544z"/>
	</g>
	<g>
		<path d="M27.792,58.887c-0.3,0-0.6-0.114-0.83-0.344c-0.459-0.458-0.459-1.202,0-1.661l4.209-4.209
			c0.459-0.459,1.203-0.459,1.662,0c0.459,0.458,0.459,1.202,0,1.661l-4.209,4.209C28.394,58.773,28.093,58.887,27.792,58.887z"/>
	</g>
	<g>
		<path d="M61.468,58.887c-0.3,0-0.601-0.114-0.83-0.344l-4.209-4.209c-0.459-0.459-0.459-1.202,0-1.661s1.201-0.459,1.66,0
			l4.211,4.209c0.458,0.459,0.458,1.203,0,1.661C62.069,58.773,61.769,58.887,61.468,58.887z"/>
	</g>
	<g>
		<path d="M26.856,43.436h-5.287c-0.648,0-1.174-0.525-1.174-1.175c0-0.648,0.525-1.175,1.174-1.175h5.287
			c0.648,0,1.174,0.527,1.174,1.175C28.03,42.91,27.505,43.436,26.856,43.436z"/>
	</g>
	<g>
		<path d="M66.798,43.436h-6.266c-0.648,0-1.176-0.525-1.176-1.175c0-0.648,0.527-1.175,1.176-1.175h6.266
			c0.648,0,1.174,0.527,1.174,1.175C67.972,42.91,67.446,43.436,66.798,43.436z"/>
	</g>
	<g>
		<path d="M36.927,70.522c0.799-0.14,2.396-0.28,3.935-0.28c1.856,0,2.995,0.18,3.993,0.76c0.938,0.499,1.598,1.418,1.598,2.656
			c0,1.178-0.699,2.275-2.217,2.854v0.041c1.538,0.398,2.676,1.577,2.676,3.295c0,1.238-0.559,2.197-1.397,2.875
			c-0.979,0.779-2.616,1.219-5.292,1.219c-1.497,0-2.615-0.1-3.295-0.199V70.522z M39.942,75.674h0.998
			c1.618,0,2.457-0.659,2.457-1.657c0-1.019-0.779-1.558-2.157-1.558c-0.679,0-1.058,0.04-1.298,0.08V75.674z M39.942,81.645
			c0.299,0.04,0.658,0.04,1.178,0.04c1.379,0,2.596-0.539,2.596-1.957c0-1.337-1.217-1.877-2.734-1.877h-1.039V81.645z"/>
	</g>
</g>
</svg>
