<?xml version="1.0" encoding="utf-8"?>
<!-- Generator: Adobe Illustrator 16.0.0, SVG Export Plug-In . SVG Version: 6.00 Build 0)  -->
<!DOCTYPE svg PUBLIC "-//W3C//DTD SVG 1.1//EN" "http://www.w3.org/Graphics/SVG/1.1/DTD/svg11.dtd">
<svg version="1.1" id="Layer_1" xmlns="http://www.w3.org/2000/svg" xmlns:xlink="http://www.w3.org/1999/xlink" x="0px" y="0px"
	 width="100px" height="100px" viewBox="0 0 100 100" enable-background="new 0 0 100 100" xml:space="preserve">
<g>
	<path d="M51.669,68.589l0.336-2.435c-0.742,0.113-1.492,0.19-2.259,0.19c-0.946,0-3.61-0.89-4.517-1.06l-0.376,2.686l-3.252,5.377
		l3.817,2.644L41.602,86.27l10.866-9.618l-5.434-3.304L51.669,68.589z"/>
	<path d="M65.226,26.13c-3.336,0-6.582,0.894-9.443,2.592c-2.295-1.678-5.08-2.592-7.934-2.592c-5.885,0-10.961,3.729-12.762,9.216
		c-1.24-0.37-2.521-0.556-3.821-0.556c-7.417,0-13.451,6.034-13.451,13.452c0,7.417,6.034,13.452,13.451,13.452
		c2.046,0,4.054-0.47,5.885-1.365c0.989,2.634,2.757,4.83,4.995,6.357v-3.018c-1.504-1.412-2.634-3.241-3.169-5.356
		c-0.093-0.366-0.354-0.664-0.704-0.803c-0.141-0.057-0.287-0.084-0.435-0.084c-0.22,0-0.439,0.062-0.63,0.184
		c-1.787,1.135-3.841,1.735-5.942,1.735c-6.121,0-11.102-4.981-11.102-11.103c0-6.123,4.98-11.103,11.102-11.103
		c1.435,0,2.838,0.275,4.175,0.819c0.318,0.129,0.68,0.112,0.986-0.048c0.306-0.159,0.525-0.446,0.603-0.783
		c1.149-5.093,5.599-8.649,10.819-8.649c2.592,0,5.115,0.915,7.107,2.576c0.396,0.332,0.963,0.363,1.396,0.08
		c2.646-1.738,5.715-2.656,8.873-2.656c8.934,0,16.201,7.268,16.201,16.203c0,8.934-7.268,16.201-16.201,16.201
		c-1.445,0-2.915-0.206-4.369-0.613c-0.531-0.149-1.091,0.09-1.352,0.573c-1.199,2.223-3.09,3.904-5.318,4.881v2.512
		c2.826-0.988,5.283-2.884,6.92-5.479c1.372,0.316,2.754,0.476,4.119,0.476c10.229,0,18.551-8.321,18.551-18.551
		C83.776,34.451,75.454,26.13,65.226,26.13z"/>
</g>
</svg>
