<?xml version="1.0" encoding="utf-8"?>
<!-- Generator: Adobe Illustrator 16.0.0, SVG Export Plug-In . SVG Version: 6.00 Build 0)  -->
<!DOCTYPE svg PUBLIC "-//W3C//DTD SVG 1.1//EN" "http://www.w3.org/Graphics/SVG/1.1/DTD/svg11.dtd">
<svg version="1.1" id="Layer_1" xmlns="http://www.w3.org/2000/svg" xmlns:xlink="http://www.w3.org/1999/xlink" x="0px" y="0px"
	 width="100px" height="100px" viewBox="0 0 100 100" enable-background="new 0 0 100 100" xml:space="preserve">
<g>
	<path d="M59.265,40.141c-1.2,0-2.359,0.184-3.451,0.519c-1.091-0.335-2.25-0.519-3.451-0.519c-6.478,0-11.748,5.27-11.748,11.747
		c0,6.479,5.27,11.748,11.748,11.748c1.201,0,2.359-0.183,3.451-0.519c1.092,0.335,2.25,0.519,3.451,0.519
		c6.478,0,11.748-5.269,11.748-11.748C71.013,45.41,65.743,40.141,59.265,40.141z M42.966,51.888c0-5.139,4.149-9.323,9.272-9.391
		c-2.859,2.145-4.72,5.55-4.72,9.391s1.861,7.247,4.72,9.392C47.115,61.212,42.966,57.027,42.966,51.888z"/>
	<path d="M52.364,35.67c0.648,0,1.175-0.526,1.175-1.175V29.6c0-0.649-0.526-1.175-1.175-1.175c-0.649,0-1.175,0.526-1.175,1.175
		v4.895C51.189,35.144,51.715,35.67,52.364,35.67z"/>
	<path d="M37.969,41.297c0.229,0.23,0.53,0.344,0.831,0.344c0.3,0,0.601-0.114,0.831-0.344c0.458-0.459,0.458-1.202,0-1.661
		l-4.21-4.209c-0.459-0.459-1.202-0.459-1.661,0c-0.459,0.458-0.459,1.202,0,1.662L37.969,41.297z"/>
	<path d="M51.428,67.926c-0.649,0-1.175,0.526-1.175,1.175v4.895c0,0.649,0.526,1.175,1.175,1.175c0.648,0,1.175-0.526,1.175-1.175
		v-4.895C52.603,68.453,52.076,67.926,51.428,67.926z"/>
	<path d="M38.905,62.299l-4.209,4.209c-0.459,0.459-0.459,1.203,0,1.661c0.229,0.229,0.53,0.344,0.831,0.344
		c0.3,0,0.601-0.115,0.831-0.344l4.209-4.209c0.459-0.459,0.459-1.203,0-1.661C40.107,61.841,39.364,61.841,38.905,62.299z"/>
	<path d="M35.764,51.888c0-0.648-0.526-1.174-1.175-1.174h-5.286c-0.649,0-1.175,0.526-1.175,1.174c0,0.649,0.526,1.175,1.175,1.175
		h5.286C35.238,53.063,35.764,52.537,35.764,51.888z"/>
</g>
</svg>
