<?xml version="1.0" encoding="utf-8"?>
<!-- Generator: Adobe Illustrator 16.0.0, SVG Export Plug-In . SVG Version: 6.00 Build 0)  -->
<!DOCTYPE svg PUBLIC "-//W3C//DTD SVG 1.1//EN" "http://www.w3.org/Graphics/SVG/1.1/DTD/svg11.dtd">
<svg version="1.1" id="Layer_1" xmlns="http://www.w3.org/2000/svg" xmlns:xlink="http://www.w3.org/1999/xlink" x="0px" y="0px"
	 width="100px" height="100px" viewBox="0 0 100 100" enable-background="new 0 0 100 100" xml:space="preserve">
<path d="M85.533,26.13c0-7.135-5.805-12.94-12.939-12.94c-2.173,0-4.312,0.549-6.213,1.593c-1.559-1.03-3.418-1.593-5.284-1.593
	c-3.931,0-7.415,2.373-8.862,5.966c-0.69-0.158-1.398-0.236-2.109-0.236c-5.274,0-9.565,4.291-9.565,9.565
	c0,0.808,0.111,1.588,0.301,2.339c-1.825,1.56-3.232,3.615-4.018,6.008c-1.24-0.37-2.52-0.557-3.82-0.557
	c-7.417,0-13.451,6.034-13.451,13.452c0,4.665,2.389,8.78,6.005,11.194c2.135,1.424,4.694,2.258,7.446,2.258
	c2.045,0,4.053-0.468,5.884-1.364c0.106,0.283,0.227,0.559,0.35,0.832c1.478,3.252,4.178,5.747,7.455,6.993
	c0.199,0.076,0.407,0.136,0.61,0.202l-3.433,5.86l3.818,2.644l-3.818,10.279l10.866-9.618l-5.433-3.305l5.433-5.614l-0.003-0.008
	c2.557-0.64,4.867-2.009,6.646-3.958c0.533-0.584,1.035-1.2,1.465-1.88c0.32,0.074,0.643,0.11,0.965,0.166
	c1.053,0.187,2.107,0.31,3.154,0.31c10.229,0,18.551-8.322,18.551-18.553c0-4.132-1.375-7.94-3.67-11.027
	C84.131,32.805,85.533,29.63,85.533,26.13z M83.184,46.165c0,4.834-2.138,9.167-5.504,12.137c-2.857,2.522-6.597,4.066-10.697,4.066
	c-0.117,0-0.234-0.01-0.351-0.014c-0.242-0.004-0.483-0.008-0.728-0.024c-0.93-0.065-1.866-0.224-2.799-0.455
	c-0.164-0.041-0.328-0.075-0.492-0.121c-0.531-0.149-1.091,0.091-1.352,0.573c-0.379,0.703-0.846,1.338-1.352,1.93
	c-2.086,2.446-5.137,3.914-8.428,3.914c-4.971,0-9.301-3.3-10.656-8.06c-0.029-0.106-0.066-0.208-0.093-0.314
	c-0.093-0.365-0.354-0.664-0.704-0.804c-0.141-0.055-0.288-0.082-0.435-0.082c-0.221,0-0.439,0.062-0.631,0.183
	c-1.786,1.136-3.84,1.735-5.941,1.735c-2.196,0-4.239-0.649-5.965-1.754c-2.425-1.554-4.208-4.019-4.859-6.912
	c-0.177-0.786-0.277-1.6-0.277-2.437c0-6.122,4.98-11.103,11.102-11.103c1.434,0,2.838,0.275,4.175,0.818
	c0.318,0.131,0.68,0.114,0.986-0.047c0.306-0.159,0.525-0.446,0.602-0.782c0.482-2.137,1.551-3.997,3.009-5.443
	c0.694-0.69,1.476-1.287,2.33-1.771c1.624-0.918,3.495-1.434,5.481-1.434c2.592,0,5.115,0.914,7.106,2.574
	c0.397,0.331,0.964,0.363,1.397,0.08c2.646-1.736,5.715-2.654,8.873-2.654c4.343,0,8.283,1.727,11.195,4.519
	c0.697,0.669,1.331,1.399,1.9,2.184C82.022,39.339,83.184,42.616,83.184,46.165z M66.982,27.615c-3.336,0-6.582,0.893-9.443,2.591
	c-2.295-1.677-5.08-2.591-7.934-2.591c-2.199,0-4.285,0.521-6.13,1.459c-0.018-0.194-0.03-0.39-0.03-0.59
	c0-3.683,2.997-6.679,6.68-6.679c0.861,0,1.707,0.165,2.51,0.492c0.174,0.07,0.357,0.106,0.545,0.106
	c0.232,0,0.463-0.058,0.668-0.163c0.376-0.197,0.646-0.547,0.74-0.961c0.691-3.065,3.368-5.205,6.509-5.205
	c1.559,0,3.077,0.55,4.274,1.548c0.26,0.218,0.588,0.337,0.926,0.337c0.281,0,0.555-0.082,0.791-0.236
	c1.643-1.078,3.547-1.648,5.506-1.648c5.543,0,10.053,4.51,10.053,10.055c0,2.628-1.021,5.017-2.679,6.811
	C76.618,29.65,72.035,27.615,66.982,27.615z"/>
</svg>
