<?xml version="1.0" encoding="utf-8"?>
<!-- Generator: Adobe Illustrator 16.0.0, SVG Export Plug-In . SVG Version: 6.00 Build 0)  -->
<!DOCTYPE svg PUBLIC "-//W3C//DTD SVG 1.1//EN" "http://www.w3.org/Graphics/SVG/1.1/DTD/svg11.dtd">
<svg version="1.1" id="Layer_1" xmlns="http://www.w3.org/2000/svg" xmlns:xlink="http://www.w3.org/1999/xlink" x="0px" y="0px"
	 width="100px" height="100px" viewBox="0 0 100 100" enable-background="new 0 0 100 100" xml:space="preserve">
<path d="M74.838,50.624H64.631c-0.603-7.621-6.982-13.641-14.755-13.641c-5.269,0-9.891,2.773-12.518,6.926h-13.62
	c-0.648,0-1.175,0.526-1.175,1.175c0,0.648,0.526,1.175,1.175,1.175h12.408c-0.554,1.367-0.904,2.833-1.025,4.365h-8.152
	c-0.648,0-1.175,0.526-1.175,1.175s0.526,1.174,1.175,1.174h8.152c0.141,1.787,0.601,3.48,1.322,5.034H23.737
	c-0.648,0-1.175,0.526-1.175,1.175c0,0.648,0.526,1.174,1.175,1.174h14.066c2.688,3.78,7.091,6.258,12.072,6.258
	c4.98,0,9.385-2.478,12.072-6.258h5.843c0.649,0,1.175-0.526,1.175-1.174c0-0.649-0.526-1.175-1.175-1.175h-4.481
	c0.721-1.554,1.181-3.247,1.322-5.034h10.208c0.649,0,1.175-0.526,1.175-1.174S75.487,50.624,74.838,50.624z M38.725,46.259h11.151
	c0.648,0,1.175-0.526,1.175-1.175c0-0.649-0.526-1.175-1.175-1.175h-9.643c2.288-2.791,5.76-4.577,9.643-4.577
	c6.477,0,11.812,4.967,12.406,11.291H37.469C37.616,49.066,38.057,47.597,38.725,46.259z M49.875,64.264
	c-3.56,0-6.767-1.507-9.04-3.908h18.08C56.642,62.756,53.435,64.264,49.875,64.264z M60.669,58.006H39.081
	c-0.871-1.51-1.44-3.213-1.612-5.034h24.812C62.11,54.793,61.541,56.497,60.669,58.006z"/>
</svg>
