<?xml version="1.0" encoding="utf-8"?>
<!-- Generator: Adobe Illustrator 16.0.0, SVG Export Plug-In . SVG Version: 6.00 Build 0)  -->
<!DOCTYPE svg PUBLIC "-//W3C//DTD SVG 1.1//EN" "http://www.w3.org/Graphics/SVG/1.1/DTD/svg11.dtd">
<svg version="1.1" id="Layer_1" xmlns="http://www.w3.org/2000/svg" xmlns:xlink="http://www.w3.org/1999/xlink" x="0px" y="0px"
	 width="100px" height="100px" viewBox="0 0 100 100" enable-background="new 0 0 100 100" xml:space="preserve">
<g>
	<g>
		<path d="M57.241,51.074c-8.404,0-15.238-6.836-15.238-15.238c0-7.885,5.91-14.404,13.75-15.164
			c0.502-0.052,0.975,0.227,1.184,0.684c0.207,0.457,0.102,0.996-0.264,1.34c-1.911,1.801-2.965,4.228-2.965,6.836
			c0,5.183,4.218,9.398,9.398,9.398c2.826,0,5.475-1.256,7.271-3.445c0.318-0.387,0.849-0.528,1.318-0.355
			c0.471,0.176,0.778,0.633,0.762,1.134C72.229,44.568,65.543,51.074,57.241,51.074z"/>
	</g>
	<g>
		<path d="M51.295,89.234v-1.838l1.656-1.496c2.856-2.557,4.234-4.016,4.254-5.533c0-1.057-0.619-1.896-2.116-1.896
			c-1.119,0-2.096,0.559-2.775,1.059l-0.859-2.156c0.958-0.74,2.496-1.338,4.234-1.338c2.955,0,4.553,1.717,4.553,4.055
			c0,2.195-1.559,3.932-3.456,5.609l-1.197,0.998v0.041H60.5v2.496H51.295z"/>
	</g>
</g>
</svg>
