<?xml version="1.0" encoding="utf-8"?>
<!-- Generator: Adobe Illustrator 16.0.0, SVG Export Plug-In . SVG Version: 6.00 Build 0)  -->
<!DOCTYPE svg PUBLIC "-//W3C//DTD SVG 1.1//EN" "http://www.w3.org/Graphics/SVG/1.1/DTD/svg11.dtd">
<svg version="1.1" id="Layer_1" xmlns="http://www.w3.org/2000/svg" xmlns:xlink="http://www.w3.org/1999/xlink" x="0px" y="0px"
	 width="100px" height="100px" viewBox="0 0 100 100" enable-background="new 0 0 100 100" xml:space="preserve">
<g>
	<g>
		<path d="M56.384,84.172c-0.34-0.021-0.699,0-1.179,0.04c-2.694,0.22-3.894,1.597-4.233,3.095h0.062
			c0.638-0.639,1.557-1.018,2.755-1.018c2.176,0,4.014,1.538,4.014,4.233c0,2.575-1.977,4.691-4.772,4.691
			c-3.476,0-5.172-2.574-5.172-5.67c0-2.438,0.898-4.473,2.316-5.791c1.278-1.178,2.975-1.798,4.991-1.898
			c0.561-0.059,0.938-0.038,1.219-0.019V84.172z M54.728,90.682c0-1.197-0.641-2.236-1.938-2.236c-0.817,0-1.497,0.499-1.776,1.138
			c-0.1,0.18-0.141,0.42-0.141,0.779c0.061,1.378,0.719,2.615,2.117,2.615C54.048,92.978,54.728,92,54.728,90.682z"/>
	</g>
	<path d="M71.674,14.687c-3.334,0-6.581,0.893-9.442,2.59c-2.295-1.676-5.08-2.59-7.934-2.59c-5.885,0-10.961,3.729-12.763,9.215
		c-1.24-0.369-2.52-0.556-3.82-0.556c-7.417,0-13.451,6.034-13.451,13.452c0,4.666,2.389,8.781,6.006,11.194
		c2.133,1.424,4.693,2.258,7.445,2.258c2.045,0,4.053-0.468,5.885-1.364c0.105,0.283,0.225,0.559,0.349,0.832
		c1.478,3.252,4.177,5.748,7.455,6.993c0.2,0.075,0.407,0.136,0.61,0.202l-3.433,5.861l3.817,2.643l-3.817,10.279l10.866-9.618
		l-5.434-3.304l5.434-5.615l-0.002-0.007c2.555-0.642,4.865-2.01,6.646-3.959c0.532-0.583,1.035-1.2,1.464-1.88
		c0.322,0.074,0.645,0.109,0.966,0.167c1.054,0.185,2.108,0.309,3.153,0.309c10.229,0,18.552-8.323,18.552-18.552
		S81.903,14.687,71.674,14.687z"/>
</g>
</svg>
