<?xml version="1.0" encoding="utf-8"?>
<!-- Generator: Adobe Illustrator 16.0.0, SVG Export Plug-In . SVG Version: 6.00 Build 0)  -->
<!DOCTYPE svg PUBLIC "-//W3C//DTD SVG 1.1//EN" "http://www.w3.org/Graphics/SVG/1.1/DTD/svg11.dtd">
<svg version="1.1" id="Layer_1" xmlns="http://www.w3.org/2000/svg" xmlns:xlink="http://www.w3.org/1999/xlink" x="0px" y="0px"
	 width="100px" height="100px" viewBox="0 0 100 100" enable-background="new 0 0 100 100" xml:space="preserve">
<g>
	<path d="M54.911,77.449c0,1.866-1.512,3.377-3.377,3.377s-3.377-1.511-3.377-3.377s3.377-6.9,3.377-6.9
		S54.911,75.583,54.911,77.449z"/>
	<g>
		<path d="M51.731,68.261c-5.649,0-10.625-3.513-12.576-8.706c-1.832,0.896-3.839,1.364-5.884,1.364
			c-7.417,0-13.452-6.034-13.452-13.452s6.034-13.452,13.452-13.452c1.3,0,2.58,0.187,3.82,0.556
			c1.801-5.486,6.877-9.215,12.763-9.215c2.854,0,5.638,0.914,7.933,2.59c2.861-1.697,6.108-2.59,9.443-2.59
			c10.229,0,18.551,8.321,18.551,18.55c0,10.229-8.322,18.553-18.551,18.553c-1.365,0-2.747-0.16-4.119-0.476
			C60.655,65.877,56.375,68.261,51.731,68.261z"/>
	</g>
</g>
</svg>
