<?xml version="1.0" encoding="utf-8"?>
<!-- Generator: Adobe Illustrator 16.0.0, SVG Export Plug-In . SVG Version: 6.00 Build 0)  -->
<!DOCTYPE svg PUBLIC "-//W3C//DTD SVG 1.1//EN" "http://www.w3.org/Graphics/SVG/1.1/DTD/svg11.dtd">
<svg version="1.1" id="Layer_1" xmlns="http://www.w3.org/2000/svg" xmlns:xlink="http://www.w3.org/1999/xlink" x="0px" y="0px"
	 width="100px" height="100px" viewBox="0 0 100 100" enable-background="new 0 0 100 100" xml:space="preserve">
<g>
	<g>
		<path d="M35.178,38.681h-14.23c-0.195,0-0.352-0.525-0.352-1.174c0-0.649,0.156-1.175,0.352-1.175h14.23
			c0.194,0,0.352,0.525,0.352,1.175C35.529,38.156,35.372,38.681,35.178,38.681z"/>
	</g>
	<g>
		<path d="M34.58,45.73H17.412c-0.234,0-0.425-0.525-0.425-1.175s0.19-1.175,0.425-1.175H34.58c0.234,0,0.424,0.525,0.424,1.175
			S34.814,45.73,34.58,45.73z"/>
	</g>
	<g>
		<path d="M34.665,53.072h-13.73c-0.187,0-0.339-0.525-0.339-1.174c0-0.649,0.152-1.175,0.339-1.175h13.73
			c0.187,0,0.339,0.525,0.339,1.175C35.004,52.546,34.852,53.072,34.665,53.072z"/>
	</g>
	<path d="M52.166,65.653c0,1.865-1.512,3.377-3.377,3.377s-3.377-1.512-3.377-3.377c0-1.866,3.377-6.902,3.377-6.902
		S52.166,63.787,52.166,65.653z"/>
	<path d="M66.704,75.931c0,1.865-1.513,3.378-3.378,3.378s-3.377-1.513-3.377-3.378s3.377-6.901,3.377-6.901
		S66.704,74.066,66.704,75.931z"/>
	<path d="M72.873,26.873c-2.172,0-4.311,0.551-6.212,1.595c-1.559-1.032-3.419-1.595-5.284-1.595c-3.931,0-7.416,2.372-8.861,5.965
		c-0.691-0.155-1.398-0.236-2.11-0.236c-5.274,0-9.565,4.293-9.565,9.568c0,5.274,4.291,9.565,9.565,9.565
		c1.206,0,2.418-0.236,3.542-0.686c1.549,3.342,4.949,5.542,8.672,5.542c3.146,0,6.042-1.514,7.833-4.074
		c0.81,0.156,1.621,0.236,2.421,0.236c7.136,0,12.94-5.805,12.94-12.94S80.009,26.873,72.873,26.873z"/>
</g>
</svg>
