<?xml version="1.0" encoding="utf-8"?>
<!-- Generator: Adobe Illustrator 16.0.0, SVG Export Plug-In . SVG Version: 6.00 Build 0)  -->
<!DOCTYPE svg PUBLIC "-//W3C//DTD SVG 1.1//EN" "http://www.w3.org/Graphics/SVG/1.1/DTD/svg11.dtd">
<svg version="1.1" id="Layer_1" xmlns="http://www.w3.org/2000/svg" xmlns:xlink="http://www.w3.org/1999/xlink" x="0px" y="0px"
	 width="100px" height="100px" viewBox="0 0 100 100" enable-background="new 0 0 100 100" xml:space="preserve">
<g>
	<path d="M41.601,27.502c0.649,0,1.175-0.525,1.175-1.175v-4.895c0-0.648-0.525-1.175-1.175-1.175c-0.648,0-1.175,0.526-1.175,1.175
		v4.895C40.426,26.977,40.952,27.502,41.601,27.502z"/>
	<path d="M53.293,33.475c0.301,0,0.602-0.115,0.83-0.345l4.209-4.21c0.459-0.459,0.459-1.202,0-1.661
		c-0.458-0.459-1.201-0.459-1.66,0l-4.209,4.21c-0.459,0.459-0.459,1.203,0,1.661C52.691,33.359,52.992,33.475,53.293,33.475z"/>
	<path d="M27.205,33.13c0.23,0.229,0.53,0.345,0.831,0.345s0.601-0.115,0.831-0.345c0.459-0.458,0.459-1.202,0-1.661l-4.21-4.21
		c-0.459-0.459-1.202-0.459-1.661,0s-0.459,1.202,0,1.661L27.205,33.13z"/>
	<path d="M25.001,43.72c0-0.647-0.526-1.175-1.175-1.175H18.54c-0.648,0-1.175,0.527-1.175,1.175c0,0.648,0.526,1.175,1.175,1.175
		h5.286C24.475,44.895,25.001,44.368,25.001,43.72z"/>
	<path d="M66.548,38.65c-3.335,0-6.581,0.893-9.442,2.591c-1.418-1.035-3.023-1.778-4.715-2.196
		c-2.187-5.055-7.717-8.033-13.293-6.812c-6.328,1.387-10.348,7.663-8.961,13.99c0.096,0.436,0.226,0.854,0.369,1.265
		c-6.43,1.007-11.369,6.567-11.369,13.273c0,7.418,6.035,13.452,13.452,13.452c2.045,0,4.052-0.468,5.884-1.362
		c1.951,5.193,6.926,8.705,12.576,8.705c4.644,0,8.924-2.385,11.38-6.278c1.372,0.314,2.754,0.476,4.119,0.476
		c10.229,0,18.552-8.322,18.552-18.552S76.777,38.65,66.548,38.65z M39.6,34.528c3.952-0.866,7.869,0.911,9.929,4.136
		c-0.119-0.002-0.237-0.014-0.356-0.014c-5.885,0-10.961,3.729-12.763,9.217c-1.123-0.335-2.28-0.512-3.454-0.544
		c-0.215-0.512-0.4-1.041-0.523-1.604C31.322,40.659,34.539,35.638,39.6,34.528z"/>
</g>
</svg>
