<?xml version="1.0" encoding="utf-8"?>
<!-- Generator: Adobe Illustrator 16.0.0, SVG Export Plug-In . SVG Version: 6.00 Build 0)  -->
<!DOCTYPE svg PUBLIC "-//W3C//DTD SVG 1.1//EN" "http://www.w3.org/Graphics/SVG/1.1/DTD/svg11.dtd">
<svg version="1.1" id="Layer_1" xmlns="http://www.w3.org/2000/svg" xmlns:xlink="http://www.w3.org/1999/xlink" x="0px" y="0px"
	 width="100px" height="100px" viewBox="0 0 100 100" enable-background="new 0 0 100 100" xml:space="preserve">
<g>
	<g>
		<path d="M59.923,97.814v-5.512l-4.253-7.947h3.494l1.358,3.234c0.419,0.979,0.719,1.697,1.038,2.576h0.04
			c0.3-0.839,0.619-1.617,1.019-2.576l1.357-3.234h3.414l-4.432,7.848v5.611H59.923z"/>
	</g>
	<path d="M91.03,25.028c0-7.136-5.806-12.94-12.94-12.94c-2.172,0-4.311,0.55-6.213,1.594c-1.559-1.031-3.418-1.594-5.283-1.594
		c-3.931,0-7.416,2.373-8.861,5.966c-0.691-0.157-1.398-0.236-2.11-0.236c-5.274,0-9.565,4.292-9.565,9.566
		c0,0.695,0.078,1.372,0.22,2.024c-2.593,1.625-4.601,4.124-5.6,7.166c-1.24-0.369-2.52-0.556-3.82-0.556
		c-7.417,0-13.451,6.034-13.451,13.452s6.034,13.452,13.451,13.452c2.045,0,4.053-0.468,5.884-1.364
		c1.951,5.193,6.927,8.706,12.576,8.706c4.644,0,8.924-2.384,11.381-6.278c1.372,0.315,2.754,0.475,4.118,0.475
		c10.229,0,18.552-8.322,18.552-18.551c0-3.963-1.26-7.633-3.386-10.65C89.045,32.892,91.03,29.191,91.03,25.028z M87.018,45.91
		c0,8.934-7.268,16.202-16.202,16.202c-1.444,0-2.914-0.207-4.369-0.614c-0.53-0.148-1.09,0.09-1.351,0.573
		c-1.943,3.604-5.69,5.845-9.779,5.845c-5.081,0-9.501-3.445-10.75-8.375c-0.092-0.365-0.354-0.664-0.703-0.803
		c-0.141-0.057-0.288-0.084-0.435-0.084c-0.221,0-0.439,0.063-0.631,0.184c-1.786,1.135-3.84,1.735-5.941,1.735
		c-6.121,0-11.103-4.98-11.103-11.103s4.981-11.104,11.103-11.104c1.434,0,2.838,0.275,4.175,0.82
		c0.318,0.129,0.68,0.113,0.986-0.047c0.306-0.16,0.525-0.446,0.602-0.783c0.633-2.801,2.266-5.131,4.474-6.666
		c0.787-0.549,1.646-0.997,2.561-1.326c1.185-0.426,2.46-0.657,3.786-0.657c2.592,0,5.115,0.915,7.106,2.575
		c0.397,0.332,0.964,0.363,1.397,0.08c2.646-1.736,5.714-2.655,8.872-2.655c4.364,0,8.322,1.742,11.237,4.556
		c0.717,0.692,1.366,1.45,1.947,2.263C85.892,39.178,87.018,42.412,87.018,45.91z M70.815,27.359c-3.335,0-6.581,0.893-9.442,2.59
		c-2.295-1.676-5.08-2.59-7.934-2.59c-1.559,0-3.057,0.268-4.455,0.754c-0.026-0.24-0.042-0.482-0.042-0.729
		c0-3.684,2.997-6.681,6.68-6.681c0.861,0,1.706,0.166,2.511,0.493c0.174,0.071,0.356,0.106,0.544,0.106
		c0.231,0,0.464-0.057,0.667-0.163c0.377-0.196,0.646-0.546,0.741-0.962c0.69-3.063,3.368-5.203,6.509-5.203
		c1.559,0,3.076,0.549,4.274,1.547c0.259,0.217,0.588,0.337,0.926,0.337c0.28,0,0.554-0.081,0.792-0.236
		c1.642-1.079,3.545-1.647,5.504-1.647c5.543,0,10.054,4.51,10.054,10.054c0,3.27-1.575,6.171-4,8.008
		C80.768,29.543,76.046,27.359,70.815,27.359z"/>
</g>
</svg>
