<?xml version="1.0" encoding="utf-8"?>
<!-- Generator: Adobe Illustrator 16.0.0, SVG Export Plug-In . SVG Version: 6.00 Build 0)  -->
<!DOCTYPE svg PUBLIC "-//W3C//DTD SVG 1.1//EN" "http://www.w3.org/Graphics/SVG/1.1/DTD/svg11.dtd">
<svg version="1.1" id="Layer_1" xmlns="http://www.w3.org/2000/svg" xmlns:xlink="http://www.w3.org/1999/xlink" x="0px" y="0px"
	 width="100px" height="100px" viewBox="0 0 100 100" enable-background="new 0 0 100 100" xml:space="preserve">
<g>
	<g>
		<path d="M65.668,30.056H31.332c-0.468,0-0.848-0.526-0.848-1.175c0-0.649,0.38-1.175,0.848-1.175h34.336
			c0.469,0,0.849,0.525,0.849,1.175C66.517,29.529,66.137,30.056,65.668,30.056z"/>
	</g>
	<g>
		<path d="M65.143,23.79H30.807c-0.468,0-0.848-0.525-0.848-1.175s0.38-1.175,0.848-1.175h34.336c0.469,0,0.848,0.525,0.848,1.175
			S65.611,23.79,65.143,23.79z"/>
	</g>
	<g>
		<path d="M65.143,37.104H30.807c-0.468,0-0.848-0.526-0.848-1.176c0-0.648,0.38-1.174,0.848-1.174h34.336
			c0.469,0,0.848,0.525,0.848,1.174C65.99,36.578,65.611,37.104,65.143,37.104z"/>
	</g>
	<g>
		<path d="M65.143,44.446H30.807c-0.468,0-0.848-0.526-0.848-1.175c0-0.649,0.38-1.175,0.848-1.175h34.336
			c0.469,0,0.848,0.525,0.848,1.175C65.99,43.92,65.611,44.446,65.143,44.446z"/>
	</g>
	<g>
		<path d="M53.147,81.585c-0.061-1.617-0.12-3.574-0.12-5.531h-0.04c-0.439,1.717-0.998,3.635-1.518,5.211l-1.638,5.252h-2.376
			l-1.438-5.191c-0.439-1.598-0.879-3.514-1.218-5.271h-0.04c-0.061,1.816-0.14,3.895-0.22,5.57l-0.26,5.113h-2.816l0.859-13.459
			h4.054l1.317,4.492c0.439,1.559,0.839,3.235,1.139,4.813h0.08c0.359-1.558,0.818-3.335,1.277-4.833l1.418-4.473h3.994
			l0.719,13.459h-2.955L53.147,81.585z"/>
	</g>
</g>
</svg>
