<?xml version="1.0" encoding="utf-8"?>
<!-- Generator: Adobe Illustrator 16.0.0, SVG Export Plug-In . SVG Version: 6.00 Build 0)  -->
<!DOCTYPE svg PUBLIC "-//W3C//DTD SVG 1.1//EN" "http://www.w3.org/Graphics/SVG/1.1/DTD/svg11.dtd">
<svg version="1.1" id="Layer_1" xmlns="http://www.w3.org/2000/svg" xmlns:xlink="http://www.w3.org/1999/xlink" x="0px" y="0px"
	 width="100px" height="100px" viewBox="0 0 100 100" enable-background="new 0 0 100 100" xml:space="preserve">
<g>
	<g>
		<path d="M52.34,62.744c-6.479,0-11.748-5.269-11.748-11.747c0-6.478,5.27-11.747,11.748-11.747c6.477,0,11.746,5.27,11.746,11.747
			C64.086,57.476,58.816,62.744,52.34,62.744z"/>
	</g>
	<g>
		<path d="M52.34,34.779c-0.65,0-1.176-0.527-1.176-1.175v-4.896c0-0.649,0.525-1.175,1.176-1.175c0.648,0,1.174,0.525,1.174,1.175
			v4.896C53.514,34.252,52.988,34.779,52.34,34.779z"/>
	</g>
	<g>
		<path d="M64.031,40.75c-0.301,0-0.602-0.114-0.83-0.344c-0.459-0.458-0.459-1.201,0-1.661l4.209-4.21
			c0.459-0.457,1.201-0.457,1.66,0c0.459,0.458,0.459,1.203,0,1.663l-4.209,4.208C64.633,40.636,64.332,40.75,64.031,40.75z"/>
	</g>
	<g>
		<path d="M38.773,40.75c-0.299,0-0.6-0.114-0.83-0.344l-4.209-4.208c-0.459-0.46-0.459-1.204,0-1.663
			c0.459-0.457,1.201-0.457,1.66,0l4.211,4.21c0.459,0.46,0.459,1.202,0,1.661C39.375,40.636,39.074,40.75,38.773,40.75z"/>
	</g>
	<g>
		<path d="M51.402,74.28c-0.648,0-1.174-0.526-1.174-1.175V68.21c0-0.647,0.525-1.175,1.174-1.175s1.176,0.527,1.176,1.175v4.896
			C52.578,73.754,52.051,74.28,51.402,74.28z"/>
	</g>
	<g>
		<path d="M35.502,67.622c-0.301,0-0.602-0.114-0.832-0.344c-0.459-0.458-0.459-1.202,0-1.661l4.209-4.209
			c0.459-0.458,1.203-0.458,1.662,0c0.459,0.457,0.459,1.202,0,1.661l-4.209,4.209C36.102,67.508,35.803,67.622,35.502,67.622z"/>
	</g>
	<g>
		<path d="M69.178,67.622c-0.301,0-0.602-0.114-0.832-0.344l-4.209-4.209c-0.459-0.459-0.459-1.202,0-1.661
			c0.459-0.458,1.203-0.458,1.662,0l4.209,4.209c0.459,0.459,0.459,1.202,0,1.661C69.777,67.508,69.479,67.622,69.178,67.622z"/>
	</g>
	<g>
		<path d="M34.564,52.172h-5.287c-0.648,0-1.174-0.525-1.174-1.175s0.525-1.175,1.174-1.175h5.287c0.648,0,1.176,0.525,1.176,1.175
			S35.213,52.172,34.564,52.172z"/>
	</g>
	<g>
		<path d="M74.506,52.172H68.24c-0.648,0-1.174-0.525-1.174-1.175s0.525-1.175,1.174-1.175h6.266c0.648,0,1.174,0.525,1.174,1.175
			S75.154,52.172,74.506,52.172z"/>
	</g>
</g>
</svg>
