<?xml version="1.0" encoding="utf-8"?>
<!-- Generator: Adobe Illustrator 16.0.0, SVG Export Plug-In . SVG Version: 6.00 Build 0)  -->
<!DOCTYPE svg PUBLIC "-//W3C//DTD SVG 1.1//EN" "http://www.w3.org/Graphics/SVG/1.1/DTD/svg11.dtd">
<svg version="1.1" id="Layer_1" xmlns="http://www.w3.org/2000/svg" xmlns:xlink="http://www.w3.org/1999/xlink" x="0px" y="0px"
	 width="100px" height="100px" viewBox="0 0 100 100" enable-background="new 0 0 100 100" xml:space="preserve">
<g>
	<g>
		<path d="M49.291,91.698l-4.313-13.459h3.334l1.638,5.691c0.459,1.617,0.879,3.135,1.198,4.813h0.061
			c0.34-1.617,0.758-3.215,1.217-4.754l1.719-5.75h3.234l-4.533,13.459H49.291z"/>
	</g>
	<path d="M55.037,57.203l-1.772-1.406c0.382-0.826,0.602-1.74,0.602-2.708c0-0.936-0.204-1.823-0.563-2.627l1.812-1.507
		c0.749-0.623,0.851-1.737,0.228-2.487c-0.625-0.749-1.737-0.852-2.486-0.229l-1.813,1.508c-0.57-0.392-1.205-0.689-1.887-0.883
		v-2.369c0-0.977-0.791-1.767-1.766-1.767c-0.977,0-1.766,0.79-1.766,1.767v2.369c-0.651,0.185-1.262,0.467-1.811,0.832
		l-1.876-1.488c-0.763-0.605-1.874-0.479-2.48,0.287c-0.606,0.764-0.479,1.874,0.284,2.48l1.773,1.406
		c-0.383,0.824-0.602,1.74-0.602,2.707c0,0.758,0.139,1.484,0.379,2.16l-1.879,1.563c-0.75,0.625-0.852,1.739-0.229,2.488
		c0.35,0.42,0.852,0.637,1.359,0.637c0.398,0,0.799-0.134,1.128-0.409l1.672-1.39c0.665,0.533,1.438,0.937,2.28,1.176v2.369
		c0,0.977,0.789,1.766,1.766,1.766c0.975,0,1.766-0.789,1.766-1.766v-2.369c0.65-0.186,1.261-0.465,1.811-0.831l1.875,1.487
		c0.324,0.258,0.711,0.383,1.096,0.383c0.521,0,1.036-0.229,1.386-0.668C55.929,58.92,55.801,57.81,55.037,57.203z M45.129,54.949
		c-0.064-0.138-0.141-0.271-0.241-0.394c-0.022-0.026-0.05-0.047-0.073-0.072c-0.227-0.416-0.367-0.887-0.367-1.395
		c0-0.668,0.23-1.275,0.606-1.771c0.075-0.066,0.149-0.131,0.214-0.213c0.033-0.041,0.056-0.088,0.084-0.131
		c0.531-0.51,1.248-0.828,2.039-0.828c1.623,0,2.943,1.32,2.943,2.943c0,0.647-0.217,1.244-0.573,1.729
		c-0.089,0.075-0.173,0.159-0.247,0.255c-0.035,0.041-0.057,0.088-0.085,0.131c-0.53,0.51-1.247,0.828-2.038,0.828
		C46.475,56.032,45.668,55.604,45.129,54.949z"/>
	<path d="M64.279,14.814c-3.334,0-6.581,0.894-9.441,2.591c-2.295-1.676-5.08-2.591-7.934-2.591c-5.886,0-10.961,3.729-12.764,9.216
		c-1.24-0.369-2.52-0.557-3.82-0.557c-7.416,0-13.451,6.035-13.451,13.453s6.035,13.451,13.451,13.451
		c2.045,0,4.053-0.467,5.885-1.363c0.129,0.344,0.429-2.867,0.429-2.867c-0.13,0.029-0.257,0.073-0.372,0.146
		c-1.785,1.135-3.84,1.735-5.941,1.735c-6.121,0-11.102-4.981-11.102-11.103c0-6.123,4.98-11.104,11.102-11.104
		c1.434,0,2.838,0.275,4.175,0.819c0.319,0.13,0.681,0.114,0.986-0.047c0.306-0.159,0.526-0.446,0.603-0.782
		c1.149-5.093,5.599-8.649,10.82-8.649c2.591,0,5.115,0.915,7.105,2.575c0.397,0.331,0.965,0.363,1.397,0.08
		c2.646-1.736,5.714-2.655,8.872-2.655c8.935,0,16.203,7.269,16.203,16.202s-7.269,16.201-16.203,16.201
		c-1.443,0-2.914-0.207-4.369-0.613c-0.529-0.148-1.09,0.09-1.351,0.573c-0.321,0.597-0.71,1.142-1.124,1.659v3.348
		c1.045-0.881,1.978-1.906,2.725-3.092c1.373,0.314,2.754,0.475,4.119,0.475c10.229,0,18.553-8.322,18.553-18.551
		C82.832,23.137,74.509,14.814,64.279,14.814z"/>
</g>
</svg>
