<?xml version="1.0" encoding="utf-8"?>
<!-- Generator: Adobe Illustrator 16.0.0, SVG Export Plug-In . SVG Version: 6.00 Build 0)  -->
<!DOCTYPE svg PUBLIC "-//W3C//DTD SVG 1.1//EN" "http://www.w3.org/Graphics/SVG/1.1/DTD/svg11.dtd">
<svg version="1.1" id="Layer_1" xmlns="http://www.w3.org/2000/svg" xmlns:xlink="http://www.w3.org/1999/xlink" x="0px" y="0px"
	 width="100px" height="100px" viewBox="0 0 100 100" enable-background="new 0 0 100 100" xml:space="preserve">
<g>
	<g>
		<path d="M37.542,50.092c-2.591,0-4.698-2.105-4.698-4.698c0-2.591,2.107-4.699,4.698-4.699s4.699,2.108,4.699,4.699
			C42.241,47.986,40.133,50.092,37.542,50.092z M37.542,43.044c-1.296,0-2.349,1.056-2.349,2.35c0,1.296,1.053,2.35,2.349,2.35
			s2.35-1.054,2.35-2.35C39.892,44.1,38.838,43.044,37.542,43.044z"/>
	</g>
	<g>
		<path d="M44.2,42.342h12.016v3.653h-7.572v4.503h7.075v3.626h-7.075v7.922H44.2V42.342z"/>
	</g>
</g>
</svg>
