<?xml version="1.0" encoding="utf-8"?>
<!-- Generator: Adobe Illustrator 16.0.0, SVG Export Plug-In . SVG Version: 6.00 Build 0)  -->
<!DOCTYPE svg PUBLIC "-//W3C//DTD SVG 1.1//EN" "http://www.w3.org/Graphics/SVG/1.1/DTD/svg11.dtd">
<svg version="1.1" id="Layer_1" xmlns="http://www.w3.org/2000/svg" xmlns:xlink="http://www.w3.org/1999/xlink" x="0px" y="0px"
	 width="100px" height="100px" viewBox="0 0 100 100" enable-background="new 0 0 100 100" xml:space="preserve">
<g>
	<g>
		<path d="M44.021,52.727c-8.403,0-15.239-6.836-15.239-15.24c0-7.883,5.911-14.402,13.751-15.163
			c0.502-0.052,0.976,0.226,1.184,0.684c0.207,0.458,0.101,0.997-0.264,1.341c-1.912,1.799-2.965,4.227-2.965,6.835
			c0,5.182,4.217,9.398,9.398,9.398c2.826,0,5.475-1.255,7.271-3.444c0.319-0.388,0.851-0.53,1.319-0.356
			c0.471,0.176,0.777,0.632,0.763,1.134C59.009,46.221,52.324,52.727,44.021,52.727z M39.697,25.337
			c-5.049,1.775-8.566,6.556-8.566,12.149c0,7.108,5.783,12.89,12.891,12.89c5.951,0,10.922-3.955,12.415-9.439
			c-1.913,1.288-4.183,1.993-6.55,1.993c-6.478,0-11.748-5.27-11.748-11.748C38.139,29.092,38.68,27.094,39.697,25.337z"/>
	</g>
	<g>
		<path d="M48.684,79.842c-0.539,0.26-1.816,0.58-3.435,0.58c-4.653,0-7.05-2.916-7.05-6.75c0-4.594,3.275-7.129,7.348-7.129
			c1.579,0,2.777,0.3,3.316,0.6l-0.639,2.396c-0.6-0.26-1.459-0.5-2.557-0.5c-2.396,0-4.273,1.459-4.273,4.453
			c0,2.695,1.598,4.393,4.293,4.393c0.938,0,1.938-0.18,2.556-0.438L48.684,79.842z"/>
	</g>
</g>
</svg>
