<?xml version="1.0" encoding="utf-8"?>
<!-- Generator: Adobe Illustrator 16.0.0, SVG Export Plug-In . SVG Version: 6.00 Build 0)  -->
<!DOCTYPE svg PUBLIC "-//W3C//DTD SVG 1.1//EN" "http://www.w3.org/Graphics/SVG/1.1/DTD/svg11.dtd">
<svg version="1.1" id="Layer_1" xmlns="http://www.w3.org/2000/svg" xmlns:xlink="http://www.w3.org/1999/xlink" x="0px" y="0px"
	 width="100px" height="100px" viewBox="0 0 100 100" enable-background="new 0 0 100 100" xml:space="preserve">
<path d="M47.857,23.377c-15.142,0-27.46,12.317-27.46,27.459s12.318,27.459,27.46,27.459s27.46-12.317,27.46-27.459
	S62.999,23.377,47.857,23.377z M47.858,75.064c-3.73,0-6.716-3.023-6.716-6.754c0-2.677,1.857-4.982,3.857-6.076v-32.69
	c0-1.622,1.378-2.937,3.001-2.937c1.621,0,2.999,1.314,2.999,2.937v32.69c2,1.094,3.715,3.399,3.715,6.076
	C54.715,72.041,51.588,75.064,47.858,75.064z"/>
</svg>
