<?xml version="1.0" encoding="utf-8"?>
<!-- Generator: Adobe Illustrator 16.0.0, SVG Export Plug-In . SVG Version: 6.00 Build 0)  -->
<!DOCTYPE svg PUBLIC "-//W3C//DTD SVG 1.1//EN" "http://www.w3.org/Graphics/SVG/1.1/DTD/svg11.dtd">
<svg version="1.1" id="Layer_1" xmlns="http://www.w3.org/2000/svg" xmlns:xlink="http://www.w3.org/1999/xlink" x="0px" y="0px"
	 width="100px" height="100px" viewBox="0 0 100 100" enable-background="new 0 0 100 100" xml:space="preserve">
<g>
	<path d="M64.504,41.744l-2.947-2.339c0.635-1.372,0.999-2.895,0.999-4.502c0-1.557-0.339-3.032-0.935-4.369l3.01-2.506
		c1.247-1.037,1.416-2.889,0.38-4.136c-1.038-1.245-2.89-1.417-4.136-0.379l-3.014,2.506c-0.947-0.65-2.006-1.146-3.138-1.468V20.61
		c0-1.622-1.315-2.937-2.937-2.937c-1.623,0-2.938,1.314-2.938,2.937v3.941c-1.082,0.308-2.096,0.773-3.012,1.383l-3.116-2.474
		c-1.271-1.007-3.118-0.796-4.126,0.476c-1.008,1.27-0.797,3.117,0.475,4.125l2.947,2.34c-0.635,1.371-1,2.893-1,4.502
		c0,1.262,0.23,2.467,0.629,3.592l-3.125,2.601c-1.246,1.038-1.416,2.89-0.379,4.137c0.582,0.697,1.418,1.058,2.26,1.058
		c0.662,0,1.328-0.223,1.877-0.679l2.779-2.313c1.107,0.888,2.391,1.558,3.791,1.956v3.94c0,1.622,1.314,2.937,2.938,2.937
		c1.621,0,2.937-1.314,2.937-2.937v-3.94c1.081-0.309,2.097-0.773,3.011-1.383l3.117,2.474c0.541,0.429,1.184,0.636,1.824,0.636
		c0.865,0,1.723-0.381,2.303-1.11C65.987,44.601,65.774,42.753,64.504,41.744z M48.025,37.997c-0.105-0.229-0.23-0.451-0.399-0.654
		c-0.037-0.045-0.083-0.078-0.123-0.121c-0.377-0.693-0.61-1.475-0.61-2.318c0-1.11,0.385-2.122,1.009-2.943
		c0.125-0.111,0.25-0.222,0.357-0.356c0.055-0.069,0.092-0.146,0.141-0.218c0.88-0.85,2.072-1.378,3.389-1.378
		c2.699,0,4.895,2.196,4.895,4.896c0,1.078-0.361,2.066-0.953,2.876c-0.148,0.124-0.287,0.266-0.412,0.424
		c-0.055,0.069-0.092,0.146-0.14,0.218c-0.882,0.85-2.073,1.377-3.39,1.377C50.266,39.798,48.923,39.087,48.025,37.997z"/>
	<g>
		<path d="M57.797,89.745c-0.938,0.319-2.715,0.759-4.492,0.759c-2.457,0-4.234-0.618-5.472-1.796
			c-1.218-1.18-1.897-2.937-1.897-4.913c0.02-4.474,3.275-7.029,7.688-7.029c1.738,0,3.076,0.339,3.734,0.64l-0.639,2.455
			c-0.738-0.339-1.637-0.578-3.115-0.578c-2.536,0-4.473,1.417-4.473,4.353c0,2.796,1.758,4.413,4.254,4.413
			c0.678,0,1.237-0.08,1.477-0.18v-2.835h-2.076v-2.377h5.012V89.745z"/>
	</g>
</g>
</svg>
