<?xml version="1.0" encoding="utf-8"?>
<!-- Generator: Adobe Illustrator 16.0.0, SVG Export Plug-In . SVG Version: 6.00 Build 0)  -->
<!DOCTYPE svg PUBLIC "-//W3C//DTD SVG 1.1//EN" "http://www.w3.org/Graphics/SVG/1.1/DTD/svg11.dtd">
<svg version="1.1" id="Layer_1" xmlns="http://www.w3.org/2000/svg" xmlns:xlink="http://www.w3.org/1999/xlink" x="0px" y="0px"
	 width="100px" height="100px" viewBox="0 0 100 100" enable-background="new 0 0 100 100" xml:space="preserve">
<g>
	<g>
		<path d="M64.717,89.23c0,3.994-1.618,6.77-4.913,6.77c-3.354,0-4.832-3.016-4.853-6.689c0-3.773,1.578-6.729,4.934-6.729
			C63.338,82.582,64.717,85.678,64.717,89.23z M57.986,89.311c0,2.977,0.719,4.395,1.877,4.395c1.179,0,1.817-1.479,1.817-4.434
			c0-2.875-0.619-4.393-1.838-4.393C58.745,84.879,57.986,86.275,57.986,89.311z"/>
	</g>
	<g>
		<path d="M90.205,20.254c0-7.136-5.805-12.94-12.939-12.94c-2.172,0-4.311,0.55-6.213,1.594c-1.559-1.031-3.418-1.594-5.283-1.594
			c-3.931,0-7.416,2.373-8.862,5.966c-0.69-0.157-1.398-0.236-2.109-0.236c-5.274,0-9.566,4.292-9.566,9.566
			c0,1.567,0.386,3.042,1.056,4.349c-2.19,1.615-3.882,3.894-4.771,6.604c-1.24-0.369-2.52-0.557-3.82-0.557
			c-7.418,0-13.451,6.035-13.451,13.453c0,7.417,6.033,13.451,13.451,13.451c2.045,0,4.053-0.468,5.884-1.363
			c0.989,2.633,2.757,4.829,4.995,6.357v-3.019c-1.504-1.412-2.634-3.241-3.169-5.356c-0.093-0.365-0.354-0.664-0.704-0.804
			c-0.141-0.056-0.287-0.083-0.434-0.083c-0.221,0-0.439,0.063-0.631,0.184c-1.786,1.135-3.84,1.735-5.941,1.735
			c-6.121,0-11.103-4.981-11.103-11.103c0-6.123,4.981-11.104,11.103-11.104c1.434,0,2.838,0.276,4.174,0.82
			c0.319,0.129,0.681,0.112,0.986-0.047c0.307-0.16,0.526-0.446,0.603-0.783c0.602-2.665,2.112-4.902,4.158-6.437
			c0.794-0.595,1.669-1.082,2.604-1.447c1.262-0.491,2.629-0.766,4.057-0.766c2.592,0,5.116,0.915,7.107,2.575
			c0.396,0.332,0.964,0.364,1.396,0.08c2.646-1.737,5.715-2.655,8.873-2.655c3.439,0,6.625,1.085,9.252,2.92
			c0.871,0.608,1.678,1.302,2.413,2.067c2.803,2.914,4.537,6.862,4.537,11.215c0,8.934-7.269,16.202-16.202,16.202
			c-1.444,0-2.914-0.206-4.369-0.614c-0.531-0.148-1.091,0.09-1.352,0.573c-1.198,2.223-3.09,3.905-5.318,4.881v2.513
			c2.826-0.99,5.283-2.884,6.92-5.479c1.373,0.317,2.754,0.476,4.119,0.476c10.229,0,18.551-8.321,18.551-18.551
			c0-4.828-1.869-9.217-4.902-12.521C88.285,28.004,90.205,24.352,90.205,20.254z M71.654,24.346c-3.335,0-6.582,0.894-9.443,2.592
			c-2.295-1.677-5.079-2.592-7.934-2.592c-1.949,0-3.806,0.417-5.487,1.163c-0.426-0.878-0.672-1.859-0.672-2.899
			c0-3.684,2.997-6.681,6.68-6.681c0.861,0,1.706,0.166,2.51,0.493c0.174,0.071,0.356,0.106,0.544,0.106
			c0.232,0,0.464-0.057,0.668-0.163c0.377-0.196,0.646-0.546,0.74-0.962c0.691-3.063,3.369-5.203,6.51-5.203
			c1.559,0,3.076,0.55,4.273,1.548c0.26,0.217,0.588,0.336,0.926,0.336c0.281,0,0.555-0.081,0.792-0.236
			c1.643-1.078,3.546-1.647,5.505-1.647c5.543,0,10.054,4.51,10.054,10.054c0,3.339-1.642,6.293-4.153,8.122
			C79.999,25.86,76.004,24.346,71.654,24.346z"/>
		<path d="M58.098,66.805l0.336-2.435c-0.741,0.112-1.492,0.19-2.259,0.19c-0.946,0-3.61-0.89-4.517-1.06l-0.375,2.686l-3.253,5.377
			l3.817,2.645L48.03,84.485l10.866-9.617l-5.434-3.305L58.098,66.805z"/>
	</g>
</g>
</svg>
