<?xml version="1.0" encoding="utf-8"?>
<!-- Generator: Adobe Illustrator 16.0.0, SVG Export Plug-In . SVG Version: 6.00 Build 0)  -->
<!DOCTYPE svg PUBLIC "-//W3C//DTD SVG 1.1//EN" "http://www.w3.org/Graphics/SVG/1.1/DTD/svg11.dtd">
<svg version="1.1" id="Layer_1" xmlns="http://www.w3.org/2000/svg" xmlns:xlink="http://www.w3.org/1999/xlink" x="0px" y="0px"
	 width="100px" height="100px" viewBox="0 0 100 100" enable-background="new 0 0 100 100" xml:space="preserve">
<g>
	<circle cx="44.43" cy="43.089" r="2.35"/>
	<path d="M51.416,22.095c-15.143,0-27.461,12.317-27.461,27.459s12.318,27.459,27.461,27.459c15.141,0,27.459-12.317,27.459-27.459
		S66.557,22.095,51.416,22.095z M44.43,47.788c-2.592,0-4.699-2.108-4.699-4.699s2.107-4.699,4.699-4.699
		c2.59,0,4.699,2.108,4.699,4.699S47.02,47.788,44.43,47.788z M63,44h-7v4h7v4h-7v8h-5V40h12V44z"/>
</g>
</svg>
