<?xml version="1.0" encoding="utf-8"?>
<!-- Generator: Adobe Illustrator 16.0.0, SVG Export Plug-In . SVG Version: 6.00 Build 0)  -->
<!DOCTYPE svg PUBLIC "-//W3C//DTD SVG 1.1//EN" "http://www.w3.org/Graphics/SVG/1.1/DTD/svg11.dtd">
<svg version="1.1" id="Layer_1" xmlns="http://www.w3.org/2000/svg" xmlns:xlink="http://www.w3.org/1999/xlink" x="0px" y="0px"
	 width="100px" height="100px" viewBox="0 0 100 100" enable-background="new 0 0 100 100" xml:space="preserve">
<g>
	<g>
		<path d="M62.256,86.4c0,4.434-2.655,7.089-6.61,7.089c-3.974,0-6.33-3.016-6.33-6.87c0-4.033,2.598-7.048,6.551-7.048
			C59.999,79.571,62.256,82.666,62.256,86.4z M52.531,86.561c0,2.655,1.237,4.514,3.275,4.514c2.056,0,3.235-1.957,3.235-4.574
			c0-2.436-1.139-4.513-3.235-4.513C53.729,81.987,52.531,83.944,52.531,86.561z"/>
	</g>
	<path d="M69.905,13.023c-3.335,0-6.582,0.893-9.443,2.59c-2.295-1.676-5.08-2.59-7.934-2.59c-5.885,0-10.961,3.729-12.762,9.215
		c-1.24-0.369-2.521-0.556-3.82-0.556c-7.418,0-13.452,6.034-13.452,13.452c0,4.666,2.39,8.781,6.006,11.194
		c2.134,1.424,4.694,2.258,7.446,2.258c2.045,0,4.053-0.468,5.884-1.364c0.106,0.283,0.226,0.559,0.349,0.832
		c1.479,3.252,4.178,5.747,7.455,6.993c0.2,0.075,0.407,0.136,0.611,0.202l-3.434,5.861l3.818,2.643l-3.818,10.279l10.866-9.618
		l-5.433-3.304l5.433-5.615l-0.002-0.007c2.556-0.642,4.866-2.01,6.646-3.959c0.533-0.583,1.035-1.2,1.465-1.88
		c0.321,0.074,0.644,0.109,0.965,0.167c1.054,0.185,2.108,0.309,3.154,0.309c10.229,0,18.551-8.323,18.551-18.552
		S80.134,13.023,69.905,13.023z M80.603,43.71c-2.857,2.522-6.596,4.066-10.697,4.066c-0.116,0-0.234-0.01-0.35-0.013
		c-0.242-0.005-0.484-0.009-0.729-0.025c-0.93-0.066-1.866-0.225-2.798-0.455c-0.165-0.041-0.329-0.075-0.493-0.121
		c-0.531-0.148-1.091,0.09-1.352,0.573c-0.379,0.704-0.846,1.337-1.352,1.931c-2.085,2.445-5.137,3.914-8.428,3.914
		c-4.971,0-9.301-3.301-10.655-8.061c-0.03-0.105-0.067-0.208-0.094-0.314c-0.093-0.365-0.354-0.664-0.704-0.803
		c-0.141-0.057-0.287-0.084-0.435-0.084c-0.22,0-0.439,0.063-0.63,0.184c-1.787,1.135-3.841,1.735-5.941,1.735
		c-2.197,0-4.24-0.649-5.965-1.754c-2.426-1.554-4.209-4.019-4.859-6.913c-0.178-0.785-0.278-1.598-0.278-2.436
		c0-6.122,4.98-11.103,11.103-11.103c1.434,0,2.838,0.275,4.174,0.819c0.318,0.13,0.68,0.113,0.986-0.047
		c0.306-0.16,0.526-0.446,0.603-0.783c1.149-5.092,5.599-8.649,10.819-8.649c2.592,0,5.115,0.915,7.107,2.575
		c0.396,0.332,0.964,0.363,1.396,0.08c2.646-1.736,5.715-2.655,8.873-2.655c8.934,0,16.201,7.269,16.201,16.202
		C86.106,36.407,83.97,40.739,80.603,43.71z"/>
</g>
</svg>
