<?xml version="1.0" encoding="utf-8"?>
<!-- Generator: Adobe Illustrator 16.0.0, SVG Export Plug-In . SVG Version: 6.00 Build 0)  -->
<!DOCTYPE svg PUBLIC "-//W3C//DTD SVG 1.1//EN" "http://www.w3.org/Graphics/SVG/1.1/DTD/svg11.dtd">
<svg version="1.1" id="Layer_1" xmlns="http://www.w3.org/2000/svg" xmlns:xlink="http://www.w3.org/1999/xlink" x="0px" y="0px"
	 width="100px" height="100px" viewBox="0 0 100 100" enable-background="new 0 0 100 100" xml:space="preserve">
<g>
	<g>
		<path d="M59.907,98.222l-1.218-2.436c-0.5-0.939-0.819-1.639-1.198-2.416H57.45c-0.278,0.777-0.618,1.477-1.058,2.416l-1.1,2.436
			h-3.474l3.894-6.811l-3.754-6.648h3.495l1.178,2.455c0.399,0.819,0.698,1.479,1.018,2.236h0.042
			c0.318-0.858,0.578-1.457,0.918-2.236l1.137-2.455h3.476l-3.794,6.569l3.994,6.89H59.907z"/>
	</g>
	<circle cx="36.069" cy="61.446" r="3.524"/>
	<circle cx="43.118" cy="75.249" r="3.524"/>
	<circle cx="53.69" cy="64.97" r="3.524"/>
	<circle cx="71.507" cy="61.446" r="3.524"/>
	<circle cx="64.458" cy="75.249" r="3.524"/>
	<g>
		<path d="M56.145,54.586c-5.649,0-10.625-3.513-12.576-8.706c-1.831,0.896-3.839,1.363-5.884,1.363
			c-7.417,0-13.451-6.033-13.451-13.451s6.034-13.453,13.451-13.453c1.301,0,2.58,0.188,3.82,0.557
			c1.802-5.486,6.878-9.216,12.763-9.216c2.854,0,5.639,0.915,7.934,2.591c2.861-1.697,6.107-2.591,9.443-2.591
			c10.229,0,18.551,8.322,18.551,18.552c0,10.229-8.322,18.551-18.551,18.551c-1.365,0-2.747-0.16-4.119-0.475
			C65.068,52.202,60.789,54.586,56.145,54.586z M44.256,42.976c0.147,0,0.295,0.027,0.436,0.083c0.35,0.14,0.611,0.438,0.703,0.804
			c1.249,4.93,5.669,8.374,10.75,8.374c4.088,0,7.836-2.239,9.779-5.844c0.26-0.483,0.82-0.722,1.352-0.573
			c1.454,0.406,2.924,0.613,4.369,0.613c8.934,0,16.201-7.268,16.201-16.201s-7.268-16.202-16.201-16.202
			c-3.159,0-6.227,0.919-8.873,2.655c-0.434,0.283-1,0.251-1.397-0.08c-1.991-1.66-4.515-2.575-7.106-2.575
			c-5.221,0-9.67,3.557-10.82,8.649c-0.076,0.336-0.296,0.623-0.602,0.782c-0.307,0.161-0.668,0.177-0.986,0.047
			c-1.337-0.544-2.741-0.819-4.175-0.819c-6.121,0-11.103,4.98-11.103,11.104c0,6.121,4.981,11.102,11.103,11.102
			c2.101,0,4.155-0.6,5.941-1.734C43.817,43.038,44.036,42.976,44.256,42.976z"/>
	</g>
</g>
</svg>
