<?xml version="1.0" encoding="utf-8"?>
<!-- Generator: Adobe Illustrator 16.0.0, SVG Export Plug-In . SVG Version: 6.00 Build 0)  -->
<!DOCTYPE svg PUBLIC "-//W3C//DTD SVG 1.1//EN" "http://www.w3.org/Graphics/SVG/1.1/DTD/svg11.dtd">
<svg version="1.1" id="Layer_1" xmlns="http://www.w3.org/2000/svg" xmlns:xlink="http://www.w3.org/1999/xlink" x="0px" y="0px"
	 width="100px" height="100px" viewBox="0 0 100 100" enable-background="new 0 0 100 100" xml:space="preserve">
<g>
	<path d="M85.203,25.261c0-7.135-5.805-12.94-12.939-12.94c-2.173,0-4.313,0.549-6.213,1.593c-1.559-1.03-3.418-1.593-5.285-1.593
		c-3.93,0-7.415,2.373-8.861,5.966c-0.691-0.158-1.398-0.236-2.109-0.236c-5.275,0-9.566,4.291-9.566,9.565
		c0,1.567,0.387,3.043,1.057,4.349c-2.191,1.615-3.883,3.895-4.772,6.605c-1.24-0.371-2.521-0.558-3.82-0.558
		c-7.417,0-13.452,6.035-13.452,13.452c0,7.418,6.035,13.452,13.452,13.452c2.045,0,4.053-0.468,5.884-1.363
		c0.989,2.632,2.758,4.829,4.996,6.358v-3.02c-1.505-1.412-2.635-3.242-3.17-5.356c-0.092-0.366-0.354-0.664-0.704-0.805
		c-0.14-0.055-0.287-0.082-0.435-0.082c-0.22,0-0.439,0.062-0.63,0.184c-1.786,1.136-3.841,1.734-5.941,1.734
		c-6.122,0-11.103-4.98-11.103-11.103s4.98-11.103,11.103-11.103c1.434,0,2.837,0.276,4.175,0.819
		c0.318,0.13,0.68,0.113,0.986-0.046c0.305-0.161,0.525-0.446,0.602-0.783c0.602-2.666,2.112-4.902,4.158-6.437
		c0.795-0.596,1.669-1.082,2.604-1.446c1.262-0.491,2.628-0.767,4.058-0.767c2.592,0,5.115,0.914,7.106,2.575
		c0.397,0.332,0.964,0.363,1.397,0.079c2.646-1.736,5.714-2.654,8.872-2.654c3.439,0,6.626,1.085,9.251,2.92
		c0.873,0.608,1.68,1.302,2.414,2.066c2.803,2.914,4.537,6.863,4.537,11.216c0,8.933-7.268,16.202-16.202,16.202
		c-1.444,0-2.915-0.207-4.369-0.615c-0.53-0.148-1.091,0.091-1.352,0.573c-1.198,2.224-3.09,3.905-5.317,4.882v2.512
		c2.825-0.989,5.282-2.883,6.919-5.479c1.372,0.316,2.754,0.476,4.119,0.476c10.229,0,18.552-8.321,18.552-18.551
		c0-4.829-1.869-9.218-4.902-12.521C83.283,33.01,85.203,29.358,85.203,25.261z M66.651,29.353c-3.335,0-6.581,0.894-9.442,2.592
		c-2.295-1.678-5.08-2.592-7.934-2.592c-1.949,0-3.807,0.418-5.488,1.163c-0.426-0.879-0.672-1.859-0.672-2.9
		c0-3.682,2.996-6.679,6.68-6.679c0.861,0,1.707,0.165,2.51,0.492c0.174,0.07,0.357,0.106,0.545,0.106
		c0.232,0,0.463-0.057,0.668-0.162c0.376-0.198,0.646-0.548,0.74-0.962c0.691-3.065,3.368-5.205,6.508-5.205
		c1.559,0,3.078,0.55,4.275,1.548c0.259,0.218,0.588,0.337,0.926,0.337c0.281,0,0.554-0.082,0.791-0.236
		c1.643-1.078,3.547-1.648,5.506-1.648c5.543,0,10.053,4.51,10.053,10.055c0,3.338-1.643,6.292-4.153,8.123
		C74.996,30.867,71,29.353,66.651,29.353z"/>
	<path d="M53.096,71.811l0.336-2.435c-0.742,0.112-1.493,0.19-2.26,0.19c-0.945,0-3.609-0.888-4.516-1.059l-0.377,2.686
		l-3.252,5.378l3.818,2.644l-3.818,10.279l10.867-9.619l-5.434-3.304L53.096,71.811z"/>
</g>
</svg>
