<?xml version="1.0" encoding="utf-8"?>
<!-- Generator: Adobe Illustrator 16.0.0, SVG Export Plug-In . SVG Version: 6.00 Build 0)  -->
<!DOCTYPE svg PUBLIC "-//W3C//DTD SVG 1.1//EN" "http://www.w3.org/Graphics/SVG/1.1/DTD/svg11.dtd">
<svg version="1.1" id="Layer_1" xmlns="http://www.w3.org/2000/svg" xmlns:xlink="http://www.w3.org/1999/xlink" x="0px" y="0px"
	 width="100px" height="100px" viewBox="0 0 100 100" enable-background="new 0 0 100 100" xml:space="preserve">
<g>
	<path d="M78.24,39.597H68.033c-0.602-7.621-6.982-13.641-14.756-13.641c-5.268,0-9.89,2.771-12.518,6.926h-13.62
		c-0.647,0-1.175,0.526-1.175,1.175c0,0.649,0.527,1.175,1.175,1.175h12.408c-0.554,1.367-0.903,2.832-1.026,4.365H30.37
		c-0.647,0-1.175,0.525-1.175,1.174c0,0.65,0.527,1.176,1.175,1.176h8.151c0.143,1.785,0.602,3.479,1.324,5.033H27.139
		c-0.647,0-1.175,0.525-1.175,1.174s0.527,1.176,1.175,1.176h14.067c2.687,3.779,7.09,6.257,12.07,6.257
		c4.981,0,9.386-2.478,12.073-6.257h5.842c0.649,0,1.175-0.527,1.175-1.176s-0.525-1.174-1.175-1.174H66.71
		c0.721-1.554,1.182-3.248,1.322-5.033H78.24c0.65,0,1.176-0.525,1.176-1.176C79.416,40.122,78.89,39.597,78.24,39.597z
		 M42.126,35.231h11.15c0.649,0,1.175-0.525,1.175-1.175c0-0.648-0.525-1.175-1.175-1.175h-9.641
		c2.287-2.791,5.759-4.576,9.641-4.576c6.478,0,11.813,4.967,12.406,11.291H40.871C41.018,38.04,41.458,36.569,42.126,35.231z
		 M53.277,53.236c-3.559,0-6.766-1.507-9.039-3.907h18.079C60.044,51.729,56.837,53.236,53.277,53.236z M64.072,46.979H42.484
		c-0.871-1.51-1.44-3.213-1.613-5.033h24.813C65.513,43.767,64.943,45.47,64.072,46.979z"/>
	<g>
		<path d="M54.126,76.529h-4.951v3.195h5.531v2.496h-8.567V68.762h8.288v2.498h-5.252v2.795h4.951V76.529z"/>
	</g>
</g>
</svg>
