<?xml version="1.0" encoding="utf-8"?>
<!-- Generator: Adobe Illustrator 16.0.0, SVG Export Plug-In . SVG Version: 6.00 Build 0)  -->
<!DOCTYPE svg PUBLIC "-//W3C//DTD SVG 1.1//EN" "http://www.w3.org/Graphics/SVG/1.1/DTD/svg11.dtd">
<svg version="1.1" id="Layer_1" xmlns="http://www.w3.org/2000/svg" xmlns:xlink="http://www.w3.org/1999/xlink" x="0px" y="0px"
	 width="100px" height="100px" viewBox="0 0 100 100" enable-background="new 0 0 100 100" xml:space="preserve">
<g>
	<path d="M38.09,71.167c0,1.865-1.512,3.377-3.377,3.377s-3.377-1.512-3.377-3.377s3.377-6.901,3.377-6.901
		S38.09,69.302,38.09,71.167z"/>
	<path d="M52.627,81.445c0,1.866-1.512,3.378-3.377,3.378c-1.866,0-3.377-1.512-3.377-3.378c0-1.865,3.377-6.901,3.377-6.901
		S52.627,79.58,52.627,81.445z"/>
	<path d="M66.431,77.922c0,1.865-1.512,3.377-3.377,3.377c-1.865,0-3.377-1.512-3.377-3.377s3.377-6.902,3.377-6.902
		S66.431,76.057,66.431,77.922z"/>
	<g>
		<path d="M51.264,64.266c-5.649,0-10.625-3.513-12.576-8.708c-1.832,0.896-3.839,1.365-5.884,1.365
			c-7.417,0-13.452-6.035-13.452-13.452c0-7.418,6.034-13.452,13.452-13.452c1.3,0,2.58,0.187,3.82,0.556
			c1.802-5.486,6.877-9.216,12.763-9.216c2.854,0,5.639,0.914,7.934,2.592c2.861-1.698,6.108-2.592,9.443-2.592
			c10.229,0,18.551,8.322,18.551,18.552s-8.322,18.552-18.551,18.552c-1.365,0-2.747-0.16-4.119-0.477
			C60.188,61.881,55.908,64.266,51.264,64.266z"/>
	</g>
</g>
</svg>
