<?xml version="1.0" encoding="utf-8"?>
<!-- Generator: Adobe Illustrator 16.0.0, SVG Export Plug-In . SVG Version: 6.00 Build 0)  -->
<!DOCTYPE svg PUBLIC "-//W3C//DTD SVG 1.1//EN" "http://www.w3.org/Graphics/SVG/1.1/DTD/svg11.dtd">
<svg version="1.1" id="Layer_1" xmlns="http://www.w3.org/2000/svg" xmlns:xlink="http://www.w3.org/1999/xlink" x="0px" y="0px"
	 width="100px" height="100px" viewBox="0 0 100 100" enable-background="new 0 0 100 100" xml:space="preserve">
<g>
	<path d="M60.28,77.407l-1.604-1.272c0.346-0.748,0.545-1.576,0.545-2.45c0-0.847-0.185-1.649-0.509-2.377l1.639-1.364
		c0.677-0.563,0.77-1.571,0.206-2.249c-0.565-0.68-1.572-0.771-2.251-0.209l-1.639,1.366c-0.516-0.354-1.092-0.624-1.708-0.8v-2.144
		c0-0.884-0.715-1.599-1.598-1.599s-1.598,0.715-1.598,1.599v2.144c-0.589,0.168-1.141,0.422-1.639,0.753l-1.696-1.346
		c-0.691-0.55-1.696-0.433-2.245,0.258c-0.548,0.69-0.433,1.697,0.258,2.245l1.604,1.272c-0.346,0.745-0.544,1.575-0.544,2.45
		c0,0.687,0.125,1.343,0.342,1.955l-1.701,1.414c-0.677,0.563-0.77,1.573-0.206,2.25c0.316,0.381,0.771,0.576,1.229,0.576
		c0.361,0,0.723-0.121,1.021-0.37l1.512-1.258c0.602,0.482,1.301,0.848,2.063,1.064v2.144c0,0.884,0.715,1.598,1.598,1.598
		s1.598-0.714,1.598-1.598v-2.144c0.588-0.168,1.141-0.421,1.639-0.752l1.696,1.346c0.293,0.233,0.644,0.346,0.992,0.346
		c0.47,0,0.937-0.207,1.253-0.604C61.086,78.961,60.971,77.956,60.28,77.407z M51.314,75.366c-0.058-0.124-0.126-0.245-0.218-0.355
		c-0.02-0.022-0.045-0.041-0.066-0.064c-0.206-0.377-0.333-0.803-0.333-1.262c0-0.604,0.209-1.154,0.549-1.603
		c0.067-0.06,0.135-0.119,0.193-0.192c0.03-0.038,0.05-0.079,0.076-0.12c0.479-0.461,1.128-0.749,1.844-0.749
		c1.469,0,2.664,1.195,2.664,2.664c0,0.585-0.196,1.124-0.519,1.564c-0.081,0.067-0.157,0.145-0.224,0.229
		c-0.031,0.039-0.05,0.081-0.076,0.119c-0.479,0.462-1.128,0.751-1.845,0.751C52.533,76.348,51.802,75.96,51.314,75.366z"/>
	<g>
		<path d="M53.131,61.664c-5.649,0-10.625-3.513-12.576-8.707c-1.832,0.896-3.839,1.365-5.884,1.365
			c-7.417,0-13.451-6.035-13.451-13.452c0-7.418,6.034-13.452,13.451-13.452c1.301,0,2.58,0.186,3.82,0.555
			c1.802-5.485,6.877-9.215,12.763-9.215c2.854,0,5.639,0.914,7.934,2.591c2.861-1.697,6.108-2.591,9.443-2.591
			c10.229,0,18.551,8.321,18.551,18.551c0,10.23-8.322,18.552-18.551,18.552c-1.365,0-2.747-0.159-4.119-0.476
			C62.055,59.28,57.775,61.664,53.131,61.664z M41.243,50.053c0.147,0,0.294,0.027,0.435,0.083c0.35,0.139,0.612,0.438,0.704,0.804
			c1.249,4.931,5.668,8.374,10.75,8.374c4.089,0,7.835-2.239,9.779-5.844c0.261-0.484,0.821-0.723,1.352-0.573
			c1.455,0.407,2.925,0.613,4.369,0.613c8.934,0,16.202-7.268,16.202-16.202c0-8.934-7.268-16.201-16.202-16.201
			c-3.159,0-6.227,0.917-8.873,2.655c-0.433,0.283-1,0.251-1.397-0.08c-1.991-1.661-4.515-2.575-7.106-2.575
			c-5.221,0-9.67,3.556-10.82,8.648c-0.076,0.337-0.296,0.624-0.602,0.783c-0.307,0.16-0.668,0.177-0.987,0.047
			c-1.336-0.543-2.741-0.818-4.174-0.818c-6.121,0-11.102,4.979-11.102,11.103c0,6.121,4.981,11.103,11.102,11.103
			c2.102,0,4.155-0.602,5.941-1.735C40.804,50.115,41.023,50.053,41.243,50.053z"/>
	</g>
</g>
</svg>
