<?xml version="1.0" encoding="utf-8"?>
<!-- Generator: Adobe Illustrator 16.0.0, SVG Export Plug-In . SVG Version: 6.00 Build 0)  -->
<!DOCTYPE svg PUBLIC "-//W3C//DTD SVG 1.1//EN" "http://www.w3.org/Graphics/SVG/1.1/DTD/svg11.dtd">
<svg version="1.1" id="Layer_1" xmlns="http://www.w3.org/2000/svg" xmlns:xlink="http://www.w3.org/1999/xlink" x="0px" y="0px"
	 width="100px" height="100px" viewBox="0 0 100 100" enable-background="new 0 0 100 100" xml:space="preserve">
<g>
	<g>
		<path d="M33.777,41.79h-14.23c-0.195,0-0.353-0.526-0.353-1.175c0-0.649,0.157-1.175,0.353-1.175h14.23
			c0.193,0,0.352,0.525,0.352,1.175C34.129,41.264,33.971,41.79,33.777,41.79z"/>
	</g>
	<g>
		<path d="M33.18,48.839H16.012c-0.234,0-0.425-0.526-0.425-1.175c0-0.649,0.19-1.175,0.425-1.175H33.18
			c0.233,0,0.424,0.525,0.424,1.175C33.604,48.313,33.413,48.839,33.18,48.839z"/>
	</g>
	<g>
		<path d="M33.264,56.181h-13.73c-0.187,0-0.339-0.526-0.339-1.175c0-0.649,0.152-1.175,0.339-1.175h13.73
			c0.188,0,0.34,0.525,0.34,1.175C33.604,55.654,33.451,56.181,33.264,56.181z"/>
	</g>
	<path d="M50.766,68.76c0,1.865-1.512,3.379-3.377,3.379s-3.378-1.514-3.378-3.379c0-1.864,3.378-6.9,3.378-6.9
		S50.766,66.896,50.766,68.76z"/>
	<path d="M65.303,79.039c0,1.865-1.512,3.379-3.377,3.379s-3.377-1.514-3.377-3.379s3.377-6.9,3.377-6.9
		S65.303,77.174,65.303,79.039z"/>
	<path d="M71.473,29.981c-2.172,0-4.311,0.549-6.213,1.593c-1.559-1.031-3.418-1.593-5.283-1.593c-3.931,0-7.416,2.372-8.862,5.965
		c-0.69-0.157-1.398-0.236-2.109-0.236c-5.274,0-9.565,4.292-9.565,9.566c0,5.275,4.291,9.567,9.565,9.567
		c1.206,0,2.417-0.236,3.542-0.687c1.549,3.343,4.949,5.543,8.671,5.543c3.147,0,6.042-1.514,7.834-4.074
		c0.809,0.156,1.621,0.235,2.421,0.235c7.135,0,12.939-5.806,12.939-12.939C84.412,35.786,78.607,29.981,71.473,29.981z
		 M71.473,52.975c-0.895,0-1.807-0.129-2.712-0.382c-0.126-0.036-0.257-0.055-0.389-0.055c-0.531,0-1.019,0.292-1.271,0.759
		c-1.169,2.169-3.424,3.518-5.884,3.518c-3.056,0-5.716-2.072-6.466-5.038c-0.113-0.448-0.437-0.817-0.862-0.986
		c-0.171-0.068-0.351-0.104-0.537-0.104c-0.275,0-0.543,0.078-0.774,0.226c-1.074,0.684-2.31,1.045-3.573,1.045
		c-3.683,0-6.68-2.997-6.68-6.681s2.997-6.68,6.68-6.68c0.861,0,1.706,0.165,2.51,0.493c0.174,0.07,0.356,0.105,0.544,0.105
		c0.232,0,0.464-0.056,0.668-0.163c0.377-0.196,0.646-0.546,0.74-0.961c0.691-3.064,3.369-5.204,6.51-5.204
		c1.559,0,3.076,0.55,4.273,1.548c0.26,0.217,0.588,0.336,0.926,0.336c0.281,0,0.555-0.081,0.792-0.236
		c1.643-1.078,3.546-1.647,5.505-1.647c5.543,0,10.054,4.51,10.054,10.055C81.526,48.465,77.016,52.975,71.473,52.975z"/>
</g>
</svg>
